# MagicaVoxel @ ephtracy

# material
mtllib round_shield_white.mtl
usemtl palette

# normals
vn -1 0 0
vn 1 0 0
vn 0 0 1
vn 0 0 -1
vn 0 -1 0
vn 0 1 0

# texcoords
vt 0.00195313 0.5
vt 0.966797 0.5

# verts
v -0.173 0 0.173
v -0.173 0 -0.173
v -0.173 0.173 0.346
v -0.173 0.173 0.173
v -0.173 0.173 -0.173
v -0.173 0.173 -0.346
v -0.173 0.346 0.519
v -0.173 0.346 0.346
v -0.173 0.346 0.173
v -0.173 0.346 -0.173
v -0.173 0.346 -0.346
v -0.173 0.346 -0.519
v -0.173 0.519 0.692
v -0.173 0.519 0.519
v -0.173 0.519 0.346
v -0.173 0.519 0.173
v -0.173 0.519 -0.173
v -0.173 0.519 -0.346
v -0.173 0.519 -0.519
v -0.173 0.519 -0.692
v -0.173 0.865 0.692
v -0.173 0.865 0.519
v -0.173 0.865 0.346
v -0.173 0.865 0.173
v -0.173 0.865 -0.173
v -0.173 0.865 -0.346
v -0.173 0.865 -0.519
v -0.173 0.865 -0.692
v -0.173 1.038 0.519
v -0.173 1.038 0.346
v -0.173 1.038 0.173
v -0.173 1.038 -0.173
v -0.173 1.038 -0.346
v -0.173 1.038 -0.519
v -0.173 1.211 0.346
v -0.173 1.211 0.173
v -0.173 1.211 -0.173
v -0.173 1.211 -0.346
v -0.173 1.384 0.173
v -0.173 1.384 -0.173
v 0 0 0.346
v 0 0 0.173
v 0 0 -0.173
v 0 0 -0.346
v 0 0.173 0.519
v 0 0.173 0.346
v 0 0.173 0.173
v 0 0.173 -0.173
v 0 0.173 -0.346
v 0 0.173 -0.519
v 0 0.346 0.692
v 0 0.346 0.519
v 0 0.346 0.346
v 0 0.346 -0.346
v 0 0.346 -0.519
v 0 0.346 -0.692
v 0 0.519 0.692
v 0 0.519 0.519
v 0 0.519 -0.519
v 0 0.519 -0.692
v 0 0.865 0.692
v 0 0.865 0.519
v 0 0.865 -0.519
v 0 0.865 -0.692
v 0 1.038 0.692
v 0 1.038 0.519
v 0 1.038 0.346
v 0 1.038 -0.346
v 0 1.038 -0.519
v 0 1.038 -0.692
v 0 1.211 0.519
v 0 1.211 0.346
v 0 1.211 0.173
v 0 1.211 -0.173
v 0 1.211 -0.346
v 0 1.211 -0.519
v 0 1.384 0.346
v 0 1.384 0.173
v 0 1.384 -0.173
v 0 1.384 -0.346
v 0 0.173 0.346
v 0 0.173 0.173
v 0 0.173 -0.173
v 0 0.173 -0.346
v 0 0.346 0.519
v 0 0.346 0.346
v 0 0.346 0.173
v 0 0.346 -0.173
v 0 0.346 -0.346
v 0 0.346 -0.519
v 0 0.519 0.519
v 0 0.519 0.346
v 0 0.519 0.173
v 0 0.519 -0.173
v 0 0.519 -0.346
v 0 0.519 -0.519
v 0 0.865 0.519
v 0 0.865 0.346
v 0 0.865 0.173
v 0 0.865 -0.173
v 0 0.865 -0.346
v 0 0.865 -0.519
v 0 1.038 0.519
v 0 1.038 0.346
v 0 1.038 0.173
v 0 1.038 -0.173
v 0 1.038 -0.346
v 0 1.038 -0.519
v 0 1.211 0.346
v 0 1.211 0.173
v 0 1.211 -0.173
v 0 1.211 -0.346
v 0.173 0 0.346
v 0.173 0 -0.346
v 0.173 0.173 0.519
v 0.173 0.173 0.346
v 0.173 0.173 -0.346
v 0.173 0.173 -0.519
v 0.173 0.346 0.692
v 0.173 0.346 0.519
v 0.173 0.346 0.346
v 0.173 0.346 -0.346
v 0.173 0.346 -0.519
v 0.173 0.346 -0.692
v 0.173 1.038 0.692
v 0.173 1.038 0.519
v 0.173 1.038 0.346
v 0.173 1.038 -0.346
v 0.173 1.038 -0.519
v 0.173 1.038 -0.692
v 0.173 1.211 0.519
v 0.173 1.211 0.346
v 0.173 1.211 -0.346
v 0.173 1.211 -0.519
v 0.173 1.384 0.346
v 0.173 1.384 -0.346
v -0.173 0.519 0.692
v -0.173 0.865 0.692
v 0 0.346 0.692
v 0 0.519 0.692
v 0 0.865 0.692
v 0 1.038 0.692
v 0.173 0.346 0.692
v 0.173 1.038 0.692
v -0.173 0.346 0.519
v -0.173 0.519 0.519
v -0.173 0.865 0.519
v -0.173 1.038 0.519
v 0 0.173 0.519
v 0 0.346 0.519
v 0 0.519 0.519
v 0 0.865 0.519
v 0 1.038 0.519
v 0 1.211 0.519
v 0.173 0.173 0.519
v 0.173 0.346 0.519
v 0.173 1.038 0.519
v 0.173 1.211 0.519
v -0.173 0.173 0.346
v -0.173 0.346 0.346
v -0.173 1.038 0.346
v -0.173 1.211 0.346
v 0 0 0.346
v 0 0.173 0.346
v 0 0.346 0.346
v 0 1.038 0.346
v 0 1.211 0.346
v 0 1.384 0.346
v 0.173 0 0.346
v 0.173 0.173 0.346
v 0.173 1.211 0.346
v 0.173 1.384 0.346
v -0.173 0 0.173
v -0.173 0.173 0.173
v -0.173 1.211 0.173
v -0.173 1.384 0.173
v 0 0 0.173
v 0 0.173 0.173
v 0 1.211 0.173
v 0 1.384 0.173
v 0 0.173 -0.346
v 0 0.346 -0.346
v 0 1.038 -0.346
v 0 1.211 -0.346
v 0.173 0.173 -0.346
v 0.173 0.346 -0.346
v 0.173 1.038 -0.346
v 0.173 1.211 -0.346
v 0 0.346 -0.519
v 0 0.519 -0.519
v 0 0.865 -0.519
v 0 1.038 -0.519
v 0.173 0.346 -0.519
v 0.173 1.038 -0.519
v 0 0.346 0.519
v 0 0.519 0.519
v 0 0.865 0.519
v 0 1.038 0.519
v 0.173 0.346 0.519
v 0.173 1.038 0.519
v 0 0.173 0.346
v 0 0.346 0.346
v 0 1.038 0.346
v 0 1.211 0.346
v 0.173 0.173 0.346
v 0.173 0.346 0.346
v 0.173 1.038 0.346
v 0.173 1.211 0.346
v -0.173 0 -0.173
v -0.173 0.173 -0.173
v -0.173 1.211 -0.173
v -0.173 1.384 -0.173
v 0 0 -0.173
v 0 0.173 -0.173
v 0 1.211 -0.173
v 0 1.384 -0.173
v -0.173 0.173 -0.346
v -0.173 0.346 -0.346
v -0.173 1.038 -0.346
v -0.173 1.211 -0.346
v 0 0 -0.346
v 0 0.173 -0.346
v 0 0.346 -0.346
v 0 1.038 -0.346
v 0 1.211 -0.346
v 0 1.384 -0.346
v 0.173 0 -0.346
v 0.173 0.173 -0.346
v 0.173 1.211 -0.346
v 0.173 1.384 -0.346
v -0.173 0.346 -0.519
v -0.173 0.519 -0.519
v -0.173 0.865 -0.519
v -0.173 1.038 -0.519
v 0 0.173 -0.519
v 0 0.346 -0.519
v 0 0.519 -0.519
v 0 0.865 -0.519
v 0 1.038 -0.519
v 0 1.211 -0.519
v 0.173 0.173 -0.519
v 0.173 0.346 -0.519
v 0.173 1.038 -0.519
v 0.173 1.211 -0.519
v -0.173 0.519 -0.692
v -0.173 0.865 -0.692
v 0 0.346 -0.692
v 0 0.519 -0.692
v 0 0.865 -0.692
v 0 1.038 -0.692
v 0.173 0.346 -0.692
v 0.173 1.038 -0.692
v 0 0 0.346
v 0.173 0 0.346
v -0.173 0 0.173
v 0 0 0.173
v -0.173 0 -0.173
v 0 0 -0.173
v 0 0 -0.346
v 0.173 0 -0.346
v 0 0.173 0.519
v 0.173 0.173 0.519
v -0.173 0.173 0.346
v 0 0.173 0.346
v 0.173 0.173 0.346
v -0.173 0.173 0.173
v 0 0.173 0.173
v -0.173 0.173 -0.173
v 0 0.173 -0.173
v -0.173 0.173 -0.346
v 0 0.173 -0.346
v 0.173 0.173 -0.346
v 0 0.173 -0.519
v 0.173 0.173 -0.519
v 0 0.346 0.692
v 0.173 0.346 0.692
v -0.173 0.346 0.519
v 0 0.346 0.519
v 0.173 0.346 0.519
v -0.173 0.346 0.346
v 0 0.346 0.346
v -0.173 0.346 -0.346
v 0 0.346 -0.346
v -0.173 0.346 -0.519
v 0 0.346 -0.519
v 0.173 0.346 -0.519
v 0 0.346 -0.692
v 0.173 0.346 -0.692
v -0.173 0.519 0.692
v 0 0.519 0.692
v -0.173 0.519 0.519
v 0 0.519 0.519
v -0.173 0.519 -0.519
v 0 0.519 -0.519
v -0.173 0.519 -0.692
v 0 0.519 -0.692
v 0 1.038 0.519
v 0.173 1.038 0.519
v 0 1.038 0.346
v 0.173 1.038 0.346
v 0 1.038 -0.346
v 0.173 1.038 -0.346
v 0 1.038 -0.519
v 0.173 1.038 -0.519
v 0 1.211 0.346
v 0.173 1.211 0.346
v 0 1.211 0.173
v 0 1.211 -0.173
v 0 1.211 -0.346
v 0.173 1.211 -0.346
v 0 0.173 0.346
v 0.173 0.173 0.346
v 0 0.173 0.173
v 0 0.173 -0.173
v 0 0.173 -0.346
v 0.173 0.173 -0.346
v 0 0.346 0.519
v 0.173 0.346 0.519
v 0 0.346 0.346
v 0.173 0.346 0.346
v 0 0.346 -0.346
v 0.173 0.346 -0.346
v 0 0.346 -0.519
v 0.173 0.346 -0.519
v -0.173 0.865 0.692
v 0 0.865 0.692
v -0.173 0.865 0.519
v 0 0.865 0.519
v -0.173 0.865 -0.519
v 0 0.865 -0.519
v -0.173 0.865 -0.692
v 0 0.865 -0.692
v 0 1.038 0.692
v 0.173 1.038 0.692
v -0.173 1.038 0.519
v 0 1.038 0.519
v 0.173 1.038 0.519
v -0.173 1.038 0.346
v 0 1.038 0.346
v -0.173 1.038 -0.346
v 0 1.038 -0.346
v -0.173 1.038 -0.519
v 0 1.038 -0.519
v 0.173 1.038 -0.519
v 0 1.038 -0.692
v 0.173 1.038 -0.692
v 0 1.211 0.519
v 0.173 1.211 0.519
v -0.173 1.211 0.346
v 0 1.211 0.346
v 0.173 1.211 0.346
v -0.173 1.211 0.173
v 0 1.211 0.173
v -0.173 1.211 -0.173
v 0 1.211 -0.173
v -0.173 1.211 -0.346
v 0 1.211 -0.346
v 0.173 1.211 -0.346
v 0 1.211 -0.519
v 0.173 1.211 -0.519
v 0 1.384 0.346
v 0.173 1.384 0.346
v -0.173 1.384 0.173
v 0 1.384 0.173
v -0.173 1.384 -0.173
v 0 1.384 -0.173
v 0 1.384 -0.346
v 0.173 1.384 -0.346

# faces
f 4/1/1 2/1/1 1/1/1
f 5/1/1 2/1/1 4/1/1
f 8/1/1 4/1/1 3/1/1
f 9/2/1 5/2/1 4/2/1
f 9/1/1 4/1/1 8/1/1
f 10/1/1 6/1/1 5/1/1
f 10/2/1 5/2/1 9/2/1
f 11/1/1 6/1/1 10/1/1
f 14/1/1 8/1/1 7/1/1
f 15/2/1 9/2/1 8/2/1
f 15/1/1 8/1/1 14/1/1
f 16/1/1 10/1/1 9/1/1
f 16/2/1 9/2/1 15/2/1
f 17/2/1 11/2/1 10/2/1
f 17/1/1 10/1/1 16/1/1
f 18/1/1 12/1/1 11/1/1
f 18/2/1 11/2/1 17/2/1
f 19/1/1 12/1/1 18/1/1
f 21/1/1 14/1/1 13/1/1
f 22/2/1 15/2/1 14/2/1
f 22/1/1 14/1/1 21/1/1
f 23/1/1 16/1/1 15/1/1
f 23/2/1 15/2/1 22/2/1
f 24/2/1 17/2/1 16/2/1
f 24/1/1 16/1/1 23/1/1
f 25/1/1 18/1/1 17/1/1
f 25/2/1 17/2/1 24/2/1
f 26/2/1 19/2/1 18/2/1
f 26/1/1 18/1/1 25/1/1
f 27/1/1 20/1/1 19/1/1
f 27/2/1 19/2/1 26/2/1
f 28/1/1 20/1/1 27/1/1
f 29/1/1 23/1/1 22/1/1
f 30/2/1 24/2/1 23/2/1
f 30/1/1 23/1/1 29/1/1
f 31/1/1 25/1/1 24/1/1
f 31/2/1 24/2/1 30/2/1
f 32/2/1 26/2/1 25/2/1
f 32/1/1 25/1/1 31/1/1
f 33/1/1 27/1/1 26/1/1
f 33/2/1 26/2/1 32/2/1
f 34/1/1 27/1/1 33/1/1
f 35/1/1 31/1/1 30/1/1
f 36/2/1 32/2/1 31/2/1
f 36/1/1 31/1/1 35/1/1
f 37/1/1 33/1/1 32/1/1
f 37/2/1 32/2/1 36/2/1
f 38/1/1 33/1/1 37/1/1
f 39/1/1 37/1/1 36/1/1
f 40/1/1 37/1/1 39/1/1
f 46/1/1 42/1/1 41/1/1
f 47/1/1 42/1/1 46/1/1
f 48/1/1 44/1/1 43/1/1
f 49/1/1 44/1/1 48/1/1
f 52/1/1 46/1/1 45/1/1
f 53/1/1 46/1/1 52/1/1
f 54/1/1 50/1/1 49/1/1
f 55/1/1 50/1/1 54/1/1
f 57/1/1 52/1/1 51/1/1
f 58/1/1 52/1/1 57/1/1
f 59/1/1 56/1/1 55/1/1
f 60/1/1 56/1/1 59/1/1
f 65/1/1 62/1/1 61/1/1
f 66/1/1 62/1/1 65/1/1
f 69/1/1 64/1/1 63/1/1
f 70/1/1 64/1/1 69/1/1
f 71/1/1 67/1/1 66/1/1
f 72/1/1 67/1/1 71/1/1
f 75/1/1 69/1/1 68/1/1
f 76/1/1 69/1/1 75/1/1
f 77/1/1 73/1/1 72/1/1
f 78/1/1 73/1/1 77/1/1
f 79/1/1 75/1/1 74/1/1
f 80/1/1 75/1/1 79/1/1
f 81/1/2 82/1/2 86/1/2
f 82/2/2 83/2/2 87/2/2
f 86/1/2 82/1/2 87/1/2
f 83/1/2 84/1/2 88/1/2
f 87/2/2 83/2/2 88/2/2
f 88/1/2 84/1/2 89/1/2
f 85/1/2 86/1/2 91/1/2
f 86/2/2 87/2/2 92/2/2
f 91/1/2 86/1/2 92/1/2
f 87/1/2 88/1/2 93/1/2
f 92/2/2 87/2/2 93/2/2
f 88/2/2 89/2/2 94/2/2
f 93/1/2 88/1/2 94/1/2
f 89/1/2 90/1/2 95/1/2
f 94/2/2 89/2/2 95/2/2
f 95/1/2 90/1/2 96/1/2
f 91/2/2 92/2/2 97/2/2
f 92/1/2 93/1/2 98/1/2
f 97/2/2 92/2/2 98/2/2
f 93/2/2 94/2/2 99/2/2
f 98/1/2 93/1/2 99/1/2
f 94/1/2 95/1/2 100/1/2
f 99/2/2 94/2/2 100/2/2
f 95/2/2 96/2/2 101/2/2
f 100/1/2 95/1/2 101/1/2
f 101/2/2 96/2/2 102/2/2
f 97/1/2 98/1/2 103/1/2
f 98/2/2 99/2/2 104/2/2
f 103/1/2 98/1/2 104/1/2
f 99/1/2 100/1/2 105/1/2
f 104/2/2 99/2/2 105/2/2
f 100/2/2 101/2/2 106/2/2
f 105/1/2 100/1/2 106/1/2
f 101/1/2 102/1/2 107/1/2
f 106/2/2 101/2/2 107/2/2
f 107/1/2 102/1/2 108/1/2
f 104/1/2 105/1/2 109/1/2
f 105/2/2 106/2/2 110/2/2
f 109/1/2 105/1/2 110/1/2
f 106/1/2 107/1/2 111/1/2
f 110/2/2 106/2/2 111/2/2
f 111/1/2 107/1/2 112/1/2
f 113/1/2 114/1/2 116/1/2
f 116/1/2 114/1/2 117/1/2
f 115/1/2 116/1/2 120/1/2
f 120/1/2 116/1/2 121/1/2
f 117/1/2 118/1/2 122/1/2
f 122/1/2 118/1/2 123/1/2
f 119/1/2 120/1/2 125/1/2
f 125/1/2 120/1/2 126/1/2
f 123/1/2 124/1/2 129/1/2
f 129/1/2 124/1/2 130/1/2
f 126/1/2 127/1/2 131/1/2
f 131/1/2 127/1/2 132/1/2
f 128/1/2 129/1/2 133/1/2
f 133/1/2 129/1/2 134/1/2
f 132/1/2 133/1/2 135/1/2
f 135/1/2 133/1/2 136/1/2
f 140/1/3 138/1/3 137/1/3
f 141/1/3 138/1/3 140/1/3
f 143/1/3 140/1/3 139/1/3
f 143/1/3 142/1/3 141/1/3
f 143/1/3 141/1/3 140/1/3
f 144/1/3 142/1/3 143/1/3
f 150/1/3 146/1/3 145/1/3
f 151/1/3 146/1/3 150/1/3
f 152/1/3 148/1/3 147/1/3
f 153/1/3 148/1/3 152/1/3
f 155/1/3 150/1/3 149/1/3
f 156/1/3 150/1/3 155/1/3
f 157/1/3 154/1/3 153/1/3
f 158/1/3 154/1/3 157/1/3
f 164/1/3 160/1/3 159/1/3
f 165/1/3 160/1/3 164/1/3
f 166/1/3 162/1/3 161/1/3
f 167/1/3 162/1/3 166/1/3
f 169/1/3 164/1/3 163/1/3
f 170/1/3 164/1/3 169/1/3
f 171/1/3 168/1/3 167/1/3
f 172/1/3 168/1/3 171/1/3
f 177/1/3 174/1/3 173/1/3
f 178/1/3 174/1/3 177/1/3
f 179/1/3 176/1/3 175/1/3
f 180/1/3 176/1/3 179/1/3
f 185/1/3 182/1/3 181/1/3
f 186/1/3 182/1/3 185/1/3
f 187/1/3 184/1/3 183/1/3
f 188/1/3 184/1/3 187/1/3
f 193/1/3 190/1/3 189/1/3
f 193/1/3 192/1/3 191/1/3
f 193/1/3 191/1/3 190/1/3
f 194/1/3 192/1/3 193/1/3
f 195/1/4 196/1/4 199/1/4
f 197/1/4 198/1/4 199/1/4
f 196/1/4 197/1/4 199/1/4
f 199/1/4 198/1/4 200/1/4
f 201/1/4 202/1/4 205/1/4
f 205/1/4 202/1/4 206/1/4
f 203/1/4 204/1/4 207/1/4
f 207/1/4 204/1/4 208/1/4
f 209/1/4 210/1/4 213/1/4
f 213/1/4 210/1/4 214/1/4
f 211/1/4 212/1/4 215/1/4
f 215/1/4 212/1/4 216/1/4
f 217/1/4 218/1/4 222/1/4
f 222/1/4 218/1/4 223/1/4
f 219/1/4 220/1/4 224/1/4
f 224/1/4 220/1/4 225/1/4
f 221/1/4 222/1/4 227/1/4
f 227/1/4 222/1/4 228/1/4
f 225/1/4 226/1/4 229/1/4
f 229/1/4 226/1/4 230/1/4
f 231/1/4 232/1/4 236/1/4
f 236/1/4 232/1/4 237/1/4
f 233/1/4 234/1/4 238/1/4
f 238/1/4 234/1/4 239/1/4
f 235/1/4 236/1/4 241/1/4
f 241/1/4 236/1/4 242/1/4
f 239/1/4 240/1/4 243/1/4
f 243/1/4 240/1/4 244/1/4
f 245/1/4 246/1/4 248/1/4
f 248/1/4 246/1/4 249/1/4
f 247/1/4 248/1/4 251/1/4
f 249/1/4 250/1/4 251/1/4
f 248/1/4 249/1/4 251/1/4
f 251/1/4 250/1/4 252/1/4
f 256/1/5 254/1/5 253/1/5
f 257/1/5 256/1/5 255/1/5
f 258/1/5 254/1/5 256/1/5
f 258/1/5 256/1/5 257/1/5
f 259/1/5 254/1/5 258/1/5
f 260/1/5 254/1/5 259/1/5
f 264/1/5 262/1/5 261/1/5
f 265/1/5 262/1/5 264/1/5
f 266/1/5 264/1/5 263/1/5
f 267/1/5 264/1/5 266/1/5
f 270/1/5 269/1/5 268/1/5
f 271/1/5 269/1/5 270/1/5
f 273/1/5 272/1/5 271/1/5
f 274/1/5 272/1/5 273/1/5
f 278/1/5 276/1/5 275/1/5
f 279/1/5 276/1/5 278/1/5
f 280/1/5 278/1/5 277/1/5
f 281/1/5 278/1/5 280/1/5
f 284/1/5 283/1/5 282/1/5
f 285/1/5 283/1/5 284/1/5
f 287/1/5 286/1/5 285/1/5
f 288/1/5 286/1/5 287/1/5
f 291/1/5 290/1/5 289/1/5
f 292/1/5 290/1/5 291/1/5
f 295/1/5 294/1/5 293/1/5
f 296/1/5 294/1/5 295/1/5
f 299/1/5 298/1/5 297/1/5
f 300/1/5 298/1/5 299/1/5
f 303/1/5 302/1/5 301/1/5
f 304/1/5 302/1/5 303/1/5
f 307/1/5 306/1/5 305/1/5
f 308/1/5 306/1/5 307/1/5
f 309/1/5 306/1/5 308/1/5
f 310/1/5 306/1/5 309/1/5
f 311/1/6 312/1/6 313/1/6
f 313/1/6 312/1/6 314/1/6
f 314/1/6 312/1/6 315/1/6
f 315/1/6 312/1/6 316/1/6
f 317/1/6 318/1/6 319/1/6
f 319/1/6 318/1/6 320/1/6
f 321/1/6 322/1/6 323/1/6
f 323/1/6 322/1/6 324/1/6
f 325/1/6 326/1/6 327/1/6
f 327/1/6 326/1/6 328/1/6
f 329/1/6 330/1/6 331/1/6
f 331/1/6 330/1/6 332/1/6
f 333/1/6 334/1/6 336/1/6
f 336/1/6 334/1/6 337/1/6
f 335/1/6 336/1/6 338/1/6
f 338/1/6 336/1/6 339/1/6
f 340/1/6 341/1/6 342/1/6
f 342/1/6 341/1/6 343/1/6
f 343/1/6 344/1/6 345/1/6
f 345/1/6 344/1/6 346/1/6
f 347/1/6 348/1/6 350/1/6
f 350/1/6 348/1/6 351/1/6
f 349/1/6 350/1/6 352/1/6
f 352/1/6 350/1/6 353/1/6
f 354/1/6 355/1/6 356/1/6
f 356/1/6 355/1/6 357/1/6
f 357/1/6 358/1/6 359/1/6
f 359/1/6 358/1/6 360/1/6
f 361/1/6 362/1/6 364/1/6
f 363/1/6 364/1/6 365/1/6
f 364/1/6 362/1/6 366/1/6
f 365/1/6 364/1/6 366/1/6
f 366/1/6 362/1/6 367/1/6
f 367/1/6 362/1/6 368/1/6
