# MagicaVoxel @ ephtracy

# material
mtllib tower_shield_green.mtl
usemtl palette

# normals
vn -1 0 0
vn 1 0 0
vn 0 0 1
vn 0 0 -1
vn 0 -1 0
vn 0 1 0

# texcoords
vt 0.0449219 0.5
vt 0.650391 0.5

# verts
v -0.2595 0 0.6055
v -0.2595 0 -0.6055
v -0.2595 0.173 0.6055
v -0.2595 0.173 0.2595
v -0.2595 0.173 0.0865
v -0.2595 0.173 -0.0865
v -0.2595 0.173 -0.2595
v -0.2595 0.173 -0.6055
v -0.2595 0.346 0.4325
v -0.2595 0.346 0.2595
v -0.2595 0.346 -0.2595
v -0.2595 0.346 -0.4325
v -0.2595 0.519 0.2595
v -0.2595 0.519 0.0865
v -0.2595 0.519 -0.0865
v -0.2595 0.519 -0.2595
v -0.2595 0.519 -0.6055
v -0.2595 0.519 -0.7785
v -0.2595 0.692 0.7785
v -0.2595 0.692 0.6055
v -0.2595 0.692 0.2595
v -0.2595 0.692 0.0865
v -0.2595 0.692 -0.0865
v -0.2595 0.692 -0.2595
v -0.2595 0.865 0.4325
v -0.2595 0.865 0.2595
v -0.2595 0.865 -0.2595
v -0.2595 0.865 -0.4325
v -0.2595 1.038 0.6055
v -0.2595 1.038 0.2595
v -0.2595 1.038 -0.2595
v -0.2595 1.038 -0.6055
v -0.2595 1.211 0.4325
v -0.2595 1.211 0.0865
v -0.2595 1.211 -0.0865
v -0.2595 1.211 -0.4325
v -0.2595 1.557 0.4325
v -0.2595 1.557 0.0865
v -0.2595 1.557 -0.0865
v -0.2595 1.557 -0.4325
v -0.2595 1.73 0.6055
v -0.2595 1.73 0.2595
v -0.2595 1.73 -0.2595
v -0.2595 1.73 -0.6055
v -0.2595 2.249 0.7785
v -0.2595 2.249 0.6055
v -0.2595 2.249 -0.6055
v -0.2595 2.249 -0.7785
v -0.2595 2.595 0.6055
v -0.2595 2.595 0.2595
v -0.2595 2.595 0.0865
v -0.2595 2.595 -0.0865
v -0.2595 2.595 -0.2595
v -0.2595 2.595 -0.6055
v -0.2595 2.768 0.6055
v -0.2595 2.768 -0.6055
v -0.0865 0 0.7785
v -0.0865 0 0.6055
v -0.0865 0 -0.6055
v -0.0865 0 -0.7785
v -0.0865 0.173 0.7785
v -0.0865 0.173 0.6055
v -0.0865 0.173 -0.6055
v -0.0865 0.173 -0.7785
v -0.0865 0.519 -0.6055
v -0.0865 0.519 -0.7785
v -0.0865 0.519 -0.9515
v -0.0865 0.692 0.9515
v -0.0865 0.692 0.7785
v -0.0865 0.692 0.6055
v -0.0865 2.249 0.9515
v -0.0865 2.249 0.7785
v -0.0865 2.249 0.6055
v -0.0865 2.249 -0.6055
v -0.0865 2.249 -0.7785
v -0.0865 2.249 -0.9515
v -0.0865 2.595 0.7785
v -0.0865 2.595 0.6055
v -0.0865 2.595 -0.6055
v -0.0865 2.595 -0.7785
v -0.0865 2.768 0.7785
v -0.0865 2.768 0.6055
v -0.0865 2.768 -0.6055
v -0.0865 2.768 -0.7785
v 0.0865 0 0.9515
v 0.0865 0 0.7785
v 0.0865 0 -0.7785
v 0.0865 0 -0.9515
v 0.0865 0.173 0.9515
v 0.0865 0.173 0.7785
v 0.0865 0.173 -0.7785
v 0.0865 0.173 -0.9515
v 0.0865 0.519 -0.7785
v 0.0865 0.519 -0.9515
v 0.0865 0.692 0.9515
v 0.0865 0.692 0.7785
v 0.0865 2.249 0.9515
v 0.0865 2.249 0.7785
v 0.0865 2.249 -0.7785
v 0.0865 2.249 -0.9515
v 0.0865 2.595 0.9515
v 0.0865 2.595 0.7785
v 0.0865 2.595 -0.7785
v 0.0865 2.595 -0.9515
v 0.0865 2.768 0.9515
v 0.0865 2.768 0.7785
v 0.0865 2.768 -0.7785
v 0.0865 2.768 -0.9515
v -0.0865 0 0.6055
v -0.0865 0 -0.6055
v -0.0865 0.173 0.6055
v -0.0865 0.173 0.2595
v -0.0865 0.173 0.0865
v -0.0865 0.173 -0.0865
v -0.0865 0.173 -0.2595
v -0.0865 0.173 -0.6055
v -0.0865 0.346 0.4325
v -0.0865 0.346 0.2595
v -0.0865 0.346 -0.2595
v -0.0865 0.346 -0.4325
v -0.0865 0.519 0.2595
v -0.0865 0.519 0.0865
v -0.0865 0.519 -0.0865
v -0.0865 0.519 -0.2595
v -0.0865 0.692 0.2595
v -0.0865 0.692 0.0865
v -0.0865 0.692 -0.0865
v -0.0865 0.692 -0.2595
v -0.0865 0.865 0.4325
v -0.0865 0.865 0.2595
v -0.0865 0.865 -0.2595
v -0.0865 0.865 -0.4325
v -0.0865 1.038 0.6055
v -0.0865 1.038 0.2595
v -0.0865 1.038 -0.2595
v -0.0865 1.038 -0.6055
v -0.0865 1.211 0.4325
v -0.0865 1.211 0.0865
v -0.0865 1.211 -0.0865
v -0.0865 1.211 -0.4325
v -0.0865 1.557 0.4325
v -0.0865 1.557 0.0865
v -0.0865 1.557 -0.0865
v -0.0865 1.557 -0.4325
v -0.0865 1.73 0.6055
v -0.0865 1.73 0.2595
v -0.0865 1.73 -0.2595
v -0.0865 1.73 -0.6055
v -0.0865 2.595 0.6055
v -0.0865 2.595 0.2595
v -0.0865 2.595 0.0865
v -0.0865 2.595 -0.0865
v -0.0865 2.595 -0.2595
v -0.0865 2.595 -0.6055
v -0.0865 2.768 0.6055
v -0.0865 2.768 -0.6055
v 0.0865 0 0.7785
v 0.0865 0 0.6055
v 0.0865 0 -0.6055
v 0.0865 0 -0.7785
v 0.0865 0.173 0.7785
v 0.0865 0.173 0.6055
v 0.0865 0.173 -0.6055
v 0.0865 0.173 -0.7785
v 0.0865 2.595 0.7785
v 0.0865 2.595 0.6055
v 0.0865 2.595 -0.6055
v 0.0865 2.595 -0.7785
v 0.0865 2.768 0.7785
v 0.0865 2.768 0.6055
v 0.0865 2.768 -0.6055
v 0.0865 2.768 -0.7785
v 0.2595 0 0.9515
v 0.2595 0 0.7785
v 0.2595 0 -0.7785
v 0.2595 0 -0.9515
v 0.2595 0.173 0.9515
v 0.2595 0.173 0.7785
v 0.2595 0.173 -0.7785
v 0.2595 0.173 -0.9515
v 0.2595 2.595 0.9515
v 0.2595 2.595 0.7785
v 0.2595 2.595 -0.7785
v 0.2595 2.595 -0.9515
v 0.2595 2.768 0.9515
v 0.2595 2.768 0.7785
v 0.2595 2.768 -0.7785
v 0.2595 2.768 -0.9515
v -0.0865 0.692 0.9515
v -0.0865 2.249 0.9515
v 0.0865 0 0.9515
v 0.0865 0.173 0.9515
v 0.0865 0.692 0.9515
v 0.0865 2.249 0.9515
v 0.0865 2.595 0.9515
v 0.0865 2.768 0.9515
v 0.2595 0 0.9515
v 0.2595 0.173 0.9515
v 0.2595 2.595 0.9515
v 0.2595 2.768 0.9515
v -0.2595 0.692 0.7785
v -0.2595 2.249 0.7785
v -0.0865 0 0.7785
v -0.0865 0.173 0.7785
v -0.0865 0.692 0.7785
v -0.0865 2.249 0.7785
v -0.0865 2.595 0.7785
v -0.0865 2.768 0.7785
v 0.0865 0 0.7785
v 0.0865 0.173 0.7785
v 0.0865 0.692 0.7785
v 0.0865 2.249 0.7785
v 0.0865 2.595 0.7785
v 0.0865 2.768 0.7785
v -0.2595 0 0.6055
v -0.2595 0.173 0.6055
v -0.2595 0.692 0.6055
v -0.2595 2.249 0.6055
v -0.2595 2.595 0.6055
v -0.2595 2.768 0.6055
v -0.0865 0 0.6055
v -0.0865 0.173 0.6055
v -0.0865 0.692 0.6055
v -0.0865 2.249 0.6055
v -0.0865 2.595 0.6055
v -0.0865 2.768 0.6055
v -0.2595 0.519 -0.2595
v -0.2595 0.692 -0.2595
v -0.0865 0.519 -0.2595
v -0.0865 0.692 -0.2595
v -0.0865 0 -0.6055
v -0.0865 0.173 -0.6055
v -0.0865 1.038 -0.6055
v -0.0865 1.73 -0.6055
v -0.0865 2.595 -0.6055
v -0.0865 2.768 -0.6055
v 0.0865 0 -0.6055
v 0.0865 0.173 -0.6055
v 0.0865 2.595 -0.6055
v 0.0865 2.768 -0.6055
v 0.0865 0 -0.7785
v 0.0865 0.173 -0.7785
v 0.0865 2.595 -0.7785
v 0.0865 2.768 -0.7785
v 0.2595 0 -0.7785
v 0.2595 0.173 -0.7785
v 0.2595 2.595 -0.7785
v 0.2595 2.768 -0.7785
v 0.0865 0 0.7785
v 0.0865 0.173 0.7785
v 0.0865 2.595 0.7785
v 0.0865 2.768 0.7785
v 0.2595 0 0.7785
v 0.2595 0.173 0.7785
v 0.2595 2.595 0.7785
v 0.2595 2.768 0.7785
v -0.0865 0 0.6055
v -0.0865 0.173 0.6055
v -0.0865 1.038 0.6055
v -0.0865 1.73 0.6055
v -0.0865 2.595 0.6055
v -0.0865 2.768 0.6055
v 0.0865 0 0.6055
v 0.0865 0.173 0.6055
v 0.0865 2.595 0.6055
v 0.0865 2.768 0.6055
v -0.2595 0.519 0.2595
v -0.2595 0.692 0.2595
v -0.0865 0.519 0.2595
v -0.0865 0.692 0.2595
v -0.2595 0 -0.6055
v -0.2595 0.173 -0.6055
v -0.2595 0.519 -0.6055
v -0.2595 2.249 -0.6055
v -0.2595 2.595 -0.6055
v -0.2595 2.768 -0.6055
v -0.0865 0 -0.6055
v -0.0865 0.173 -0.6055
v -0.0865 0.519 -0.6055
v -0.0865 2.249 -0.6055
v -0.0865 2.595 -0.6055
v -0.0865 2.768 -0.6055
v -0.2595 0.519 -0.7785
v -0.2595 2.249 -0.7785
v -0.0865 0 -0.7785
v -0.0865 0.173 -0.7785
v -0.0865 0.519 -0.7785
v -0.0865 2.249 -0.7785
v -0.0865 2.595 -0.7785
v -0.0865 2.768 -0.7785
v 0.0865 0 -0.7785
v 0.0865 0.173 -0.7785
v 0.0865 0.519 -0.7785
v 0.0865 2.249 -0.7785
v 0.0865 2.595 -0.7785
v 0.0865 2.768 -0.7785
v -0.0865 0.519 -0.9515
v -0.0865 2.249 -0.9515
v 0.0865 0 -0.9515
v 0.0865 0.173 -0.9515
v 0.0865 0.519 -0.9515
v 0.0865 2.249 -0.9515
v 0.0865 2.595 -0.9515
v 0.0865 2.768 -0.9515
v 0.2595 0 -0.9515
v 0.2595 0.173 -0.9515
v 0.2595 2.595 -0.9515
v 0.2595 2.768 -0.9515
v 0.0865 0 0.9515
v 0.2595 0 0.9515
v -0.0865 0 0.7785
v 0.0865 0 0.7785
v 0.2595 0 0.7785
v -0.2595 0 0.6055
v -0.0865 0 0.6055
v 0.0865 0 0.6055
v -0.2595 0 -0.6055
v -0.0865 0 -0.6055
v 0.0865 0 -0.6055
v -0.0865 0 -0.7785
v 0.0865 0 -0.7785
v 0.2595 0 -0.7785
v 0.0865 0 -0.9515
v 0.2595 0 -0.9515
v -0.2595 0.519 -0.6055
v -0.0865 0.519 -0.6055
v -0.2595 0.519 -0.7785
v -0.0865 0.519 -0.7785
v 0.0865 0.519 -0.7785
v -0.0865 0.519 -0.9515
v 0.0865 0.519 -0.9515
v -0.0865 0.692 0.9515
v 0.0865 0.692 0.9515
v -0.2595 0.692 0.7785
v -0.0865 0.692 0.7785
v 0.0865 0.692 0.7785
v -0.2595 0.692 0.6055
v -0.0865 0.692 0.6055
v -0.2595 0.692 0.2595
v -0.0865 0.692 0.2595
v -0.2595 0.692 0.0865
v -0.0865 0.692 0.0865
v -0.2595 0.692 -0.0865
v -0.0865 0.692 -0.0865
v -0.2595 0.692 -0.2595
v -0.0865 0.692 -0.2595
v -0.2595 0.519 0.2595
v -0.0865 0.519 0.2595
v -0.2595 0.519 0.0865
v -0.0865 0.519 0.0865
v -0.2595 0.519 -0.0865
v -0.0865 0.519 -0.0865
v -0.2595 0.519 -0.2595
v -0.0865 0.519 -0.2595
v -0.0865 2.249 0.9515
v 0.0865 2.249 0.9515
v -0.2595 2.249 0.7785
v -0.0865 2.249 0.7785
v 0.0865 2.249 0.7785
v -0.2595 2.249 0.6055
v -0.0865 2.249 0.6055
v -0.2595 2.249 -0.6055
v -0.0865 2.249 -0.6055
v -0.2595 2.249 -0.7785
v -0.0865 2.249 -0.7785
v 0.0865 2.249 -0.7785
v -0.0865 2.249 -0.9515
v 0.0865 2.249 -0.9515
v 0.0865 2.768 0.9515
v 0.2595 2.768 0.9515
v -0.0865 2.768 0.7785
v 0.0865 2.768 0.7785
v 0.2595 2.768 0.7785
v -0.2595 2.768 0.6055
v -0.0865 2.768 0.6055
v 0.0865 2.768 0.6055
v -0.2595 2.768 -0.6055
v -0.0865 2.768 -0.6055
v 0.0865 2.768 -0.6055
v -0.0865 2.768 -0.7785
v 0.0865 2.768 -0.7785
v 0.2595 2.768 -0.7785
v 0.0865 2.768 -0.9515
v 0.2595 2.768 -0.9515

# faces
f 3/1/1 2/1/1 1/1/1
f 4/1/1 2/1/1 3/1/1
f 5/1/1 2/1/1 4/1/1
f 6/1/1 2/1/1 5/1/1
f 7/1/1 2/1/1 6/1/1
f 8/1/1 2/1/1 7/1/1
f 9/2/1 4/2/1 3/2/1
f 10/1/1 5/1/1 4/1/1
f 10/2/1 4/2/1 9/2/1
f 11/1/1 7/1/1 6/1/1
f 11/2/1 8/2/1 7/2/1
f 12/2/1 8/2/1 11/2/1
f 13/1/1 5/1/1 10/1/1
f 13/1/1 10/1/1 9/1/1
f 14/2/1 6/2/1 5/2/1
f 14/1/1 5/1/1 13/1/1
f 15/1/1 12/1/1 11/1/1
f 15/2/1 6/2/1 14/2/1
f 15/1/1 11/1/1 6/1/1
f 16/1/1 12/1/1 15/1/1
f 17/2/1 8/2/1 12/2/1
f 20/2/1 9/2/1 3/2/1
f 21/1/1 13/1/1 9/1/1
f 24/1/1 12/1/1 16/1/1
f 25/2/1 20/2/1 19/2/1
f 25/2/1 9/2/1 20/2/1
f 25/1/1 21/1/1 9/1/1
f 25/1/1 22/1/1 21/1/1
f 26/1/1 22/1/1 25/1/1
f 27/1/1 24/1/1 23/1/1
f 27/1/1 12/1/1 24/1/1
f 28/2/1 17/2/1 12/2/1
f 28/1/1 12/1/1 27/1/1
f 28/2/1 18/2/1 17/2/1
f 29/2/1 25/2/1 19/2/1
f 29/2/1 26/2/1 25/2/1
f 30/1/1 22/1/1 26/1/1
f 30/2/1 26/2/1 29/2/1
f 31/1/1 27/1/1 23/1/1
f 31/2/1 28/2/1 27/2/1
f 32/2/1 18/2/1 28/2/1
f 32/2/1 28/2/1 31/2/1
f 33/1/1 30/1/1 29/1/1
f 34/1/1 22/1/1 30/1/1
f 34/1/1 30/1/1 33/1/1
f 34/2/1 23/2/1 22/2/1
f 35/1/1 31/1/1 23/1/1
f 35/2/1 23/2/1 34/2/1
f 35/1/1 32/1/1 31/1/1
f 36/1/1 32/1/1 35/1/1
f 37/1/1 33/1/1 29/1/1
f 37/2/1 34/2/1 33/2/1
f 37/2/1 36/2/1 35/2/1
f 37/2/1 35/2/1 34/2/1
f 38/2/1 36/2/1 37/2/1
f 39/2/1 36/2/1 38/2/1
f 40/1/1 32/1/1 36/1/1
f 40/2/1 36/2/1 39/2/1
f 41/2/1 29/2/1 19/2/1
f 41/1/1 37/1/1 29/1/1
f 41/1/1 38/1/1 37/1/1
f 42/1/1 38/1/1 41/1/1
f 43/1/1 40/1/1 39/1/1
f 44/2/1 18/2/1 32/2/1
f 44/1/1 40/1/1 43/1/1
f 44/1/1 32/1/1 40/1/1
f 45/2/1 42/2/1 41/2/1
f 45/2/1 41/2/1 19/2/1
f 46/2/1 42/2/1 45/2/1
f 47/2/1 18/2/1 44/2/1
f 47/2/1 44/2/1 43/2/1
f 48/2/1 18/2/1 47/2/1
f 49/2/1 42/2/1 46/2/1
f 50/1/1 38/1/1 42/1/1
f 50/2/1 42/2/1 49/2/1
f 51/2/1 39/2/1 38/2/1
f 51/1/1 38/1/1 50/1/1
f 52/1/1 43/1/1 39/1/1
f 52/2/1 39/2/1 51/2/1
f 53/2/1 47/2/1 43/2/1
f 53/1/1 43/1/1 52/1/1
f 54/2/1 47/2/1 53/2/1
f 55/1/1 50/1/1 49/1/1
f 55/1/1 51/1/1 50/1/1
f 55/1/1 54/1/1 53/1/1
f 55/1/1 53/1/1 52/1/1
f 55/1/1 52/1/1 51/1/1
f 56/1/1 54/1/1 55/1/1
f 61/1/1 58/1/1 57/1/1
f 62/1/1 58/1/1 61/1/1
f 63/1/1 60/1/1 59/1/1
f 64/1/1 60/1/1 63/1/1
f 65/2/1 64/2/1 63/2/1
f 66/2/1 64/2/1 65/2/1
f 69/2/1 62/2/1 61/2/1
f 70/2/1 62/2/1 69/2/1
f 71/2/1 69/2/1 68/2/1
f 72/2/1 69/2/1 71/2/1
f 75/2/1 67/2/1 66/2/1
f 76/2/1 67/2/1 75/2/1
f 77/2/1 73/2/1 72/2/1
f 78/2/1 73/2/1 77/2/1
f 79/2/1 75/2/1 74/2/1
f 80/2/1 75/2/1 79/2/1
f 81/1/1 78/1/1 77/1/1
f 82/1/1 78/1/1 81/1/1
f 83/1/1 80/1/1 79/1/1
f 84/1/1 80/1/1 83/1/1
f 89/1/1 86/1/1 85/1/1
f 90/1/1 86/1/1 89/1/1
f 91/1/1 88/1/1 87/1/1
f 92/1/1 88/1/1 91/1/1
f 93/2/1 92/2/1 91/2/1
f 94/2/1 92/2/1 93/2/1
f 95/2/1 90/2/1 89/2/1
f 96/2/1 90/2/1 95/2/1
f 101/2/1 98/2/1 97/2/1
f 102/2/1 98/2/1 101/2/1
f 103/2/1 100/2/1 99/2/1
f 104/2/1 100/2/1 103/2/1
f 105/1/1 102/1/1 101/1/1
f 106/1/1 102/1/1 105/1/1
f 107/1/1 104/1/1 103/1/1
f 108/1/1 104/1/1 107/1/1
f 109/1/2 110/1/2 111/1/2
f 111/1/2 110/1/2 112/1/2
f 112/1/2 110/1/2 113/1/2
f 113/1/2 110/1/2 114/1/2
f 114/1/2 110/1/2 115/1/2
f 115/1/2 110/1/2 116/1/2
f 111/2/2 112/2/2 117/2/2
f 112/1/2 113/1/2 118/1/2
f 117/2/2 112/2/2 118/2/2
f 114/1/2 115/1/2 119/1/2
f 115/2/2 116/2/2 119/2/2
f 119/2/2 116/2/2 120/2/2
f 118/1/2 113/1/2 121/1/2
f 117/1/2 118/1/2 121/1/2
f 113/2/2 114/2/2 122/2/2
f 121/1/2 113/1/2 122/1/2
f 119/1/2 120/1/2 123/1/2
f 122/2/2 114/2/2 123/2/2
f 114/1/2 119/1/2 123/1/2
f 123/1/2 120/1/2 124/1/2
f 117/1/2 121/1/2 125/1/2
f 124/1/2 120/1/2 128/1/2
f 111/2/2 117/2/2 129/2/2
f 117/1/2 125/1/2 129/1/2
f 125/1/2 126/1/2 129/1/2
f 129/1/2 126/1/2 130/1/2
f 127/1/2 128/1/2 131/1/2
f 128/1/2 120/1/2 131/1/2
f 120/2/2 116/2/2 132/2/2
f 131/1/2 120/1/2 132/1/2
f 129/2/2 130/2/2 133/2/2
f 111/2/2 129/2/2 133/2/2
f 130/1/2 126/1/2 134/1/2
f 133/2/2 130/2/2 134/2/2
f 127/1/2 131/1/2 135/1/2
f 131/2/2 132/2/2 135/2/2
f 132/2/2 116/2/2 136/2/2
f 135/2/2 132/2/2 136/2/2
f 133/1/2 134/1/2 137/1/2
f 126/2/2 127/2/2 138/2/2
f 137/1/2 134/1/2 138/1/2
f 134/1/2 126/1/2 138/1/2
f 135/1/2 136/1/2 139/1/2
f 138/2/2 127/2/2 139/2/2
f 127/1/2 135/1/2 139/1/2
f 139/1/2 136/1/2 140/1/2
f 133/1/2 137/1/2 141/1/2
f 137/2/2 138/2/2 141/2/2
f 139/2/2 140/2/2 141/2/2
f 138/2/2 139/2/2 141/2/2
f 141/2/2 140/2/2 142/2/2
f 142/2/2 140/2/2 143/2/2
f 140/1/2 136/1/2 144/1/2
f 143/2/2 140/2/2 144/2/2
f 133/1/2 141/1/2 145/1/2
f 141/1/2 142/1/2 145/1/2
f 145/1/2 142/1/2 146/1/2
f 143/1/2 144/1/2 147/1/2
f 144/1/2 136/1/2 148/1/2
f 147/1/2 144/1/2 148/1/2
f 145/2/2 146/2/2 149/2/2
f 146/1/2 142/1/2 150/1/2
f 149/2/2 146/2/2 150/2/2
f 142/2/2 143/2/2 151/2/2
f 150/1/2 142/1/2 151/1/2
f 143/1/2 147/1/2 152/1/2
f 151/2/2 143/2/2 152/2/2
f 147/2/2 148/2/2 153/2/2
f 152/1/2 147/1/2 153/1/2
f 153/2/2 148/2/2 154/2/2
f 149/1/2 150/1/2 155/1/2
f 150/1/2 151/1/2 155/1/2
f 153/1/2 154/1/2 155/1/2
f 152/1/2 153/1/2 155/1/2
f 151/1/2 152/1/2 155/1/2
f 155/1/2 154/1/2 156/1/2
f 157/1/2 158/1/2 161/1/2
f 161/1/2 158/1/2 162/1/2
f 159/1/2 160/1/2 163/1/2
f 163/1/2 160/1/2 164/1/2
f 161/2/2 162/2/2 165/2/2
f 165/2/2 162/2/2 166/2/2
f 163/2/2 164/2/2 167/2/2
f 167/2/2 164/2/2 168/2/2
f 165/1/2 166/1/2 169/1/2
f 169/1/2 166/1/2 170/1/2
f 167/1/2 168/1/2 171/1/2
f 171/1/2 168/1/2 172/1/2
f 173/1/2 174/1/2 177/1/2
f 177/1/2 174/1/2 178/1/2
f 175/1/2 176/1/2 179/1/2
f 179/1/2 176/1/2 180/1/2
f 177/2/2 178/2/2 181/2/2
f 181/2/2 178/2/2 182/2/2
f 179/2/2 180/2/2 183/2/2
f 183/2/2 180/2/2 184/2/2
f 181/1/2 182/1/2 185/1/2
f 185/1/2 182/1/2 186/1/2
f 183/1/2 184/1/2 187/1/2
f 187/1/2 184/1/2 188/1/2
f 193/2/3 190/2/3 189/2/3
f 194/2/3 190/2/3 193/2/3
f 197/1/3 192/1/3 191/1/3
f 198/2/3 193/2/3 192/2/3
f 198/1/3 192/1/3 197/1/3
f 198/2/3 194/2/3 193/2/3
f 198/2/3 195/2/3 194/2/3
f 199/1/3 196/1/3 195/1/3
f 199/2/3 195/2/3 198/2/3
f 200/1/3 196/1/3 199/1/3
f 205/2/3 202/2/3 201/2/3
f 206/2/3 202/2/3 205/2/3
f 209/1/3 204/1/3 203/1/3
f 210/2/3 205/2/3 204/2/3
f 210/1/3 204/1/3 209/1/3
f 211/2/3 205/2/3 210/2/3
f 212/2/3 207/2/3 206/2/3
f 213/1/3 208/1/3 207/1/3
f 213/2/3 207/2/3 212/2/3
f 214/1/3 208/1/3 213/1/3
f 221/1/3 216/1/3 215/1/3
f 222/2/3 217/2/3 216/2/3
f 222/1/3 216/1/3 221/1/3
f 223/2/3 217/2/3 222/2/3
f 224/2/3 219/2/3 218/2/3
f 225/1/3 220/1/3 219/1/3
f 225/2/3 219/2/3 224/2/3
f 226/1/3 220/1/3 225/1/3
f 229/1/3 228/1/3 227/1/3
f 230/1/3 228/1/3 229/1/3
f 237/1/3 232/1/3 231/1/3
f 238/2/3 233/2/3 232/2/3
f 238/1/3 232/1/3 237/1/3
f 238/2/3 234/2/3 233/2/3
f 238/2/3 235/2/3 234/2/3
f 239/1/3 236/1/3 235/1/3
f 239/2/3 235/2/3 238/2/3
f 240/1/3 236/1/3 239/1/3
f 245/1/3 242/1/3 241/1/3
f 246/2/3 243/2/3 242/2/3
f 246/1/3 242/1/3 245/1/3
f 247/1/3 244/1/3 243/1/3
f 247/2/3 243/2/3 246/2/3
f 248/1/3 244/1/3 247/1/3
f 249/1/4 250/1/4 253/1/4
f 250/2/4 251/2/4 254/2/4
f 253/1/4 250/1/4 254/1/4
f 251/1/4 252/1/4 255/1/4
f 254/2/4 251/2/4 255/2/4
f 255/1/4 252/1/4 256/1/4
f 257/1/4 258/1/4 263/1/4
f 258/2/4 259/2/4 264/2/4
f 263/1/4 258/1/4 264/1/4
f 259/2/4 260/2/4 264/2/4
f 260/2/4 261/2/4 264/2/4
f 261/1/4 262/1/4 265/1/4
f 264/2/4 261/2/4 265/2/4
f 265/1/4 262/1/4 266/1/4
f 267/1/4 268/1/4 269/1/4
f 269/1/4 268/1/4 270/1/4
f 271/1/4 272/1/4 277/1/4
f 272/2/4 273/2/4 278/2/4
f 277/1/4 272/1/4 278/1/4
f 278/2/4 273/2/4 279/2/4
f 274/2/4 275/2/4 280/2/4
f 275/1/4 276/1/4 281/1/4
f 280/2/4 275/2/4 281/2/4
f 281/1/4 276/1/4 282/1/4
f 283/2/4 284/2/4 287/2/4
f 287/2/4 284/2/4 288/2/4
f 285/1/4 286/1/4 291/1/4
f 286/2/4 287/2/4 292/2/4
f 291/1/4 286/1/4 292/1/4
f 292/2/4 287/2/4 293/2/4
f 288/2/4 289/2/4 294/2/4
f 289/1/4 290/1/4 295/1/4
f 294/2/4 289/2/4 295/2/4
f 295/1/4 290/1/4 296/1/4
f 297/2/4 298/2/4 301/2/4
f 301/2/4 298/2/4 302/2/4
f 299/1/4 300/1/4 305/1/4
f 300/2/4 301/2/4 306/2/4
f 305/1/4 300/1/4 306/1/4
f 301/2/4 302/2/4 306/2/4
f 302/2/4 303/2/4 306/2/4
f 303/1/4 304/1/4 307/1/4
f 306/2/4 303/2/4 307/2/4
f 307/1/4 304/1/4 308/1/4
f 312/1/5 310/1/5 309/1/5
f 313/1/5 310/1/5 312/1/5
f 315/1/5 312/1/5 311/1/5
f 316/1/5 312/1/5 315/1/5
f 317/1/5 315/1/5 314/1/5
f 318/1/5 315/1/5 317/1/5
f 320/1/5 319/1/5 318/1/5
f 321/1/5 319/1/5 320/1/5
f 323/1/5 322/1/5 321/1/5
f 324/1/5 322/1/5 323/1/5
f 327/2/5 326/2/5 325/2/5
f 328/2/5 326/2/5 327/2/5
f 330/2/5 329/2/5 328/2/5
f 331/2/5 329/2/5 330/2/5
f 335/2/5 333/2/5 332/2/5
f 336/2/5 333/2/5 335/2/5
f 337/2/5 335/2/5 334/2/5
f 338/2/5 335/2/5 337/2/5
f 341/1/5 340/1/5 339/1/5
f 342/1/5 340/1/5 341/1/5
f 343/2/5 342/2/5 341/2/5
f 344/2/5 342/2/5 343/2/5
f 345/1/5 344/1/5 343/1/5
f 346/1/5 344/1/5 345/1/5
f 347/1/6 348/1/6 349/1/6
f 349/1/6 348/1/6 350/1/6
f 349/2/6 350/2/6 351/2/6
f 351/2/6 350/2/6 352/2/6
f 351/1/6 352/1/6 353/1/6
f 353/1/6 352/1/6 354/1/6
f 355/2/6 356/2/6 358/2/6
f 358/2/6 356/2/6 359/2/6
f 357/2/6 358/2/6 360/2/6
f 360/2/6 358/2/6 361/2/6
f 362/2/6 363/2/6 364/2/6
f 364/2/6 363/2/6 365/2/6
f 365/2/6 366/2/6 367/2/6
f 367/2/6 366/2/6 368/2/6
f 369/1/6 370/1/6 372/1/6
f 372/1/6 370/1/6 373/1/6
f 371/1/6 372/1/6 375/1/6
f 375/1/6 372/1/6 376/1/6
f 374/1/6 375/1/6 377/1/6
f 377/1/6 375/1/6 378/1/6
f 378/1/6 379/1/6 380/1/6
f 380/1/6 379/1/6 381/1/6
f 381/1/6 382/1/6 383/1/6
f 383/1/6 382/1/6 384/1/6
