# MagicaVoxel @ ephtracy

# material
mtllib Bone_ wand.mtl
usemtl palette

# normals
vn -1 0 0
vn 1 0 0
vn 0 0 1
vn 0 0 -1
vn 0 -1 0
vn 0 1 0

# texcoords
vt 0.173828 0.5
vt 0.341797 0.5
vt 0.373047 0.5
vt 0.505859 0.5

# verts
v -0.2595 1.903 0.2595
v -0.2595 1.903 -0.0865
v -0.2595 2.076 -0.0865
v -0.2595 2.076 -0.2595
v -0.2595 2.249 0.2595
v -0.2595 2.249 0.0865
v -0.2595 2.249 -0.0865
v -0.2595 2.249 -0.2595
v -0.2595 2.422 0.0865
v -0.2595 2.422 -0.0865
v -0.0865 0 0.0865
v -0.0865 0 -0.0865
v -0.0865 0.173 0.0865
v -0.0865 0.173 -0.0865
v -0.0865 0.346 0.0865
v -0.0865 0.346 -0.0865
v -0.0865 0.519 0.0865
v -0.0865 0.519 -0.0865
v -0.0865 0.692 0.0865
v -0.0865 0.692 -0.0865
v -0.0865 1.73 0.2595
v -0.0865 1.73 -0.0865
v -0.0865 1.903 0.2595
v -0.0865 1.903 -0.0865
v -0.0865 1.903 -0.2595
v -0.0865 2.076 -0.0865
v -0.0865 2.076 -0.2595
v -0.0865 2.249 0.2595
v -0.0865 2.249 0.0865
v -0.0865 2.249 -0.0865
v -0.0865 2.249 -0.2595
v -0.0865 2.422 0.2595
v -0.0865 2.422 0.0865
v -0.0865 2.422 -0.0865
v -0.0865 2.422 -0.2595
v 0.0865 0.692 0.0865
v 0.0865 0.692 -0.0865
v 0.0865 0.865 -0.0865
v 0.0865 0.865 -0.2595
v 0.0865 1.038 0.0865
v 0.0865 1.038 -0.2595
v 0.0865 1.384 0.0865
v 0.0865 1.384 -0.0865
v 0.0865 1.73 0.0865
v 0.0865 1.73 -0.0865
v 0.0865 1.73 -0.2595
v 0.0865 1.903 -0.0865
v 0.0865 1.903 -0.2595
v 0.0865 2.076 0.2595
v 0.0865 2.076 0.0865
v 0.0865 2.249 0.2595
v 0.0865 2.249 0.0865
v 0.2595 1.038 0.0865
v 0.2595 1.038 -0.0865
v 0.2595 1.211 0.2595
v 0.2595 1.211 0.0865
v 0.2595 1.384 0.2595
v 0.2595 1.384 0.0865
v 0.2595 1.384 -0.0865
v 0.4325 2.076 0.2595
v 0.4325 2.076 0.0865
v 0.4325 2.249 0.2595
v 0.4325 2.249 0.0865
v -0.0865 2.076 0.2595
v -0.0865 2.076 0.0865
v -0.0865 2.249 0.2595
v -0.0865 2.249 0.0865
v 0.0865 0 0.0865
v 0.0865 0 -0.0865
v 0.0865 0.173 0.0865
v 0.0865 0.173 -0.0865
v 0.0865 0.346 0.0865
v 0.0865 0.346 -0.0865
v 0.0865 0.519 0.0865
v 0.0865 0.519 -0.0865
v 0.2595 0.519 0.0865
v 0.2595 0.519 -0.0865
v 0.2595 0.865 0.0865
v 0.2595 0.865 -0.0865
v 0.2595 0.865 -0.2595
v 0.2595 1.038 -0.0865
v 0.2595 1.038 -0.2595
v 0.2595 1.557 0.0865
v 0.2595 1.557 -0.0865
v 0.2595 1.73 0.0865
v 0.2595 1.73 -0.0865
v 0.2595 1.73 -0.2595
v 0.2595 1.903 -0.0865
v 0.2595 1.903 -0.2595
v 0.2595 2.076 0.2595
v 0.2595 2.076 0.0865
v 0.2595 2.249 0.2595
v 0.2595 2.249 0.0865
v 0.4325 0.865 0.0865
v 0.4325 0.865 -0.0865
v 0.4325 1.211 0.2595
v 0.4325 1.211 0.0865
v 0.4325 1.384 0.2595
v 0.4325 1.384 0.0865
v 0.4325 1.557 0.0865
v 0.4325 1.557 -0.0865
v 0.4325 1.73 0.2595
v 0.4325 1.73 -0.0865
v 0.4325 1.903 0.2595
v 0.4325 1.903 -0.0865
v 0.4325 1.903 -0.2595
v 0.4325 2.076 -0.0865
v 0.4325 2.076 -0.2595
v 0.4325 2.249 0.2595
v 0.4325 2.249 0.0865
v 0.4325 2.249 -0.0865
v 0.4325 2.249 -0.2595
v 0.4325 2.422 0.2595
v 0.4325 2.422 0.0865
v 0.4325 2.422 -0.0865
v 0.4325 2.422 -0.2595
v 0.6055 1.903 0.2595
v 0.6055 1.903 -0.0865
v 0.6055 2.076 -0.0865
v 0.6055 2.076 -0.2595
v 0.6055 2.249 0.2595
v 0.6055 2.249 0.0865
v 0.6055 2.249 -0.0865
v 0.6055 2.249 -0.2595
v 0.6055 2.422 0.0865
v 0.6055 2.422 -0.0865
v -0.2595 1.903 0.2595
v -0.2595 2.249 0.2595
v -0.0865 1.73 0.2595
v -0.0865 1.903 0.2595
v -0.0865 2.076 0.2595
v -0.0865 2.249 0.2595
v -0.0865 2.422 0.2595
v 0.0865 2.076 0.2595
v 0.0865 2.249 0.2595
v 0.2595 1.211 0.2595
v 0.2595 1.384 0.2595
v 0.2595 2.076 0.2595
v 0.2595 2.249 0.2595
v 0.4325 1.211 0.2595
v 0.4325 1.384 0.2595
v 0.4325 1.73 0.2595
v 0.4325 1.903 0.2595
v 0.4325 2.076 0.2595
v 0.4325 2.249 0.2595
v 0.4325 2.422 0.2595
v 0.6055 1.903 0.2595
v 0.6055 2.249 0.2595
v -0.2595 2.249 0.0865
v -0.2595 2.422 0.0865
v -0.0865 0 0.0865
v -0.0865 0.173 0.0865
v -0.0865 0.346 0.0865
v -0.0865 0.519 0.0865
v -0.0865 0.692 0.0865
v -0.0865 2.076 0.0865
v -0.0865 2.249 0.0865
v -0.0865 2.422 0.0865
v 0.0865 0 0.0865
v 0.0865 0.173 0.0865
v 0.0865 0.346 0.0865
v 0.0865 0.519 0.0865
v 0.0865 0.692 0.0865
v 0.0865 1.038 0.0865
v 0.0865 1.384 0.0865
v 0.0865 1.73 0.0865
v 0.0865 2.076 0.0865
v 0.0865 2.249 0.0865
v 0.2595 0.519 0.0865
v 0.2595 0.865 0.0865
v 0.2595 1.038 0.0865
v 0.2595 1.211 0.0865
v 0.2595 1.384 0.0865
v 0.2595 1.557 0.0865
v 0.2595 1.73 0.0865
v 0.2595 2.076 0.0865
v 0.2595 2.249 0.0865
v 0.4325 0.865 0.0865
v 0.4325 1.211 0.0865
v 0.4325 1.384 0.0865
v 0.4325 1.557 0.0865
v 0.4325 2.076 0.0865
v 0.4325 2.249 0.0865
v 0.4325 2.422 0.0865
v 0.6055 2.249 0.0865
v 0.6055 2.422 0.0865
v -0.2595 1.903 -0.0865
v -0.2595 2.076 -0.0865
v -0.2595 2.249 -0.0865
v -0.2595 2.422 -0.0865
v -0.0865 0 -0.0865
v -0.0865 0.173 -0.0865
v -0.0865 0.346 -0.0865
v -0.0865 0.519 -0.0865
v -0.0865 0.692 -0.0865
v -0.0865 1.73 -0.0865
v -0.0865 1.903 -0.0865
v -0.0865 2.076 -0.0865
v -0.0865 2.249 -0.0865
v -0.0865 2.422 -0.0865
v 0.0865 0 -0.0865
v 0.0865 0.173 -0.0865
v 0.0865 0.346 -0.0865
v 0.0865 0.519 -0.0865
v 0.0865 0.692 -0.0865
v 0.0865 0.865 -0.0865
v 0.0865 1.384 -0.0865
v 0.0865 1.73 -0.0865
v 0.0865 1.903 -0.0865
v 0.2595 0.519 -0.0865
v 0.2595 0.865 -0.0865
v 0.2595 1.038 -0.0865
v 0.2595 1.384 -0.0865
v 0.2595 1.557 -0.0865
v 0.2595 1.73 -0.0865
v 0.2595 1.903 -0.0865
v 0.4325 0.865 -0.0865
v 0.4325 1.557 -0.0865
v 0.4325 1.73 -0.0865
v 0.4325 1.903 -0.0865
v 0.4325 2.076 -0.0865
v 0.4325 2.249 -0.0865
v 0.4325 2.422 -0.0865
v 0.6055 1.903 -0.0865
v 0.6055 2.076 -0.0865
v 0.6055 2.249 -0.0865
v 0.6055 2.422 -0.0865
v -0.2595 2.076 -0.2595
v -0.2595 2.249 -0.2595
v -0.0865 1.903 -0.2595
v -0.0865 2.076 -0.2595
v -0.0865 2.249 -0.2595
v -0.0865 2.422 -0.2595
v 0.0865 0.865 -0.2595
v 0.0865 1.038 -0.2595
v 0.0865 1.73 -0.2595
v 0.0865 1.903 -0.2595
v 0.2595 0.865 -0.2595
v 0.2595 1.038 -0.2595
v 0.2595 1.73 -0.2595
v 0.2595 1.903 -0.2595
v 0.4325 1.903 -0.2595
v 0.4325 2.076 -0.2595
v 0.4325 2.249 -0.2595
v 0.4325 2.422 -0.2595
v 0.6055 2.076 -0.2595
v 0.6055 2.249 -0.2595
v -0.0865 0 0.0865
v 0.0865 0 0.0865
v -0.0865 0 -0.0865
v 0.0865 0 -0.0865
v 0.0865 0.519 0.0865
v 0.2595 0.519 0.0865
v 0.0865 0.519 -0.0865
v 0.2595 0.519 -0.0865
v 0.2595 0.865 0.0865
v 0.4325 0.865 0.0865
v 0.0865 0.865 -0.0865
v 0.2595 0.865 -0.0865
v 0.4325 0.865 -0.0865
v 0.0865 0.865 -0.2595
v 0.2595 0.865 -0.2595
v 0.2595 1.211 0.2595
v 0.4325 1.211 0.2595
v 0.2595 1.211 0.0865
v 0.4325 1.211 0.0865
v 0.0865 1.384 0.0865
v 0.2595 1.384 0.0865
v 0.0865 1.384 -0.0865
v 0.2595 1.384 -0.0865
v -0.0865 1.73 0.2595
v 0.4325 1.73 0.2595
v 0.0865 1.73 0.0865
v 0.2595 1.73 0.0865
v -0.0865 1.73 -0.0865
v 0.0865 1.73 -0.0865
v 0.2595 1.73 -0.0865
v 0.4325 1.73 -0.0865
v 0.0865 1.73 -0.2595
v 0.2595 1.73 -0.2595
v -0.2595 1.903 0.2595
v -0.0865 1.903 0.2595
v 0.4325 1.903 0.2595
v 0.6055 1.903 0.2595
v -0.2595 1.903 -0.0865
v -0.0865 1.903 -0.0865
v 0.0865 1.903 -0.0865
v 0.2595 1.903 -0.0865
v 0.4325 1.903 -0.0865
v 0.6055 1.903 -0.0865
v -0.0865 1.903 -0.2595
v 0.0865 1.903 -0.2595
v 0.2595 1.903 -0.2595
v 0.4325 1.903 -0.2595
v -0.2595 2.076 -0.0865
v -0.0865 2.076 -0.0865
v 0.4325 2.076 -0.0865
v 0.6055 2.076 -0.0865
v -0.2595 2.076 -0.2595
v -0.0865 2.076 -0.2595
v 0.4325 2.076 -0.2595
v 0.6055 2.076 -0.2595
v -0.0865 2.249 0.2595
v 0.0865 2.249 0.2595
v 0.2595 2.249 0.2595
v 0.4325 2.249 0.2595
v -0.0865 2.249 0.0865
v 0.0865 2.249 0.0865
v 0.2595 2.249 0.0865
v 0.4325 2.249 0.0865
v -0.0865 0.692 0.0865
v 0.0865 0.692 0.0865
v -0.0865 0.692 -0.0865
v 0.0865 0.692 -0.0865
v 0.0865 1.038 0.0865
v 0.2595 1.038 0.0865
v 0.2595 1.038 -0.0865
v 0.0865 1.038 -0.2595
v 0.2595 1.038 -0.2595
v 0.2595 1.384 0.2595
v 0.4325 1.384 0.2595
v 0.2595 1.384 0.0865
v 0.4325 1.384 0.0865
v 0.2595 1.557 0.0865
v 0.4325 1.557 0.0865
v 0.2595 1.557 -0.0865
v 0.4325 1.557 -0.0865
v -0.0865 2.076 0.2595
v 0.0865 2.076 0.2595
v 0.2595 2.076 0.2595
v 0.4325 2.076 0.2595
v -0.0865 2.076 0.0865
v 0.0865 2.076 0.0865
v 0.2595 2.076 0.0865
v 0.4325 2.076 0.0865
v -0.2595 2.249 0.2595
v -0.0865 2.249 0.2595
v 0.4325 2.249 0.2595
v 0.6055 2.249 0.2595
v -0.2595 2.249 0.0865
v -0.0865 2.249 0.0865
v 0.4325 2.249 0.0865
v 0.6055 2.249 0.0865
v -0.2595 2.249 -0.0865
v -0.0865 2.249 -0.0865
v 0.4325 2.249 -0.0865
v 0.6055 2.249 -0.0865
v -0.2595 2.249 -0.2595
v -0.0865 2.249 -0.2595
v 0.4325 2.249 -0.2595
v 0.6055 2.249 -0.2595
v -0.0865 2.422 0.2595
v 0.4325 2.422 0.2595
v -0.2595 2.422 0.0865
v -0.0865 2.422 0.0865
v 0.4325 2.422 0.0865
v 0.6055 2.422 0.0865
v -0.2595 2.422 -0.0865
v -0.0865 2.422 -0.0865
v 0.4325 2.422 -0.0865
v 0.6055 2.422 -0.0865
v -0.0865 2.422 -0.2595
v 0.4325 2.422 -0.2595

# faces
f 3/1/1 2/1/1 1/1/1
f 5/1/1 3/1/1 1/1/1
f 5/1/1 4/1/1 3/1/1
f 6/1/1 4/1/1 5/1/1
f 7/1/1 4/1/1 6/1/1
f 8/1/1 4/1/1 7/1/1
f 9/1/1 7/1/1 6/1/1
f 10/1/1 7/1/1 9/1/1
f 13/1/1 12/1/1 11/1/1
f 14/1/1 12/1/1 13/1/1
f 15/2/1 14/2/1 13/2/1
f 16/2/1 14/2/1 15/2/1
f 17/1/1 16/1/1 15/1/1
f 18/1/1 16/1/1 17/1/1
f 19/2/1 18/2/1 17/2/1
f 20/2/1 18/2/1 19/2/1
f 23/1/1 22/1/1 21/1/1
f 24/1/1 22/1/1 23/1/1
f 26/1/1 25/1/1 24/1/1
f 27/1/1 25/1/1 26/1/1
f 32/1/1 29/1/1 28/1/1
f 33/1/1 29/1/1 32/1/1
f 34/1/1 31/1/1 30/1/1
f 35/1/1 31/1/1 34/1/1
f 38/3/1 37/3/1 36/3/1
f 40/3/1 38/3/1 36/3/1
f 40/3/1 39/3/1 38/3/1
f 41/3/1 39/3/1 40/3/1
f 44/3/1 43/3/1 42/3/1
f 45/3/1 43/3/1 44/3/1
f 47/1/1 46/1/1 45/1/1
f 48/1/1 46/1/1 47/1/1
f 51/1/1 50/1/1 49/1/1
f 52/1/1 50/1/1 51/1/1
f 56/3/1 54/3/1 53/3/1
f 57/3/1 56/3/1 55/3/1
f 58/3/1 54/3/1 56/3/1
f 58/3/1 56/3/1 57/3/1
f 59/3/1 54/3/1 58/3/1
f 62/1/1 61/1/1 60/1/1
f 63/1/1 61/1/1 62/1/1
f 64/1/2 65/1/2 66/1/2
f 66/1/2 65/1/2 67/1/2
f 68/1/2 69/1/2 70/1/2
f 70/1/2 69/1/2 71/1/2
f 70/2/2 71/2/2 72/2/2
f 72/2/2 71/2/2 73/2/2
f 72/1/2 73/1/2 74/1/2
f 74/1/2 73/1/2 75/1/2
f 76/3/2 77/3/2 78/3/2
f 78/3/2 77/3/2 79/3/2
f 79/3/2 80/3/2 81/3/2
f 81/3/2 80/3/2 82/3/2
f 83/3/2 84/3/2 85/3/2
f 85/3/2 84/3/2 86/3/2
f 86/1/2 87/1/2 88/1/2
f 88/1/2 87/1/2 89/1/2
f 90/1/2 91/1/2 92/1/2
f 92/1/2 91/1/2 93/1/2
f 94/3/2 95/3/2 97/3/2
f 96/3/2 97/3/2 98/3/2
f 97/3/2 95/3/2 99/3/2
f 98/3/2 97/3/2 99/3/2
f 99/3/2 95/3/2 100/3/2
f 100/3/2 95/3/2 101/3/2
f 102/1/2 103/1/2 104/1/2
f 104/1/2 103/1/2 105/1/2
f 105/1/2 106/1/2 107/1/2
f 107/1/2 106/1/2 108/1/2
f 109/1/2 110/1/2 113/1/2
f 113/1/2 110/1/2 114/1/2
f 111/1/2 112/1/2 115/1/2
f 115/1/2 112/1/2 116/1/2
f 117/1/2 118/1/2 119/1/2
f 117/1/2 119/1/2 121/1/2
f 119/1/2 120/1/2 121/1/2
f 121/1/2 120/1/2 122/1/2
f 122/1/2 120/1/2 123/1/2
f 123/1/2 120/1/2 124/1/2
f 122/1/2 123/1/2 125/1/2
f 125/1/2 123/1/2 126/1/2
f 130/1/3 128/1/3 127/1/3
f 131/1/3 128/1/3 130/1/3
f 132/1/3 128/1/3 131/1/3
f 134/1/3 130/1/3 129/1/3
f 134/1/3 131/1/3 130/1/3
f 135/1/3 133/1/3 132/1/3
f 138/1/3 134/1/3 129/1/3
f 138/1/3 135/1/3 134/1/3
f 139/1/3 133/1/3 135/1/3
f 139/1/3 135/1/3 138/1/3
f 140/3/3 137/3/3 136/3/3
f 141/3/3 137/3/3 140/3/3
f 142/1/3 138/1/3 129/1/3
f 143/1/3 138/1/3 142/1/3
f 144/1/3 138/1/3 143/1/3
f 145/1/3 133/1/3 139/1/3
f 146/1/3 133/1/3 145/1/3
f 147/1/3 144/1/3 143/1/3
f 147/1/3 145/1/3 144/1/3
f 148/1/3 145/1/3 147/1/3
f 157/1/3 150/1/3 149/1/3
f 158/1/3 150/1/3 157/1/3
f 159/1/3 152/1/3 151/1/3
f 160/2/3 153/2/3 152/2/3
f 160/1/3 152/1/3 159/1/3
f 161/1/3 154/1/3 153/1/3
f 161/2/3 153/2/3 160/2/3
f 162/2/3 155/2/3 154/2/3
f 162/1/3 154/1/3 161/1/3
f 163/2/3 155/2/3 162/2/3
f 167/4/3 157/4/3 156/4/3
f 168/4/3 157/4/3 167/4/3
f 169/3/3 164/3/3 163/3/3
f 169/3/3 163/3/3 162/3/3
f 170/3/3 164/3/3 169/3/3
f 171/3/3 164/3/3 170/3/3
f 173/3/3 166/3/3 165/3/3
f 174/3/3 166/3/3 173/3/3
f 175/3/3 166/3/3 174/3/3
f 178/3/3 172/3/3 171/3/3
f 178/3/3 171/3/3 170/3/3
f 179/3/3 172/3/3 178/3/3
f 180/3/3 174/3/3 173/3/3
f 181/3/3 174/3/3 180/3/3
f 182/4/3 177/4/3 176/4/3
f 183/4/3 177/4/3 182/4/3
f 185/1/3 184/1/3 183/1/3
f 186/1/3 184/1/3 185/1/3
f 187/1/4 188/1/4 197/1/4
f 197/1/4 188/1/4 198/1/4
f 189/1/4 190/1/4 199/1/4
f 199/1/4 190/1/4 200/1/4
f 191/1/4 192/1/4 201/1/4
f 192/2/4 193/2/4 202/2/4
f 201/1/4 192/1/4 202/1/4
f 193/1/4 194/1/4 203/1/4
f 202/2/4 193/2/4 203/2/4
f 194/2/4 195/2/4 204/2/4
f 203/1/4 194/1/4 204/1/4
f 204/2/4 195/2/4 205/2/4
f 196/1/4 197/1/4 208/1/4
f 208/1/4 197/1/4 209/1/4
f 205/3/4 206/3/4 210/3/4
f 204/3/4 205/3/4 210/3/4
f 210/3/4 206/3/4 211/3/4
f 207/3/4 208/3/4 213/3/4
f 213/3/4 208/3/4 214/3/4
f 214/3/4 208/3/4 215/3/4
f 211/3/4 212/3/4 217/3/4
f 213/3/4 214/3/4 217/3/4
f 212/3/4 213/3/4 217/3/4
f 217/3/4 214/3/4 218/3/4
f 215/1/4 216/1/4 219/1/4
f 219/1/4 216/1/4 220/1/4
f 220/1/4 221/1/4 224/1/4
f 224/1/4 221/1/4 225/1/4
f 222/1/4 223/1/4 226/1/4
f 226/1/4 223/1/4 227/1/4
f 228/1/4 229/1/4 231/1/4
f 231/1/4 229/1/4 232/1/4
f 230/1/4 231/1/4 237/1/4
f 231/1/4 232/1/4 237/1/4
f 232/1/4 233/1/4 237/1/4
f 234/3/4 235/3/4 238/3/4
f 238/3/4 235/3/4 239/3/4
f 236/1/4 237/1/4 240/1/4
f 237/1/4 233/1/4 241/1/4
f 240/1/4 237/1/4 241/1/4
f 241/1/4 233/1/4 242/1/4
f 242/1/4 233/1/4 243/1/4
f 243/1/4 233/1/4 244/1/4
f 244/1/4 233/1/4 245/1/4
f 243/1/4 244/1/4 246/1/4
f 246/1/4 244/1/4 247/1/4
f 250/1/5 249/1/5 248/1/5
f 251/1/5 249/1/5 250/1/5
f 254/3/5 253/3/5 252/3/5
f 255/3/5 253/3/5 254/3/5
f 259/3/5 257/3/5 256/3/5
f 260/3/5 257/3/5 259/3/5
f 261/3/5 259/3/5 258/3/5
f 262/3/5 259/3/5 261/3/5
f 265/3/5 264/3/5 263/3/5
f 266/3/5 264/3/5 265/3/5
f 269/3/5 268/3/5 267/3/5
f 270/3/5 268/3/5 269/3/5
f 273/1/5 272/1/5 271/1/5
f 274/1/5 272/1/5 273/1/5
f 275/1/5 273/1/5 271/1/5
f 276/1/5 273/1/5 275/1/5
f 277/1/5 272/1/5 274/1/5
f 278/1/5 272/1/5 277/1/5
f 279/1/5 277/1/5 276/1/5
f 280/1/5 277/1/5 279/1/5
f 285/1/5 282/1/5 281/1/5
f 286/1/5 282/1/5 285/1/5
f 289/1/5 284/1/5 283/1/5
f 290/1/5 284/1/5 289/1/5
f 291/1/5 287/1/5 286/1/5
f 292/1/5 287/1/5 291/1/5
f 293/1/5 289/1/5 288/1/5
f 294/1/5 289/1/5 293/1/5
f 299/1/5 296/1/5 295/1/5
f 300/1/5 296/1/5 299/1/5
f 301/1/5 298/1/5 297/1/5
f 302/1/5 298/1/5 301/1/5
f 307/1/5 304/1/5 303/1/5
f 308/1/5 304/1/5 307/1/5
f 309/1/5 306/1/5 305/1/5
f 310/1/5 306/1/5 309/1/5
f 311/2/6 312/2/6 313/2/6
f 313/2/6 312/2/6 314/2/6
f 315/3/6 316/3/6 317/3/6
f 315/3/6 317/3/6 318/3/6
f 318/3/6 317/3/6 319/3/6
f 320/3/6 321/3/6 322/3/6
f 322/3/6 321/3/6 323/3/6
f 324/3/6 325/3/6 326/3/6
f 326/3/6 325/3/6 327/3/6
f 328/1/6 329/1/6 332/1/6
f 332/1/6 329/1/6 333/1/6
f 330/1/6 331/1/6 334/1/6
f 334/1/6 331/1/6 335/1/6
f 336/1/6 337/1/6 340/1/6
f 340/1/6 337/1/6 341/1/6
f 338/1/6 339/1/6 342/1/6
f 342/1/6 339/1/6 343/1/6
f 344/1/6 345/1/6 348/1/6
f 348/1/6 345/1/6 349/1/6
f 346/1/6 347/1/6 350/1/6
f 350/1/6 347/1/6 351/1/6
f 352/1/6 353/1/6 355/1/6
f 355/1/6 353/1/6 356/1/6
f 354/1/6 355/1/6 358/1/6
f 356/1/6 357/1/6 358/1/6
f 355/1/6 356/1/6 358/1/6
f 358/1/6 357/1/6 359/1/6
f 359/1/6 357/1/6 360/1/6
f 360/1/6 357/1/6 361/1/6
f 359/1/6 360/1/6 362/1/6
f 362/1/6 360/1/6 363/1/6
