# MagicaVoxel @ ephtracy

# material
mtllib bow.mtl
usemtl palette

# normals
vn -1 0 0
vn 1 0 0
vn 0 0 1
vn 0 0 -1
vn 0 -1 0
vn 0 1 0

# texcoords
vt 0.00195313 0.5
vt 0.0449219 0.5
vt 0.138672 0.5
vt 0.279297 0.5
vt 0.958984 0.5

# verts
v -0.346 0.519 0.0865
v -0.346 0.519 -0.0865
v -0.346 0.692 0.0865
v -0.346 0.692 -0.0865
v -0.346 0.865 0.0865
v -0.346 0.865 -0.0865
v -0.346 1.038 0.0865
v -0.346 1.038 -0.0865
v -0.346 1.557 0.0865
v -0.346 1.557 -0.0865
v -0.346 1.73 0.0865
v -0.346 1.73 -0.0865
v -0.346 1.903 0.0865
v -0.346 1.903 -0.0865
v -0.346 2.076 0.0865
v -0.346 2.076 -0.0865
v -0.173 0.346 0.0865
v -0.173 0.346 -0.0865
v -0.173 0.519 0.0865
v -0.173 0.519 -0.0865
v -0.173 2.076 0.0865
v -0.173 2.076 -0.0865
v -0.173 2.249 0.0865
v -0.173 2.249 -0.0865
v 0 0.173 0.0865
v 0 0.173 -0.0865
v 0 0.346 0.0865
v 0 0.346 -0.0865
v 0 2.249 0.0865
v 0 2.249 -0.0865
v 0 2.422 0.0865
v 0 2.422 -0.0865
v 0.173 0 0.0865
v 0.173 0 -0.0865
v 0.173 0.173 0.0865
v 0.173 0.173 -0.0865
v 0.173 0.346 0.0865
v 0.173 0.346 -0.0865
v 0.173 2.249 0.0865
v 0.173 2.249 -0.0865
v 0.173 2.422 0.0865
v 0.173 2.422 -0.0865
v 0.173 2.595 0.0865
v 0.173 2.595 -0.0865
v -0.173 0.519 0.0865
v -0.173 0.519 -0.0865
v -0.173 0.692 0.0865
v -0.173 0.692 -0.0865
v -0.173 0.865 0.0865
v -0.173 0.865 -0.0865
v -0.173 1.038 0.0865
v -0.173 1.038 -0.0865
v -0.173 1.557 0.0865
v -0.173 1.557 -0.0865
v -0.173 1.73 0.0865
v -0.173 1.73 -0.0865
v -0.173 1.903 0.0865
v -0.173 1.903 -0.0865
v -0.173 2.076 0.0865
v -0.173 2.076 -0.0865
v 0 0.346 0.0865
v 0 0.346 -0.0865
v 0 0.519 0.0865
v 0 0.519 -0.0865
v 0 2.076 0.0865
v 0 2.076 -0.0865
v 0 2.249 0.0865
v 0 2.249 -0.0865
v 0.346 0 0.0865
v 0.346 0 -0.0865
v 0.346 0.173 0.0865
v 0.346 0.173 -0.0865
v 0.346 2.422 0.0865
v 0.346 2.422 -0.0865
v 0.346 2.595 0.0865
v 0.346 2.595 -0.0865
v -0.346 0.519 0.0865
v -0.346 0.692 0.0865
v -0.346 0.865 0.0865
v -0.346 1.038 0.0865
v -0.346 1.557 0.0865
v -0.346 1.73 0.0865
v -0.346 1.903 0.0865
v -0.346 2.076 0.0865
v -0.173 0.346 0.0865
v -0.173 0.519 0.0865
v -0.173 0.692 0.0865
v -0.173 0.865 0.0865
v -0.173 1.038 0.0865
v -0.173 1.557 0.0865
v -0.173 1.73 0.0865
v -0.173 1.903 0.0865
v -0.173 2.076 0.0865
v -0.173 2.249 0.0865
v 0 0.173 0.0865
v 0 0.346 0.0865
v 0 0.519 0.0865
v 0 2.076 0.0865
v 0 2.249 0.0865
v 0 2.422 0.0865
v 0.173 0 0.0865
v 0.173 0.173 0.0865
v 0.173 0.346 0.0865
v 0.173 2.249 0.0865
v 0.173 2.422 0.0865
v 0.173 2.595 0.0865
v 0.346 0 0.0865
v 0.346 0.173 0.0865
v 0.346 2.422 0.0865
v 0.346 2.595 0.0865
v -0.346 0.519 -0.0865
v -0.346 0.692 -0.0865
v -0.346 0.865 -0.0865
v -0.346 1.038 -0.0865
v -0.346 1.557 -0.0865
v -0.346 1.73 -0.0865
v -0.346 1.903 -0.0865
v -0.346 2.076 -0.0865
v -0.173 0.346 -0.0865
v -0.173 0.519 -0.0865
v -0.173 0.692 -0.0865
v -0.173 0.865 -0.0865
v -0.173 1.038 -0.0865
v -0.173 1.557 -0.0865
v -0.173 1.73 -0.0865
v -0.173 1.903 -0.0865
v -0.173 2.076 -0.0865
v -0.173 2.249 -0.0865
v 0 0.173 -0.0865
v 0 0.346 -0.0865
v 0 0.519 -0.0865
v 0 2.076 -0.0865
v 0 2.249 -0.0865
v 0 2.422 -0.0865
v 0.173 0 -0.0865
v 0.173 0.173 -0.0865
v 0.173 0.346 -0.0865
v 0.173 2.249 -0.0865
v 0.173 2.422 -0.0865
v 0.173 2.595 -0.0865
v 0.346 0 -0.0865
v 0.346 0.173 -0.0865
v 0.346 2.422 -0.0865
v 0.346 2.595 -0.0865
v 0.173 0 0.0865
v 0.346 0 0.0865
v 0.173 0 -0.0865
v 0.346 0 -0.0865
v 0 0.173 0.0865
v 0.173 0.173 0.0865
v 0 0.173 -0.0865
v 0.173 0.173 -0.0865
v -0.173 0.346 0.0865
v 0 0.346 0.0865
v -0.173 0.346 -0.0865
v 0 0.346 -0.0865
v -0.346 0.519 0.0865
v -0.173 0.519 0.0865
v -0.346 0.519 -0.0865
v -0.173 0.519 -0.0865
v -0.173 2.076 0.0865
v 0 2.076 0.0865
v -0.173 2.076 -0.0865
v 0 2.076 -0.0865
v 0 2.249 0.0865
v 0.173 2.249 0.0865
v 0 2.249 -0.0865
v 0.173 2.249 -0.0865
v 0 0.346 0.0865
v 0.173 0.346 0.0865
v 0 0.346 -0.0865
v 0.173 0.346 -0.0865
v -0.173 0.519 0.0865
v 0 0.519 0.0865
v -0.173 0.519 -0.0865
v 0 0.519 -0.0865
v -0.346 2.076 0.0865
v -0.173 2.076 0.0865
v -0.346 2.076 -0.0865
v -0.173 2.076 -0.0865
v -0.173 2.249 0.0865
v 0 2.249 0.0865
v -0.173 2.249 -0.0865
v 0 2.249 -0.0865
v 0 2.422 0.0865
v 0.173 2.422 0.0865
v 0 2.422 -0.0865
v 0.173 2.422 -0.0865
v 0.173 2.595 0.0865
v 0.346 2.595 0.0865
v 0.173 2.595 -0.0865
v 0.346 2.595 -0.0865

# faces
f 3/3/1 2/3/1 1/3/1
f 4/3/1 2/3/1 3/3/1
f 5/4/1 4/4/1 3/4/1
f 6/4/1 4/4/1 5/4/1
f 7/2/1 6/2/1 5/2/1
f 8/2/1 6/2/1 7/2/1
f 9/5/1 8/5/1 7/5/1
f 10/5/1 8/5/1 9/5/1
f 11/2/1 10/2/1 9/2/1
f 12/2/1 10/2/1 11/2/1
f 13/4/1 12/4/1 11/4/1
f 14/4/1 12/4/1 13/4/1
f 15/3/1 14/3/1 13/3/1
f 16/3/1 14/3/1 15/3/1
f 19/3/1 18/3/1 17/3/1
f 20/3/1 18/3/1 19/3/1
f 23/3/1 22/3/1 21/3/1
f 24/3/1 22/3/1 23/3/1
f 27/4/1 26/4/1 25/4/1
f 28/4/1 26/4/1 27/4/1
f 31/4/1 30/4/1 29/4/1
f 32/4/1 30/4/1 31/4/1
f 35/2/1 34/2/1 33/2/1
f 36/2/1 34/2/1 35/2/1
f 39/1/1 38/1/1 37/1/1
f 40/1/1 38/1/1 39/1/1
f 43/2/1 42/2/1 41/2/1
f 44/2/1 42/2/1 43/2/1
f 45/3/2 46/3/2 47/3/2
f 47/3/2 46/3/2 48/3/2
f 47/4/2 48/4/2 49/4/2
f 49/4/2 48/4/2 50/4/2
f 49/2/2 50/2/2 51/2/2
f 51/2/2 50/2/2 52/2/2
f 51/5/2 52/5/2 53/5/2
f 53/5/2 52/5/2 54/5/2
f 53/2/2 54/2/2 55/2/2
f 55/2/2 54/2/2 56/2/2
f 55/4/2 56/4/2 57/4/2
f 57/4/2 56/4/2 58/4/2
f 57/3/2 58/3/2 59/3/2
f 59/3/2 58/3/2 60/3/2
f 61/3/2 62/3/2 63/3/2
f 63/3/2 62/3/2 64/3/2
f 65/3/2 66/3/2 67/3/2
f 67/3/2 66/3/2 68/3/2
f 69/2/2 70/2/2 71/2/2
f 71/2/2 70/2/2 72/2/2
f 71/1/2 72/1/2 73/1/2
f 73/1/2 72/1/2 74/1/2
f 73/2/2 74/2/2 75/2/2
f 75/2/2 74/2/2 76/2/2
f 86/3/3 78/3/3 77/3/3
f 87/4/3 79/4/3 78/4/3
f 87/3/3 78/3/3 86/3/3
f 88/2/3 80/2/3 79/2/3
f 88/4/3 79/4/3 87/4/3
f 89/5/3 81/5/3 80/5/3
f 89/2/3 80/2/3 88/2/3
f 90/2/3 82/2/3 81/2/3
f 90/5/3 81/5/3 89/5/3
f 91/4/3 83/4/3 82/4/3
f 91/2/3 82/2/3 90/2/3
f 92/3/3 84/3/3 83/3/3
f 92/4/3 83/4/3 91/4/3
f 93/3/3 84/3/3 92/3/3
f 96/3/3 86/3/3 85/3/3
f 97/3/3 86/3/3 96/3/3
f 98/3/3 94/3/3 93/3/3
f 99/3/3 94/3/3 98/3/3
f 102/4/3 96/4/3 95/4/3
f 103/4/3 96/4/3 102/4/3
f 104/4/3 100/4/3 99/4/3
f 105/4/3 100/4/3 104/4/3
f 107/2/3 102/2/3 101/2/3
f 108/1/3 103/1/3 102/1/3
f 108/2/3 102/2/3 107/2/3
f 108/1/3 104/1/3 103/1/3
f 108/1/3 105/1/3 104/1/3
f 109/2/3 106/2/3 105/2/3
f 109/1/3 105/1/3 108/1/3
f 110/2/3 106/2/3 109/2/3
f 111/3/4 112/3/4 120/3/4
f 112/4/4 113/4/4 121/4/4
f 120/3/4 112/3/4 121/3/4
f 113/2/4 114/2/4 122/2/4
f 121/4/4 113/4/4 122/4/4
f 114/5/4 115/5/4 123/5/4
f 122/2/4 114/2/4 123/2/4
f 115/2/4 116/2/4 124/2/4
f 123/5/4 115/5/4 124/5/4
f 116/4/4 117/4/4 125/4/4
f 124/2/4 116/2/4 125/2/4
f 117/3/4 118/3/4 126/3/4
f 125/4/4 117/4/4 126/4/4
f 126/3/4 118/3/4 127/3/4
f 119/3/4 120/3/4 130/3/4
f 130/3/4 120/3/4 131/3/4
f 127/3/4 128/3/4 132/3/4
f 132/3/4 128/3/4 133/3/4
f 129/4/4 130/4/4 136/4/4
f 136/4/4 130/4/4 137/4/4
f 133/4/4 134/4/4 138/4/4
f 138/4/4 134/4/4 139/4/4
f 135/2/4 136/2/4 141/2/4
f 136/1/4 137/1/4 142/1/4
f 141/2/4 136/2/4 142/2/4
f 137/1/4 138/1/4 142/1/4
f 138/1/4 139/1/4 142/1/4
f 139/2/4 140/2/4 143/2/4
f 142/1/4 139/1/4 143/1/4
f 143/2/4 140/2/4 144/2/4
f 147/2/5 146/2/5 145/2/5
f 148/2/5 146/2/5 147/2/5
f 151/4/5 150/4/5 149/4/5
f 152/4/5 150/4/5 151/4/5
f 155/3/5 154/3/5 153/3/5
f 156/3/5 154/3/5 155/3/5
f 159/3/5 158/3/5 157/3/5
f 160/3/5 158/3/5 159/3/5
f 163/3/5 162/3/5 161/3/5
f 164/3/5 162/3/5 163/3/5
f 167/4/5 166/4/5 165/4/5
f 168/4/5 166/4/5 167/4/5
f 169/4/6 170/4/6 171/4/6
f 171/4/6 170/4/6 172/4/6
f 173/3/6 174/3/6 175/3/6
f 175/3/6 174/3/6 176/3/6
f 177/3/6 178/3/6 179/3/6
f 179/3/6 178/3/6 180/3/6
f 181/3/6 182/3/6 183/3/6
f 183/3/6 182/3/6 184/3/6
f 185/4/6 186/4/6 187/4/6
f 187/4/6 186/4/6 188/4/6
f 189/2/6 190/2/6 191/2/6
f 191/2/6 190/2/6 192/2/6
