# MagicaVoxel @ ephtracy

# material
mtllib death_knight_shield.mtl
usemtl palette

# normals
vn -1 0 0
vn 1 0 0
vn 0 0 1
vn 0 0 -1
vn 0 -1 0
vn 0 1 0

# texcoords
vt 0.208984 0.5
vt 0.232422 0.5
vt 0.373047 0.5
vt 0.833984 0.5

# verts
v -0.173 0.346 0.519
v -0.173 0.346 0.346
v -0.173 0.346 -0.346
v -0.173 0.346 -0.519
v -0.173 0.519 0.692
v -0.173 0.519 0.519
v -0.173 0.519 0.346
v -0.173 0.519 0.173
v -0.173 0.519 -0.173
v -0.173 0.519 -0.346
v -0.173 0.519 -0.519
v -0.173 0.519 -0.692
v -0.173 0.692 0.519
v -0.173 0.692 0.346
v -0.173 0.692 0.173
v -0.173 0.692 -0.173
v -0.173 0.692 -0.346
v -0.173 0.692 -0.519
v -0.173 0.865 0.692
v -0.173 0.865 0.519
v -0.173 0.865 0.346
v -0.173 0.865 0.173
v -0.173 0.865 -0
v -0.173 0.865 -0.173
v -0.173 0.865 -0.346
v -0.173 0.865 -0.519
v -0.173 0.865 -0.692
v -0.173 1.038 0.519
v -0.173 1.038 0.346
v -0.173 1.211 0.346
v -0.173 1.211 0.173
v -0.173 1.211 -0
v -0.173 1.211 -0.173
v -0.173 1.211 -0.346
v -0.173 1.211 -0.519
v -0.173 1.384 -0
v -0.173 1.384 -0.173
v -0.173 1.384 -0.346
v -0.173 1.557 0.173
v -0.173 1.557 -0
v -0.173 1.557 -0.173
v 0 0.173 0.692
v 0 0.173 -0.519
v 0 0.346 0.865
v 0 0.346 0.692
v 0 0.346 0.519
v 0 0.346 0.346
v 0 0.346 -0.346
v 0 0.346 -0.519
v 0 0.346 -0.692
v 0 0.346 -0.865
v 0 0.519 0.692
v 0 0.519 -0.692
v 0 0.865 0.865
v 0 0.865 0.692
v 0 0.865 0.519
v 0 0.865 -0.519
v 0 0.865 -0.692
v 0 0.865 -0.865
v 0 1.038 0.519
v 0 1.211 0.692
v 0 1.211 0.519
v 0 1.211 -0.346
v 0 1.211 -0.519
v 0 1.211 -0.692
v 0 1.384 -0.346
v 0 1.384 -0.519
v 0 0.346 0.519
v 0 0.346 0.346
v 0 0.346 -0.346
v 0 0.346 -0.519
v 0 0.519 0.692
v 0 0.519 0.519
v 0 0.519 0.346
v 0 0.519 0.173
v 0 0.519 -0.173
v 0 0.519 -0.346
v 0 0.519 -0.519
v 0 0.519 -0.692
v 0 0.692 0.519
v 0 0.692 0.346
v 0 0.692 0.173
v 0 0.692 -0.173
v 0 0.692 -0.346
v 0 0.692 -0.519
v 0 0.865 0.692
v 0 0.865 0.519
v 0 0.865 0.346
v 0 0.865 0.173
v 0 0.865 -0
v 0 0.865 -0.173
v 0 0.865 -0.346
v 0 0.865 -0.519
v 0 0.865 -0.692
v 0 1.038 0.519
v 0 1.038 0.346
v 0 1.211 0.346
v 0 1.211 0.173
v 0 1.211 -0
v 0 1.211 -0.173
v 0 1.211 -0.346
v 0 1.211 -0.519
v 0 1.384 -0
v 0 1.384 -0.173
v 0 1.384 -0.346
v 0 1.557 0.173
v 0 1.557 -0
v 0 1.557 -0.173
v 0.173 0.173 0.692
v 0.173 0.173 -0.519
v 0.173 0.346 0.865
v 0.173 0.346 0.692
v 0.173 0.346 -0.519
v 0.173 0.346 -0.692
v 0.173 0.346 -0.865
v 0.173 0.865 0.865
v 0.173 0.865 0.692
v 0.173 0.865 0.519
v 0.173 0.865 -0.519
v 0.173 0.865 -0.692
v 0.173 0.865 -0.865
v 0.173 1.211 0.692
v 0.173 1.211 0.519
v 0.173 1.211 -0.346
v 0.173 1.211 -0.519
v 0.173 1.211 -0.692
v 0.173 1.384 -0.346
v 0.173 1.384 -0.519
v 0 0.346 0.865
v 0 0.865 0.865
v 0.173 0.346 0.865
v 0.173 0.865 0.865
v -0.173 0.519 0.692
v -0.173 0.865 0.692
v 0 0.173 0.692
v 0 0.346 0.692
v 0 0.519 0.692
v 0 0.865 0.692
v 0 1.211 0.692
v 0.173 0.173 0.692
v 0.173 0.346 0.692
v 0.173 0.865 0.692
v 0.173 1.211 0.692
v -0.173 0.346 0.519
v -0.173 0.519 0.519
v -0.173 0.865 0.519
v -0.173 1.038 0.519
v 0 0.346 0.519
v 0 0.519 0.519
v 0 0.865 0.519
v 0 1.038 0.519
v -0.173 1.038 0.346
v -0.173 1.211 0.346
v 0 1.038 0.346
v 0 1.211 0.346
v -0.173 1.211 0.173
v -0.173 1.557 0.173
v 0 1.211 0.173
v 0 1.557 0.173
v 0 1.211 -0.346
v 0 1.384 -0.346
v 0.173 1.211 -0.346
v 0.173 1.384 -0.346
v 0 0.865 -0.519
v 0 1.211 -0.519
v 0.173 0.865 -0.519
v 0.173 1.211 -0.519
v 0 0.346 -0.692
v 0 0.519 -0.692
v 0 0.865 -0.692
v 0.173 0.346 -0.692
v 0.173 0.865 -0.692
v 0 0.346 0.692
v 0 0.519 0.692
v 0 0.865 0.692
v 0.173 0.346 0.692
v 0.173 0.865 0.692
v 0 0.865 0.519
v 0 1.038 0.519
v 0 1.211 0.519
v 0.173 0.865 0.519
v 0.173 1.211 0.519
v -0.173 1.384 -0.173
v -0.173 1.557 -0.173
v 0 1.384 -0.173
v 0 1.557 -0.173
v -0.173 1.211 -0.346
v -0.173 1.384 -0.346
v 0 1.211 -0.346
v 0 1.384 -0.346
v -0.173 0.346 -0.519
v -0.173 0.519 -0.519
v -0.173 0.865 -0.519
v -0.173 1.211 -0.519
v 0 0.173 -0.519
v 0 0.346 -0.519
v 0 0.519 -0.519
v 0 0.865 -0.519
v 0 1.211 -0.519
v 0 1.384 -0.519
v 0.173 0.173 -0.519
v 0.173 0.346 -0.519
v 0.173 1.211 -0.519
v 0.173 1.384 -0.519
v -0.173 0.519 -0.692
v -0.173 0.865 -0.692
v 0 0.519 -0.692
v 0 0.865 -0.692
v 0 1.211 -0.692
v 0.173 0.865 -0.692
v 0.173 1.211 -0.692
v 0 0.346 -0.865
v 0 0.865 -0.865
v 0.173 0.346 -0.865
v 0.173 0.865 -0.865
v 0 0.173 0.692
v 0.173 0.173 0.692
v 0 0.173 -0.519
v 0.173 0.173 -0.519
v 0 0.346 0.865
v 0.173 0.346 0.865
v 0 0.346 0.692
v 0.173 0.346 0.692
v -0.173 0.346 0.519
v 0 0.346 0.519
v -0.173 0.346 0.346
v 0 0.346 0.346
v -0.173 0.346 -0.346
v 0 0.346 -0.346
v -0.173 0.346 -0.519
v 0 0.346 -0.519
v 0 0.346 -0.692
v 0.173 0.346 -0.692
v 0 0.346 -0.865
v 0.173 0.346 -0.865
v -0.173 0.519 0.692
v 0 0.519 0.692
v -0.173 0.519 0.519
v 0 0.519 0.519
v -0.173 0.519 -0.519
v 0 0.519 -0.519
v -0.173 0.519 -0.692
v 0 0.519 -0.692
v 0 0.865 0.692
v 0.173 0.865 0.692
v 0 0.865 0.519
v 0.173 0.865 0.519
v 0 0.865 -0.519
v 0.173 0.865 -0.519
v 0 0.865 -0.692
v 0.173 0.865 -0.692
v 0 1.211 -0.346
v 0.173 1.211 -0.346
v 0 1.211 -0.519
v 0.173 1.211 -0.519
v 0 0.346 0.692
v 0.173 0.346 0.692
v 0 0.346 0.519
v 0 0.346 0.346
v 0 0.346 -0.346
v 0 0.346 -0.519
v 0.173 0.346 -0.519
v 0 0.865 0.865
v 0.173 0.865 0.865
v -0.173 0.865 0.692
v 0 0.865 0.692
v 0.173 0.865 0.692
v -0.173 0.865 0.519
v 0 0.865 0.519
v -0.173 0.865 -0.519
v 0 0.865 -0.519
v -0.173 0.865 -0.692
v 0 0.865 -0.692
v 0.173 0.865 -0.692
v 0 0.865 -0.865
v 0.173 0.865 -0.865
v -0.173 1.038 0.519
v 0 1.038 0.519
v -0.173 1.038 0.346
v 0 1.038 0.346
v 0 1.211 0.692
v 0.173 1.211 0.692
v 0 1.211 0.519
v 0.173 1.211 0.519
v -0.173 1.211 0.346
v 0 1.211 0.346
v -0.173 1.211 0.173
v 0 1.211 0.173
v -0.173 1.211 -0.346
v 0 1.211 -0.346
v -0.173 1.211 -0.519
v 0 1.211 -0.519
v 0.173 1.211 -0.519
v 0 1.211 -0.692
v 0.173 1.211 -0.692
v -0.173 1.384 -0.173
v 0 1.384 -0.173
v -0.173 1.384 -0.346
v 0 1.384 -0.346
v 0.173 1.384 -0.346
v 0 1.384 -0.519
v 0.173 1.384 -0.519
v -0.173 1.557 0.173
v 0 1.557 0.173
v -0.173 1.557 -0
v 0 1.557 -0
v -0.173 1.557 -0.173
v 0 1.557 -0.173

# faces
f 6/1/1 2/1/1 1/1/1
f 7/4/1 3/4/1 2/4/1
f 7/1/1 2/1/1 6/1/1
f 8/4/1 3/4/1 7/4/1
f 9/4/1 3/4/1 8/4/1
f 10/2/1 4/2/1 3/2/1
f 10/4/1 3/4/1 9/4/1
f 11/2/1 4/2/1 10/2/1
f 13/4/1 6/4/1 5/4/1
f 13/1/1 7/1/1 6/1/1
f 13/1/1 8/1/1 7/1/1
f 14/1/1 8/1/1 13/1/1
f 15/4/1 9/4/1 8/4/1
f 15/1/1 8/1/1 14/1/1
f 16/1/1 10/1/1 9/1/1
f 16/4/1 9/4/1 15/4/1
f 17/2/1 11/2/1 10/2/1
f 17/1/1 10/1/1 16/1/1
f 18/4/1 12/4/1 11/4/1
f 18/2/1 11/2/1 17/2/1
f 19/4/1 14/4/1 13/4/1
f 19/4/1 13/4/1 5/4/1
f 20/4/1 14/4/1 19/4/1
f 21/1/1 16/1/1 15/1/1
f 21/4/1 14/4/1 20/4/1
f 21/1/1 15/1/1 14/1/1
f 22/1/1 16/1/1 21/1/1
f 23/1/1 16/1/1 22/1/1
f 24/2/1 17/2/1 16/2/1
f 24/1/1 16/1/1 23/1/1
f 25/4/1 18/4/1 17/4/1
f 25/2/1 17/2/1 24/2/1
f 26/4/1 12/4/1 18/4/1
f 26/4/1 18/4/1 25/4/1
f 27/4/1 12/4/1 26/4/1
f 28/4/1 21/4/1 20/4/1
f 28/4/1 22/4/1 21/4/1
f 29/4/1 22/4/1 28/4/1
f 30/4/1 22/4/1 29/4/1
f 31/1/1 23/1/1 22/1/1
f 31/4/1 22/4/1 30/4/1
f 32/2/1 24/2/1 23/2/1
f 32/1/1 23/1/1 31/1/1
f 33/4/1 25/4/1 24/4/1
f 33/2/1 24/2/1 32/2/1
f 33/4/1 26/4/1 25/4/1
f 34/4/1 26/4/1 33/4/1
f 35/4/1 26/4/1 34/4/1
f 36/4/1 32/4/1 31/4/1
f 36/4/1 34/4/1 33/4/1
f 36/4/1 33/4/1 32/4/1
f 37/4/1 34/4/1 36/4/1
f 38/4/1 34/4/1 37/4/1
f 39/4/1 36/4/1 31/4/1
f 40/3/1 37/3/1 36/3/1
f 40/4/1 36/4/1 39/4/1
f 41/3/1 37/3/1 40/3/1
f 45/2/1 43/2/1 42/2/1
f 46/2/1 43/2/1 45/2/1
f 47/2/1 43/2/1 46/2/1
f 48/2/1 43/2/1 47/2/1
f 49/2/1 43/2/1 48/2/1
f 52/1/1 45/1/1 44/1/1
f 53/2/1 51/2/1 50/2/1
f 54/1/1 52/1/1 44/1/1
f 55/1/1 52/1/1 54/1/1
f 58/2/1 51/2/1 53/2/1
f 59/2/1 51/2/1 58/2/1
f 60/1/1 56/1/1 55/1/1
f 61/1/1 60/1/1 55/1/1
f 62/1/1 60/1/1 61/1/1
f 64/3/1 58/3/1 57/3/1
f 65/3/1 58/3/1 64/3/1
f 66/3/1 64/3/1 63/3/1
f 67/3/1 64/3/1 66/3/1
f 68/1/2 69/1/2 73/1/2
f 69/4/2 70/4/2 74/4/2
f 73/1/2 69/1/2 74/1/2
f 74/4/2 70/4/2 75/4/2
f 75/4/2 70/4/2 76/4/2
f 70/2/2 71/2/2 77/2/2
f 76/4/2 70/4/2 77/4/2
f 77/2/2 71/2/2 78/2/2
f 72/4/2 73/4/2 80/4/2
f 73/1/2 74/1/2 80/1/2
f 74/1/2 75/1/2 80/1/2
f 80/1/2 75/1/2 81/1/2
f 75/4/2 76/4/2 82/4/2
f 81/1/2 75/1/2 82/1/2
f 76/1/2 77/1/2 83/1/2
f 82/4/2 76/4/2 83/4/2
f 77/2/2 78/2/2 84/2/2
f 83/1/2 77/1/2 84/1/2
f 78/4/2 79/4/2 85/4/2
f 84/2/2 78/2/2 85/2/2
f 80/4/2 81/4/2 86/4/2
f 72/4/2 80/4/2 86/4/2
f 86/4/2 81/4/2 87/4/2
f 82/1/2 83/1/2 88/1/2
f 87/4/2 81/4/2 88/4/2
f 81/1/2 82/1/2 88/1/2
f 88/1/2 83/1/2 89/1/2
f 89/1/2 83/1/2 90/1/2
f 83/2/2 84/2/2 91/2/2
f 90/1/2 83/1/2 91/1/2
f 84/4/2 85/4/2 92/4/2
f 91/2/2 84/2/2 92/2/2
f 85/4/2 79/4/2 93/4/2
f 92/4/2 85/4/2 93/4/2
f 93/4/2 79/4/2 94/4/2
f 87/4/2 88/4/2 95/4/2
f 88/4/2 89/4/2 95/4/2
f 95/4/2 89/4/2 96/4/2
f 96/4/2 89/4/2 97/4/2
f 89/1/2 90/1/2 98/1/2
f 97/4/2 89/4/2 98/4/2
f 90/2/2 91/2/2 99/2/2
f 98/1/2 90/1/2 99/1/2
f 91/4/2 92/4/2 100/4/2
f 99/2/2 91/2/2 100/2/2
f 92/4/2 93/4/2 100/4/2
f 100/4/2 93/4/2 101/4/2
f 101/4/2 93/4/2 102/4/2
f 98/4/2 99/4/2 103/4/2
f 100/4/2 101/4/2 103/4/2
f 99/4/2 100/4/2 103/4/2
f 103/4/2 101/4/2 104/4/2
f 104/4/2 101/4/2 105/4/2
f 98/4/2 103/4/2 106/4/2
f 103/3/2 104/3/2 107/3/2
f 106/4/2 103/4/2 107/4/2
f 107/3/2 104/3/2 108/3/2
f 109/2/2 110/2/2 112/2/2
f 112/2/2 110/2/2 113/2/2
f 111/1/2 112/1/2 116/1/2
f 116/1/2 112/1/2 117/1/2
f 114/2/2 115/2/2 120/2/2
f 120/2/2 115/2/2 121/2/2
f 117/1/2 118/1/2 122/1/2
f 122/1/2 118/1/2 123/1/2
f 119/3/2 120/3/2 125/3/2
f 125/3/2 120/3/2 126/3/2
f 124/3/2 125/3/2 127/3/2
f 127/3/2 125/3/2 128/3/2
f 131/1/3 130/1/3 129/1/3
f 132/1/3 130/1/3 131/1/3
f 137/4/3 134/4/3 133/4/3
f 138/4/3 134/4/3 137/4/3
f 140/2/3 136/2/3 135/2/3
f 141/2/3 136/2/3 140/2/3
f 142/1/3 139/1/3 138/1/3
f 143/1/3 139/1/3 142/1/3
f 148/1/3 145/1/3 144/1/3
f 149/1/3 145/1/3 148/1/3
f 150/4/3 147/4/3 146/4/3
f 151/4/3 147/4/3 150/4/3
f 154/4/3 153/4/3 152/4/3
f 155/4/3 153/4/3 154/4/3
f 158/4/3 157/4/3 156/4/3
f 159/4/3 157/4/3 158/4/3
f 162/3/3 161/3/3 160/3/3
f 163/3/3 161/3/3 162/3/3
f 166/3/3 165/3/3 164/3/3
f 167/3/3 165/3/3 166/3/3
f 171/2/3 169/2/3 168/2/3
f 171/2/3 170/2/3 169/2/3
f 172/2/3 170/2/3 171/2/3
f 173/1/4 174/1/4 176/1/4
f 174/1/4 175/1/4 176/1/4
f 176/1/4 175/1/4 177/1/4
f 178/1/4 179/1/4 181/1/4
f 179/1/4 180/1/4 181/1/4
f 181/1/4 180/1/4 182/1/4
f 183/3/4 184/3/4 185/3/4
f 185/3/4 184/3/4 186/3/4
f 187/4/4 188/4/4 189/4/4
f 189/4/4 188/4/4 190/4/4
f 191/2/4 192/2/4 196/2/4
f 196/2/4 192/2/4 197/2/4
f 193/4/4 194/4/4 198/4/4
f 198/4/4 194/4/4 199/4/4
f 195/2/4 196/2/4 201/2/4
f 201/2/4 196/2/4 202/2/4
f 199/3/4 200/3/4 203/3/4
f 203/3/4 200/3/4 204/3/4
f 205/4/4 206/4/4 207/4/4
f 207/4/4 206/4/4 208/4/4
f 208/3/4 209/3/4 210/3/4
f 210/3/4 209/3/4 211/3/4
f 212/2/4 213/2/4 214/2/4
f 214/2/4 213/2/4 215/2/4
f 218/2/5 217/2/5 216/2/5
f 219/2/5 217/2/5 218/2/5
f 222/1/5 221/1/5 220/1/5
f 223/1/5 221/1/5 222/1/5
f 226/1/5 225/1/5 224/1/5
f 227/1/5 225/1/5 226/1/5
f 228/4/5 227/4/5 226/4/5
f 229/4/5 227/4/5 228/4/5
f 230/2/5 229/2/5 228/2/5
f 231/2/5 229/2/5 230/2/5
f 234/2/5 233/2/5 232/2/5
f 235/2/5 233/2/5 234/2/5
f 238/4/5 237/4/5 236/4/5
f 239/4/5 237/4/5 238/4/5
f 242/4/5 241/4/5 240/4/5
f 243/4/5 241/4/5 242/4/5
f 246/1/5 245/1/5 244/1/5
f 247/1/5 245/1/5 246/1/5
f 250/3/5 249/3/5 248/3/5
f 251/3/5 249/3/5 250/3/5
f 254/3/5 253/3/5 252/3/5
f 255/3/5 253/3/5 254/3/5
f 256/2/6 257/2/6 258/2/6
f 258/2/6 257/2/6 259/2/6
f 259/2/6 257/2/6 260/2/6
f 260/2/6 257/2/6 261/2/6
f 261/2/6 257/2/6 262/2/6
f 263/1/6 264/1/6 266/1/6
f 266/1/6 264/1/6 267/1/6
f 265/4/6 266/4/6 268/4/6
f 268/4/6 266/4/6 269/4/6
f 270/4/6 271/4/6 272/4/6
f 272/4/6 271/4/6 273/4/6
f 273/2/6 274/2/6 275/2/6
f 275/2/6 274/2/6 276/2/6
f 277/4/6 278/4/6 279/4/6
f 279/4/6 278/4/6 280/4/6
f 281/1/6 282/1/6 283/1/6
f 283/1/6 282/1/6 284/1/6
f 285/4/6 286/4/6 287/4/6
f 287/4/6 286/4/6 288/4/6
f 289/4/6 290/4/6 291/4/6
f 291/4/6 290/4/6 292/4/6
f 292/3/6 293/3/6 294/3/6
f 294/3/6 293/3/6 295/3/6
f 296/4/6 297/4/6 298/4/6
f 298/4/6 297/4/6 299/4/6
f 299/3/6 300/3/6 301/3/6
f 301/3/6 300/3/6 302/3/6
f 303/4/6 304/4/6 305/4/6
f 305/4/6 304/4/6 306/4/6
f 305/3/6 306/3/6 307/3/6
f 307/3/6 306/3/6 308/3/6
