# MagicaVoxel @ ephtracy

# material
mtllib death_knight_sword.mtl
usemtl palette

# normals
vn -1 0 0
vn 1 0 0
vn 0 0 1
vn 0 0 -1
vn 0 -1 0
vn 0 1 0

# texcoords
vt 0.208984 0.5
vt 0.232422 0.5
vt 0.958984 0.5
vt 0.962891 0.5

# verts
v -0.2595 0.346 0.0865
v -0.2595 0.346 -0.0865
v -0.2595 0.519 0.0865
v -0.2595 0.519 -0.0865
v -0.2595 0.865 0.0865
v -0.2595 0.865 -0.0865
v -0.2595 1.73 0.0865
v -0.2595 1.73 -0.0865
v -0.0865 0 0.0865
v -0.0865 0 -0.0865
v -0.0865 0.173 0.0865
v -0.0865 0.173 -0.0865
v -0.0865 0.346 0.0865
v -0.0865 0.346 -0.0865
v -0.0865 0.519 0.0865
v -0.0865 0.519 -0.0865
v -0.0865 0.865 0.0865
v -0.0865 0.865 -0.0865
v -0.0865 1.73 0.0865
v -0.0865 1.73 -0.0865
v -0.0865 1.903 0.0865
v -0.0865 1.903 -0.0865
v -0.0865 1.557 0.0865
v -0.0865 1.557 -0.0865
v -0.0865 1.73 0.0865
v -0.0865 1.73 -0.0865
v 0.0865 0 0.0865
v 0.0865 0 -0.0865
v 0.0865 0.173 0.0865
v 0.0865 0.173 -0.0865
v 0.0865 0.346 0.0865
v 0.0865 0.346 -0.0865
v 0.0865 0.519 0.0865
v 0.0865 0.519 -0.0865
v 0.0865 0.692 0.0865
v 0.0865 0.692 -0.0865
v 0.0865 1.211 0.0865
v 0.0865 1.211 -0.0865
v 0.0865 1.557 0.0865
v 0.0865 1.557 -0.0865
v 0.0865 1.73 0.0865
v 0.0865 1.73 -0.0865
v 0.0865 1.903 0.0865
v 0.0865 1.903 -0.0865
v 0.2595 0.346 0.0865
v 0.2595 0.346 -0.0865
v 0.2595 0.519 0.0865
v 0.2595 0.519 -0.0865
v 0.2595 0.692 0.0865
v 0.2595 0.692 -0.0865
v 0.2595 1.211 0.0865
v 0.2595 1.211 -0.0865
v -0.2595 0.346 0.0865
v -0.2595 0.519 0.0865
v -0.2595 0.865 0.0865
v -0.2595 1.73 0.0865
v -0.0865 0 0.0865
v -0.0865 0.173 0.0865
v -0.0865 0.346 0.0865
v -0.0865 0.519 0.0865
v -0.0865 0.865 0.0865
v -0.0865 1.038 0.0865
v -0.0865 1.211 0.0865
v -0.0865 1.557 0.0865
v -0.0865 1.73 0.0865
v -0.0865 1.903 0.0865
v 0.0865 0 0.0865
v 0.0865 0.173 0.0865
v 0.0865 0.346 0.0865
v 0.0865 0.519 0.0865
v 0.0865 0.692 0.0865
v 0.0865 1.038 0.0865
v 0.0865 1.211 0.0865
v 0.0865 1.557 0.0865
v 0.0865 1.73 0.0865
v 0.0865 1.903 0.0865
v 0.2595 0.346 0.0865
v 0.2595 0.519 0.0865
v 0.2595 0.692 0.0865
v 0.2595 1.211 0.0865
v -0.2595 0.346 -0.0865
v -0.2595 0.519 -0.0865
v -0.2595 0.865 -0.0865
v -0.2595 1.73 -0.0865
v -0.0865 0 -0.0865
v -0.0865 0.173 -0.0865
v -0.0865 0.346 -0.0865
v -0.0865 0.519 -0.0865
v -0.0865 0.865 -0.0865
v -0.0865 1.038 -0.0865
v -0.0865 1.211 -0.0865
v -0.0865 1.557 -0.0865
v -0.0865 1.73 -0.0865
v -0.0865 1.903 -0.0865
v 0.0865 0 -0.0865
v 0.0865 0.173 -0.0865
v 0.0865 0.346 -0.0865
v 0.0865 0.519 -0.0865
v 0.0865 0.692 -0.0865
v 0.0865 1.038 -0.0865
v 0.0865 1.211 -0.0865
v 0.0865 1.557 -0.0865
v 0.0865 1.73 -0.0865
v 0.0865 1.903 -0.0865
v 0.2595 0.346 -0.0865
v 0.2595 0.519 -0.0865
v 0.2595 0.692 -0.0865
v 0.2595 1.211 -0.0865
v -0.0865 0 0.0865
v 0.0865 0 0.0865
v -0.0865 0 -0.0865
v 0.0865 0 -0.0865
v -0.2595 0.346 0.0865
v -0.0865 0.346 0.0865
v 0.0865 0.346 0.0865
v 0.2595 0.346 0.0865
v -0.2595 0.346 -0.0865
v -0.0865 0.346 -0.0865
v 0.0865 0.346 -0.0865
v 0.2595 0.346 -0.0865
v 0.0865 0.692 0.0865
v 0.2595 0.692 0.0865
v 0.0865 0.692 -0.0865
v 0.2595 0.692 -0.0865
v -0.2595 0.865 0.0865
v -0.0865 0.865 0.0865
v -0.2595 0.865 -0.0865
v -0.0865 0.865 -0.0865
v -0.0865 1.73 0.0865
v 0.0865 1.73 0.0865
v -0.0865 1.73 -0.0865
v 0.0865 1.73 -0.0865
v -0.2595 0.519 0.0865
v -0.0865 0.519 0.0865
v 0.0865 0.519 0.0865
v 0.2595 0.519 0.0865
v -0.2595 0.519 -0.0865
v -0.0865 0.519 -0.0865
v 0.0865 0.519 -0.0865
v 0.2595 0.519 -0.0865
v 0.0865 1.211 0.0865
v 0.2595 1.211 0.0865
v 0.0865 1.211 -0.0865
v 0.2595 1.211 -0.0865
v -0.0865 1.557 0.0865
v 0.0865 1.557 0.0865
v -0.0865 1.557 -0.0865
v 0.0865 1.557 -0.0865
v -0.2595 1.73 0.0865
v -0.0865 1.73 0.0865
v -0.2595 1.73 -0.0865
v -0.0865 1.73 -0.0865
v -0.0865 1.903 0.0865
v 0.0865 1.903 0.0865
v -0.0865 1.903 -0.0865
v 0.0865 1.903 -0.0865

# faces
f 3/2/1 2/2/1 1/2/1
f 4/2/1 2/2/1 3/2/1
f 7/4/1 6/4/1 5/4/1
f 8/4/1 6/4/1 7/4/1
f 11/2/1 10/2/1 9/2/1
f 12/2/1 10/2/1 11/2/1
f 13/1/1 12/1/1 11/1/1
f 14/1/1 12/1/1 13/1/1
f 17/3/1 16/3/1 15/3/1
f 18/3/1 16/3/1 17/3/1
f 21/4/1 20/4/1 19/4/1
f 22/4/1 20/4/1 21/4/1
f 23/4/2 24/4/2 25/4/2
f 25/4/2 24/4/2 26/4/2
f 27/2/2 28/2/2 29/2/2
f 29/2/2 28/2/2 30/2/2
f 29/1/2 30/1/2 31/1/2
f 31/1/2 30/1/2 32/1/2
f 33/3/2 34/3/2 35/3/2
f 35/3/2 34/3/2 36/3/2
f 37/3/2 38/3/2 39/3/2
f 39/3/2 38/3/2 40/3/2
f 41/4/2 42/4/2 43/4/2
f 43/4/2 42/4/2 44/4/2
f 45/1/2 46/1/2 47/1/2
f 47/1/2 46/1/2 48/1/2
f 49/3/2 50/3/2 51/3/2
f 51/3/2 50/3/2 52/3/2
f 59/2/3 54/2/3 53/2/3
f 60/2/3 54/2/3 59/2/3
f 61/4/3 56/4/3 55/4/3
f 62/4/3 56/4/3 61/4/3
f 63/4/3 56/4/3 62/4/3
f 64/4/3 56/4/3 63/4/3
f 65/4/3 56/4/3 64/4/3
f 67/2/3 58/2/3 57/2/3
f 68/1/3 60/1/3 59/1/3
f 68/2/3 58/2/3 67/2/3
f 68/1/3 59/1/3 58/1/3
f 69/1/3 60/1/3 68/1/3
f 70/3/3 61/3/3 60/3/3
f 70/1/3 60/1/3 69/1/3
f 70/3/3 62/3/3 61/3/3
f 71/3/3 62/3/3 70/3/3
f 72/4/3 63/4/3 62/4/3
f 72/3/3 62/3/3 71/3/3
f 73/3/3 64/3/3 63/3/3
f 73/4/3 63/4/3 72/4/3
f 74/3/3 64/3/3 73/3/3
f 75/4/3 66/4/3 65/4/3
f 76/4/3 66/4/3 75/4/3
f 77/1/3 70/1/3 69/1/3
f 78/1/3 70/1/3 77/1/3
f 79/3/3 72/3/3 71/3/3
f 79/3/3 73/3/3 72/3/3
f 80/3/3 73/3/3 79/3/3
f 81/2/4 82/2/4 87/2/4
f 87/2/4 82/2/4 88/2/4
f 83/4/4 84/4/4 89/4/4
f 89/4/4 84/4/4 90/4/4
f 90/4/4 84/4/4 91/4/4
f 91/4/4 84/4/4 92/4/4
f 92/4/4 84/4/4 93/4/4
f 85/2/4 86/2/4 95/2/4
f 87/1/4 88/1/4 96/1/4
f 95/2/4 86/2/4 96/2/4
f 86/1/4 87/1/4 96/1/4
f 96/1/4 88/1/4 97/1/4
f 88/3/4 89/3/4 98/3/4
f 97/1/4 88/1/4 98/1/4
f 89/3/4 90/3/4 98/3/4
f 98/3/4 90/3/4 99/3/4
f 90/4/4 91/4/4 100/4/4
f 99/3/4 90/3/4 100/3/4
f 91/3/4 92/3/4 101/3/4
f 100/4/4 91/4/4 101/4/4
f 101/3/4 92/3/4 102/3/4
f 93/4/4 94/4/4 103/4/4
f 103/4/4 94/4/4 104/4/4
f 97/1/4 98/1/4 105/1/4
f 105/1/4 98/1/4 106/1/4
f 99/3/4 100/3/4 107/3/4
f 100/3/4 101/3/4 107/3/4
f 107/3/4 101/3/4 108/3/4
f 111/2/5 110/2/5 109/2/5
f 112/2/5 110/2/5 111/2/5
f 117/2/5 114/2/5 113/2/5
f 118/2/5 114/2/5 117/2/5
f 119/1/5 116/1/5 115/1/5
f 120/1/5 116/1/5 119/1/5
f 123/3/5 122/3/5 121/3/5
f 124/3/5 122/3/5 123/3/5
f 127/4/5 126/4/5 125/4/5
f 128/4/5 126/4/5 127/4/5
f 131/4/5 130/4/5 129/4/5
f 132/4/5 130/4/5 131/4/5
f 133/2/6 134/2/6 137/2/6
f 137/2/6 134/2/6 138/2/6
f 135/1/6 136/1/6 139/1/6
f 139/1/6 136/1/6 140/1/6
f 141/3/6 142/3/6 143/3/6
f 143/3/6 142/3/6 144/3/6
f 145/3/6 146/3/6 147/3/6
f 147/3/6 146/3/6 148/3/6
f 149/4/6 150/4/6 151/4/6
f 151/4/6 150/4/6 152/4/6
f 153/4/6 154/4/6 155/4/6
f 155/4/6 154/4/6 156/4/6
