# MagicaVoxel @ ephtracy

# material
mtllib Great_sword.mtl
usemtl palette

# normals
vn -1 0 0
vn 1 0 0
vn 0 0 1
vn 0 0 -1
vn 0 -1 0
vn 0 1 0

# texcoords
vt 0.00195313 0.5
vt 0.208984 0.5
vt 0.232422 0.5
vt 0.810547 0.5
vt 0.841797 0.5

# verts
v -0.4325 0.692 0.0865
v -0.4325 0.692 -0.0865
v -0.4325 0.865 0.0865
v -0.4325 0.865 -0.0865
v -0.2595 0.865 0.0865
v -0.2595 0.865 -0.0865
v -0.2595 1.038 0.0865
v -0.2595 1.038 -0.0865
v -0.2595 2.422 0.0865
v -0.2595 2.422 -0.0865
v -0.0865 0 0.0865
v -0.0865 0 -0.0865
v -0.0865 0.173 0.0865
v -0.0865 0.173 -0.0865
v -0.0865 0.346 0.0865
v -0.0865 0.346 -0.0865
v -0.0865 0.519 0.0865
v -0.0865 0.519 -0.0865
v -0.0865 0.692 0.0865
v -0.0865 0.692 -0.0865
v -0.0865 2.422 0.0865
v -0.0865 2.422 -0.0865
v -0.0865 2.768 0.0865
v -0.0865 2.768 -0.0865
v 0.0865 0 0.0865
v 0.0865 0 -0.0865
v 0.0865 0.173 0.0865
v 0.0865 0.173 -0.0865
v 0.0865 0.346 0.0865
v 0.0865 0.346 -0.0865
v 0.0865 0.519 0.0865
v 0.0865 0.519 -0.0865
v 0.0865 0.692 0.0865
v 0.0865 0.692 -0.0865
v 0.0865 2.422 0.0865
v 0.0865 2.422 -0.0865
v 0.0865 2.768 0.0865
v 0.0865 2.768 -0.0865
v 0.2595 0.865 0.0865
v 0.2595 0.865 -0.0865
v 0.2595 1.038 0.0865
v 0.2595 1.038 -0.0865
v 0.2595 2.422 0.0865
v 0.2595 2.422 -0.0865
v 0.4325 0.692 0.0865
v 0.4325 0.692 -0.0865
v 0.4325 0.865 0.0865
v 0.4325 0.865 -0.0865
v -0.4325 0.692 0.0865
v -0.4325 0.865 0.0865
v -0.2595 0.865 0.0865
v -0.2595 1.038 0.0865
v -0.2595 2.422 0.0865
v -0.0865 0 0.0865
v -0.0865 0.173 0.0865
v -0.0865 0.346 0.0865
v -0.0865 0.519 0.0865
v -0.0865 0.692 0.0865
v -0.0865 0.865 0.0865
v -0.0865 1.038 0.0865
v -0.0865 1.211 0.0865
v -0.0865 2.422 0.0865
v -0.0865 2.768 0.0865
v 0.0865 0 0.0865
v 0.0865 0.173 0.0865
v 0.0865 0.346 0.0865
v 0.0865 0.519 0.0865
v 0.0865 0.692 0.0865
v 0.0865 0.865 0.0865
v 0.0865 1.038 0.0865
v 0.0865 1.211 0.0865
v 0.0865 2.422 0.0865
v 0.0865 2.768 0.0865
v 0.2595 0.865 0.0865
v 0.2595 1.038 0.0865
v 0.2595 2.422 0.0865
v 0.4325 0.692 0.0865
v 0.4325 0.865 0.0865
v -0.4325 0.692 -0.0865
v -0.4325 0.865 -0.0865
v -0.2595 0.865 -0.0865
v -0.2595 1.038 -0.0865
v -0.2595 2.422 -0.0865
v -0.0865 0 -0.0865
v -0.0865 0.173 -0.0865
v -0.0865 0.346 -0.0865
v -0.0865 0.519 -0.0865
v -0.0865 0.692 -0.0865
v -0.0865 0.865 -0.0865
v -0.0865 1.038 -0.0865
v -0.0865 1.211 -0.0865
v -0.0865 2.422 -0.0865
v -0.0865 2.768 -0.0865
v 0.0865 0 -0.0865
v 0.0865 0.173 -0.0865
v 0.0865 0.346 -0.0865
v 0.0865 0.519 -0.0865
v 0.0865 0.692 -0.0865
v 0.0865 0.865 -0.0865
v 0.0865 1.038 -0.0865
v 0.0865 1.211 -0.0865
v 0.0865 2.422 -0.0865
v 0.0865 2.768 -0.0865
v 0.2595 0.865 -0.0865
v 0.2595 1.038 -0.0865
v 0.2595 2.422 -0.0865
v 0.4325 0.692 -0.0865
v 0.4325 0.865 -0.0865
v -0.0865 0 0.0865
v 0.0865 0 0.0865
v -0.0865 0 -0.0865
v 0.0865 0 -0.0865
v -0.4325 0.692 0.0865
v -0.0865 0.692 0.0865
v 0.0865 0.692 0.0865
v 0.4325 0.692 0.0865
v -0.4325 0.692 -0.0865
v -0.0865 0.692 -0.0865
v 0.0865 0.692 -0.0865
v 0.4325 0.692 -0.0865
v -0.4325 0.865 0.0865
v -0.2595 0.865 0.0865
v 0.2595 0.865 0.0865
v 0.4325 0.865 0.0865
v -0.4325 0.865 -0.0865
v -0.2595 0.865 -0.0865
v 0.2595 0.865 -0.0865
v 0.4325 0.865 -0.0865
v -0.2595 2.422 0.0865
v -0.0865 2.422 0.0865
v 0.0865 2.422 0.0865
v 0.2595 2.422 0.0865
v -0.2595 2.422 -0.0865
v -0.0865 2.422 -0.0865
v 0.0865 2.422 -0.0865
v 0.2595 2.422 -0.0865
v -0.0865 2.768 0.0865
v 0.0865 2.768 0.0865
v -0.0865 2.768 -0.0865
v 0.0865 2.768 -0.0865

# faces
f 3/4/1 2/4/1 1/4/1
f 4/4/1 2/4/1 3/4/1
f 7/4/1 6/4/1 5/4/1
f 8/4/1 6/4/1 7/4/1
f 9/1/1 8/1/1 7/1/1
f 10/1/1 8/1/1 9/1/1
f 13/4/1 12/4/1 11/4/1
f 14/4/1 12/4/1 13/4/1
f 15/3/1 14/3/1 13/3/1
f 16/3/1 14/3/1 15/3/1
f 17/2/1 16/2/1 15/2/1
f 18/2/1 16/2/1 17/2/1
f 19/3/1 18/3/1 17/3/1
f 20/3/1 18/3/1 19/3/1
f 23/1/1 22/1/1 21/1/1
f 24/1/1 22/1/1 23/1/1
f 25/4/2 26/4/2 27/4/2
f 27/4/2 26/4/2 28/4/2
f 27/3/2 28/3/2 29/3/2
f 29/3/2 28/3/2 30/3/2
f 29/2/2 30/2/2 31/2/2
f 31/2/2 30/2/2 32/2/2
f 31/3/2 32/3/2 33/3/2
f 33/3/2 32/3/2 34/3/2
f 35/1/2 36/1/2 37/1/2
f 37/1/2 36/1/2 38/1/2
f 39/4/2 40/4/2 41/4/2
f 41/4/2 40/4/2 42/4/2
f 41/1/2 42/1/2 43/1/2
f 43/1/2 42/1/2 44/1/2
f 45/4/2 46/4/2 47/4/2
f 47/4/2 46/4/2 48/4/2
f 51/4/3 50/4/3 49/4/3
f 58/4/3 51/4/3 49/4/3
f 58/4/3 52/4/3 51/4/3
f 59/4/3 52/4/3 58/4/3
f 60/1/3 53/1/3 52/1/3
f 60/4/3 52/4/3 59/4/3
f 61/1/3 53/1/3 60/1/3
f 62/1/3 53/1/3 61/1/3
f 64/4/3 55/4/3 54/4/3
f 65/3/3 56/3/3 55/3/3
f 65/4/3 55/4/3 64/4/3
f 66/2/3 57/2/3 56/2/3
f 66/3/3 56/3/3 65/3/3
f 67/3/3 58/3/3 57/3/3
f 67/2/3 57/2/3 66/2/3
f 68/4/3 59/4/3 58/4/3
f 68/3/3 58/3/3 67/3/3
f 69/5/3 60/5/3 59/5/3
f 69/4/3 59/4/3 68/4/3
f 69/5/3 61/5/3 60/5/3
f 70/5/3 61/5/3 69/5/3
f 71/1/3 63/1/3 62/1/3
f 71/5/3 61/5/3 70/5/3
f 71/1/3 62/1/3 61/1/3
f 72/1/3 63/1/3 71/1/3
f 73/1/3 63/1/3 72/1/3
f 74/4/3 70/4/3 69/4/3
f 74/4/3 69/4/3 68/4/3
f 75/1/3 72/1/3 71/1/3
f 75/4/3 70/4/3 74/4/3
f 75/1/3 71/1/3 70/1/3
f 76/1/3 72/1/3 75/1/3
f 77/4/3 74/4/3 68/4/3
f 78/4/3 74/4/3 77/4/3
f 79/4/4 80/4/4 81/4/4
f 79/4/4 81/4/4 88/4/4
f 81/4/4 82/4/4 88/4/4
f 88/4/4 82/4/4 89/4/4
f 82/1/4 83/1/4 90/1/4
f 89/4/4 82/4/4 90/4/4
f 90/1/4 83/1/4 91/1/4
f 91/1/4 83/1/4 92/1/4
f 84/4/4 85/4/4 94/4/4
f 85/3/4 86/3/4 95/3/4
f 94/4/4 85/4/4 95/4/4
f 86/2/4 87/2/4 96/2/4
f 95/3/4 86/3/4 96/3/4
f 87/3/4 88/3/4 97/3/4
f 96/2/4 87/2/4 97/2/4
f 88/4/4 89/4/4 98/4/4
f 97/3/4 88/3/4 98/3/4
f 89/5/4 90/5/4 99/5/4
f 98/4/4 89/4/4 99/4/4
f 90/5/4 91/5/4 99/5/4
f 99/5/4 91/5/4 100/5/4
f 92/1/4 93/1/4 101/1/4
f 100/5/4 91/5/4 101/5/4
f 91/1/4 92/1/4 101/1/4
f 101/1/4 93/1/4 102/1/4
f 102/1/4 93/1/4 103/1/4
f 99/4/4 100/4/4 104/4/4
f 98/4/4 99/4/4 104/4/4
f 101/1/4 102/1/4 105/1/4
f 104/4/4 100/4/4 105/4/4
f 100/1/4 101/1/4 105/1/4
f 105/1/4 102/1/4 106/1/4
f 98/4/4 104/4/4 107/4/4
f 107/4/4 104/4/4 108/4/4
f 111/4/5 110/4/5 109/4/5
f 112/4/5 110/4/5 111/4/5
f 117/4/5 114/4/5 113/4/5
f 118/4/5 114/4/5 117/4/5
f 119/4/5 116/4/5 115/4/5
f 120/4/5 116/4/5 119/4/5
f 121/4/6 122/4/6 125/4/6
f 125/4/6 122/4/6 126/4/6
f 123/4/6 124/4/6 127/4/6
f 127/4/6 124/4/6 128/4/6
f 129/1/6 130/1/6 133/1/6
f 133/1/6 130/1/6 134/1/6
f 131/1/6 132/1/6 135/1/6
f 135/1/6 132/1/6 136/1/6
f 137/1/6 138/1/6 139/1/6
f 139/1/6 138/1/6 140/1/6
