# MagicaVoxel @ ephtracy

# material
mtllib Halberd.mtl
usemtl palette

# normals
vn -1 0 0
vn 1 0 0
vn 0 0 1
vn 0 0 -1
vn 0 -1 0
vn 0 1 0

# texcoords
vt 0.373047 0.5
vt 0.841797 0.5
vt 0.966797 0.5
vt 0.970703 0.5
vt 0.982422 0.5

# verts
v -0.692 4.844 0.0865
v -0.692 4.844 -0.0865
v -0.692 5.017 0.0865
v -0.692 5.017 -0.0865
v -0.346 0 0.0865
v -0.346 0 -0.0865
v -0.346 4.152 0.0865
v -0.346 4.152 -0.0865
v -0.346 4.498 0.0865
v -0.346 4.498 -0.0865
v -0.346 4.844 0.0865
v -0.346 4.844 -0.0865
v -0.346 5.017 0.0865
v -0.346 5.017 -0.0865
v -0.346 5.536 0.0865
v -0.346 5.536 -0.0865
v 0 4.152 0.0865
v 0 4.152 -0.0865
v 0 4.671 0.0865
v 0 4.671 -0.0865
v 0 5.017 0.0865
v 0 5.017 -0.0865
v 0 5.19 0.0865
v 0 5.19 -0.0865
v 0.173 3.806 0.0865
v 0.173 3.806 -0.0865
v 0.173 4.152 0.0865
v 0.173 4.152 -0.0865
v 0.173 5.19 0.0865
v 0.173 5.19 -0.0865
v 0.173 5.536 0.0865
v 0.173 5.536 -0.0865
v -0.173 0 0.0865
v -0.173 0 -0.0865
v -0.173 4.152 0.0865
v -0.173 4.152 -0.0865
v -0.173 4.498 0.0865
v -0.173 4.498 -0.0865
v -0.173 4.671 0.0865
v -0.173 4.671 -0.0865
v -0.173 5.017 0.0865
v -0.173 5.017 -0.0865
v -0.173 5.536 0.0865
v -0.173 5.536 -0.0865
v 0.346 3.806 0.0865
v 0.346 3.806 -0.0865
v 0.346 4.152 0.0865
v 0.346 4.152 -0.0865
v 0.346 5.19 0.0865
v 0.346 5.19 -0.0865
v 0.346 5.536 0.0865
v 0.346 5.536 -0.0865
v 0.519 4.152 0.0865
v 0.519 4.152 -0.0865
v 0.519 4.498 0.0865
v 0.519 4.498 -0.0865
v 0.519 5.017 0.0865
v 0.519 5.017 -0.0865
v 0.519 5.19 0.0865
v 0.519 5.19 -0.0865
v 0.692 4.498 0.0865
v 0.692 4.498 -0.0865
v 0.692 5.017 0.0865
v 0.692 5.017 -0.0865
v -0.692 4.844 0.0865
v -0.692 5.017 0.0865
v -0.346 0 0.0865
v -0.346 4.152 0.0865
v -0.346 4.498 0.0865
v -0.346 4.844 0.0865
v -0.346 5.017 0.0865
v -0.346 5.536 0.0865
v -0.173 0 0.0865
v -0.173 4.152 0.0865
v -0.173 4.498 0.0865
v -0.173 4.671 0.0865
v -0.173 5.017 0.0865
v -0.173 5.536 0.0865
v 0 4.152 0.0865
v 0 4.671 0.0865
v 0 5.017 0.0865
v 0 5.19 0.0865
v 0.173 3.806 0.0865
v 0.173 4.152 0.0865
v 0.173 5.19 0.0865
v 0.173 5.536 0.0865
v 0.346 3.806 0.0865
v 0.346 4.152 0.0865
v 0.346 4.498 0.0865
v 0.346 5.017 0.0865
v 0.346 5.19 0.0865
v 0.346 5.536 0.0865
v 0.519 4.152 0.0865
v 0.519 4.498 0.0865
v 0.519 5.017 0.0865
v 0.519 5.19 0.0865
v 0.692 4.498 0.0865
v 0.692 5.017 0.0865
v -0.692 4.844 -0.0865
v -0.692 5.017 -0.0865
v -0.346 0 -0.0865
v -0.346 4.152 -0.0865
v -0.346 4.498 -0.0865
v -0.346 4.844 -0.0865
v -0.346 5.017 -0.0865
v -0.346 5.536 -0.0865
v -0.173 0 -0.0865
v -0.173 4.152 -0.0865
v -0.173 4.498 -0.0865
v -0.173 4.671 -0.0865
v -0.173 5.017 -0.0865
v -0.173 5.536 -0.0865
v 0 4.152 -0.0865
v 0 4.671 -0.0865
v 0 5.017 -0.0865
v 0 5.19 -0.0865
v 0.173 3.806 -0.0865
v 0.173 4.152 -0.0865
v 0.173 5.19 -0.0865
v 0.173 5.536 -0.0865
v 0.346 3.806 -0.0865
v 0.346 4.152 -0.0865
v 0.346 4.498 -0.0865
v 0.346 5.017 -0.0865
v 0.346 5.19 -0.0865
v 0.346 5.536 -0.0865
v 0.519 4.152 -0.0865
v 0.519 4.498 -0.0865
v 0.519 5.017 -0.0865
v 0.519 5.19 -0.0865
v 0.692 4.498 -0.0865
v 0.692 5.017 -0.0865
v -0.346 0 0.0865
v -0.173 0 0.0865
v -0.346 0 -0.0865
v -0.173 0 -0.0865
v 0.173 3.806 0.0865
v 0.346 3.806 0.0865
v 0.173 3.806 -0.0865
v 0.346 3.806 -0.0865
v 0 4.152 0.0865
v 0.173 4.152 0.0865
v 0.346 4.152 0.0865
v 0.519 4.152 0.0865
v 0 4.152 -0.0865
v 0.173 4.152 -0.0865
v 0.346 4.152 -0.0865
v 0.519 4.152 -0.0865
v 0.519 4.498 0.0865
v 0.692 4.498 0.0865
v 0.519 4.498 -0.0865
v 0.692 4.498 -0.0865
v -0.173 4.671 0.0865
v 0 4.671 0.0865
v -0.173 4.671 -0.0865
v 0 4.671 -0.0865
v -0.692 4.844 0.0865
v -0.346 4.844 0.0865
v -0.692 4.844 -0.0865
v -0.346 4.844 -0.0865
v -0.692 5.017 0.0865
v -0.346 5.017 0.0865
v -0.173 5.017 0.0865
v 0 5.017 0.0865
v 0.519 5.017 0.0865
v 0.692 5.017 0.0865
v -0.692 5.017 -0.0865
v -0.346 5.017 -0.0865
v -0.173 5.017 -0.0865
v 0 5.017 -0.0865
v 0.519 5.017 -0.0865
v 0.692 5.017 -0.0865
v 0 5.19 0.0865
v 0.173 5.19 0.0865
v 0.346 5.19 0.0865
v 0.519 5.19 0.0865
v 0 5.19 -0.0865
v 0.173 5.19 -0.0865
v 0.346 5.19 -0.0865
v 0.519 5.19 -0.0865
v -0.346 5.536 0.0865
v -0.173 5.536 0.0865
v 0.173 5.536 0.0865
v 0.346 5.536 0.0865
v -0.346 5.536 -0.0865
v -0.173 5.536 -0.0865
v 0.173 5.536 -0.0865
v 0.346 5.536 -0.0865

# faces
f 3/5/1 2/5/1 1/5/1
f 4/5/1 2/5/1 3/5/1
f 7/1/1 6/1/1 5/1/1
f 8/1/1 6/1/1 7/1/1
f 9/2/1 8/2/1 7/2/1
f 10/2/1 8/2/1 9/2/1
f 11/5/1 10/5/1 9/5/1
f 12/5/1 10/5/1 11/5/1
f 15/5/1 14/5/1 13/5/1
f 16/5/1 14/5/1 15/5/1
f 19/5/1 18/5/1 17/5/1
f 20/5/1 18/5/1 19/5/1
f 23/5/1 22/5/1 21/5/1
f 24/5/1 22/5/1 23/5/1
f 27/4/1 26/4/1 25/4/1
f 28/4/1 26/4/1 27/4/1
f 31/4/1 30/4/1 29/4/1
f 32/4/1 30/4/1 31/4/1
f 33/1/2 34/1/2 35/1/2
f 35/1/2 34/1/2 36/1/2
f 35/2/2 36/2/2 37/2/2
f 37/2/2 36/2/2 38/2/2
f 37/5/2 38/5/2 39/5/2
f 39/5/2 38/5/2 40/5/2
f 41/5/2 42/5/2 43/5/2
f 43/5/2 42/5/2 44/5/2
f 45/4/2 46/4/2 47/4/2
f 47/4/2 46/4/2 48/4/2
f 49/4/2 50/4/2 51/4/2
f 51/4/2 50/4/2 52/4/2
f 53/4/2 54/4/2 55/4/2
f 55/4/2 54/4/2 56/4/2
f 57/4/2 58/4/2 59/4/2
f 59/4/2 58/4/2 60/4/2
f 61/4/2 62/4/2 63/4/2
f 63/4/2 62/4/2 64/4/2
f 70/5/3 66/5/3 65/5/3
f 71/5/3 66/5/3 70/5/3
f 73/1/3 68/1/3 67/1/3
f 74/2/3 69/2/3 68/2/3
f 74/1/3 68/1/3 73/1/3
f 75/5/3 72/5/3 71/5/3
f 75/2/3 69/2/3 74/2/3
f 75/5/3 70/5/3 69/5/3
f 75/5/3 71/5/3 70/5/3
f 76/5/3 72/5/3 75/5/3
f 77/5/3 72/5/3 76/5/3
f 78/5/3 72/5/3 77/5/3
f 80/3/3 77/3/3 76/3/3
f 81/3/3 77/3/3 80/3/3
f 84/5/3 80/5/3 79/5/3
f 84/5/3 82/5/3 81/5/3
f 84/5/3 81/5/3 80/5/3
f 85/5/3 82/5/3 84/5/3
f 87/4/3 84/4/3 83/4/3
f 88/5/3 85/5/3 84/5/3
f 88/4/3 84/4/3 87/4/3
f 89/5/3 85/5/3 88/5/3
f 90/5/3 85/5/3 89/5/3
f 91/4/3 86/4/3 85/4/3
f 91/5/3 85/5/3 90/5/3
f 92/4/3 86/4/3 91/4/3
f 93/4/3 89/4/3 88/4/3
f 94/5/3 90/5/3 89/5/3
f 94/4/3 89/4/3 93/4/3
f 95/4/3 91/4/3 90/4/3
f 95/5/3 90/5/3 94/5/3
f 96/4/3 91/4/3 95/4/3
f 97/4/3 95/4/3 94/4/3
f 98/4/3 95/4/3 97/4/3
f 99/5/4 100/5/4 104/5/4
f 104/5/4 100/5/4 105/5/4
f 101/1/4 102/1/4 107/1/4
f 102/2/4 103/2/4 108/2/4
f 107/1/4 102/1/4 108/1/4
f 105/5/4 106/5/4 109/5/4
f 108/2/4 103/2/4 109/2/4
f 103/5/4 104/5/4 109/5/4
f 104/5/4 105/5/4 109/5/4
f 109/5/4 106/5/4 110/5/4
f 110/5/4 106/5/4 111/5/4
f 111/5/4 106/5/4 112/5/4
f 110/3/4 111/3/4 114/3/4
f 114/3/4 111/3/4 115/3/4
f 113/5/4 114/5/4 118/5/4
f 115/5/4 116/5/4 118/5/4
f 114/5/4 115/5/4 118/5/4
f 118/5/4 116/5/4 119/5/4
f 117/4/4 118/4/4 121/4/4
f 118/5/4 119/5/4 122/5/4
f 121/4/4 118/4/4 122/4/4
f 122/5/4 119/5/4 123/5/4
f 123/5/4 119/5/4 124/5/4
f 119/4/4 120/4/4 125/4/4
f 124/5/4 119/5/4 125/5/4
f 125/4/4 120/4/4 126/4/4
f 122/4/4 123/4/4 127/4/4
f 123/5/4 124/5/4 128/5/4
f 127/4/4 123/4/4 128/4/4
f 124/4/4 125/4/4 129/4/4
f 128/5/4 124/5/4 129/5/4
f 129/4/4 125/4/4 130/4/4
f 128/4/4 129/4/4 131/4/4
f 131/4/4 129/4/4 132/4/4
f 135/1/5 134/1/5 133/1/5
f 136/1/5 134/1/5 135/1/5
f 139/4/5 138/4/5 137/4/5
f 140/4/5 138/4/5 139/4/5
f 145/5/5 142/5/5 141/5/5
f 146/5/5 142/5/5 145/5/5
f 147/4/5 144/4/5 143/4/5
f 148/4/5 144/4/5 147/4/5
f 151/4/5 150/4/5 149/4/5
f 152/4/5 150/4/5 151/4/5
f 155/3/5 154/3/5 153/3/5
f 156/3/5 154/3/5 155/3/5
f 159/5/5 158/5/5 157/5/5
f 160/5/5 158/5/5 159/5/5
f 161/5/6 162/5/6 167/5/6
f 167/5/6 162/5/6 168/5/6
f 163/3/6 164/3/6 169/3/6
f 169/3/6 164/3/6 170/3/6
f 165/4/6 166/4/6 171/4/6
f 171/4/6 166/4/6 172/4/6
f 173/5/6 174/5/6 177/5/6
f 177/5/6 174/5/6 178/5/6
f 175/4/6 176/4/6 179/4/6
f 179/4/6 176/4/6 180/4/6
f 181/5/6 182/5/6 185/5/6
f 185/5/6 182/5/6 186/5/6
f 183/4/6 184/4/6 187/4/6
f 187/4/6 184/4/6 188/4/6
