# MagicaVoxel @ ephtracy

# material
mtllib short_sword.mtl
usemtl palette

# normals
vn -1 0 0
vn 1 0 0
vn 0 0 1
vn 0 0 -1
vn 0 -1 0
vn 0 1 0

# texcoords
vt 0.00195313 0.5
vt 0.0214844 0.5

# verts
v -0.2595 0.346 0.0865
v -0.2595 0.346 -0.0865
v -0.2595 0.519 0.0865
v -0.2595 0.519 -0.0865
v -0.0865 0 0.0865
v -0.0865 0 -0.0865
v -0.0865 0.346 0.0865
v -0.0865 0.346 -0.0865
v -0.0865 0.519 0.0865
v -0.0865 0.519 -0.0865
v -0.0865 1.557 0.0865
v -0.0865 1.557 -0.0865
v 0.0865 0 0.0865
v 0.0865 0 -0.0865
v 0.0865 0.346 0.0865
v 0.0865 0.346 -0.0865
v 0.0865 0.519 0.0865
v 0.0865 0.519 -0.0865
v 0.0865 1.557 0.0865
v 0.0865 1.557 -0.0865
v 0.2595 0.346 0.0865
v 0.2595 0.346 -0.0865
v 0.2595 0.519 0.0865
v 0.2595 0.519 -0.0865
v -0.2595 0.346 0.0865
v -0.2595 0.519 0.0865
v -0.0865 0 0.0865
v -0.0865 0.346 0.0865
v -0.0865 0.519 0.0865
v -0.0865 1.557 0.0865
v 0.0865 0 0.0865
v 0.0865 0.346 0.0865
v 0.0865 0.519 0.0865
v 0.0865 1.557 0.0865
v 0.2595 0.346 0.0865
v 0.2595 0.519 0.0865
v -0.2595 0.346 -0.0865
v -0.2595 0.519 -0.0865
v -0.0865 0 -0.0865
v -0.0865 0.346 -0.0865
v -0.0865 0.519 -0.0865
v -0.0865 1.557 -0.0865
v 0.0865 0 -0.0865
v 0.0865 0.346 -0.0865
v 0.0865 0.519 -0.0865
v 0.0865 1.557 -0.0865
v 0.2595 0.346 -0.0865
v 0.2595 0.519 -0.0865
v -0.0865 0 0.0865
v 0.0865 0 0.0865
v -0.0865 0 -0.0865
v 0.0865 0 -0.0865
v -0.2595 0.346 0.0865
v -0.0865 0.346 0.0865
v 0.0865 0.346 0.0865
v 0.2595 0.346 0.0865
v -0.2595 0.346 -0.0865
v -0.0865 0.346 -0.0865
v 0.0865 0.346 -0.0865
v 0.2595 0.346 -0.0865
v -0.2595 0.519 0.0865
v -0.0865 0.519 0.0865
v 0.0865 0.519 0.0865
v 0.2595 0.519 0.0865
v -0.2595 0.519 -0.0865
v -0.0865 0.519 -0.0865
v 0.0865 0.519 -0.0865
v 0.2595 0.519 -0.0865
v -0.0865 1.557 0.0865
v 0.0865 1.557 0.0865
v -0.0865 1.557 -0.0865
v 0.0865 1.557 -0.0865

# faces
f 3/2/1 2/2/1 1/2/1
f 4/2/1 2/2/1 3/2/1
f 7/2/1 6/2/1 5/2/1
f 8/2/1 6/2/1 7/2/1
f 11/1/1 10/1/1 9/1/1
f 12/1/1 10/1/1 11/1/1
f 13/2/2 14/2/2 15/2/2
f 15/2/2 14/2/2 16/2/2
f 17/1/2 18/1/2 19/1/2
f 19/1/2 18/1/2 20/1/2
f 21/2/2 22/2/2 23/2/2
f 23/2/2 22/2/2 24/2/2
f 28/2/3 26/2/3 25/2/3
f 29/2/3 26/2/3 28/2/3
f 31/2/3 28/2/3 27/2/3
f 31/2/3 29/2/3 28/2/3
f 32/2/3 29/2/3 31/2/3
f 33/1/3 30/1/3 29/1/3
f 33/2/3 29/2/3 32/2/3
f 34/1/3 30/1/3 33/1/3
f 35/2/3 33/2/3 32/2/3
f 36/2/3 33/2/3 35/2/3
f 37/2/4 38/2/4 40/2/4
f 40/2/4 38/2/4 41/2/4
f 39/2/4 40/2/4 43/2/4
f 40/2/4 41/2/4 43/2/4
f 43/2/4 41/2/4 44/2/4
f 41/1/4 42/1/4 45/1/4
f 44/2/4 41/2/4 45/2/4
f 45/1/4 42/1/4 46/1/4
f 44/2/4 45/2/4 47/2/4
f 47/2/4 45/2/4 48/2/4
f 51/2/5 50/2/5 49/2/5
f 52/2/5 50/2/5 51/2/5
f 57/2/5 54/2/5 53/2/5
f 58/2/5 54/2/5 57/2/5
f 59/2/5 56/2/5 55/2/5
f 60/2/5 56/2/5 59/2/5
f 61/2/6 62/2/6 65/2/6
f 65/2/6 62/2/6 66/2/6
f 63/2/6 64/2/6 67/2/6
f 67/2/6 64/2/6 68/2/6
f 69/1/6 70/1/6 71/1/6
f 71/1/6 70/1/6 72/1/6
