# MagicaVoxel @ ephtracy

# material
mtllib wand.mtl
usemtl palette

# normals
vn -1 0 0
vn 1 0 0
vn 0 0 1
vn 0 0 -1
vn 0 -1 0
vn 0 1 0

# texcoords
vt 0.0839844 0.5
vt 0.115234 0.5
vt 0.537109 0.5
vt 0.701172 0.5
vt 0.873047 0.5
vt 0.958984 0.5

# verts
v -0.7785 2.249 0.0865
v -0.7785 2.249 -0.0865
v -0.7785 2.422 0.0865
v -0.7785 2.422 -0.0865
v -0.6055 2.076 0.2595
v -0.6055 2.076 -0.2595
v -0.6055 2.249 0.2595
v -0.6055 2.249 0.0865
v -0.6055 2.249 -0.0865
v -0.6055 2.249 -0.2595
v -0.6055 2.422 0.0865
v -0.6055 2.422 -0.0865
v -0.6055 2.595 0.2595
v -0.6055 2.595 -0.2595
v -0.4325 1.903 0.0865
v -0.4325 1.903 -0.0865
v -0.4325 2.076 0.0865
v -0.4325 2.076 -0.0865
v -0.4325 2.595 0.2595
v -0.4325 2.595 0.0865
v -0.4325 2.595 -0.0865
v -0.4325 2.595 -0.2595
v -0.4325 2.768 0.2595
v -0.4325 2.768 0.0865
v -0.4325 2.768 -0.0865
v -0.4325 2.768 -0.2595
v -0.2595 1.038 0.0865
v -0.2595 1.038 -0.0865
v -0.2595 1.73 0.0865
v -0.2595 1.73 -0.0865
v -0.0865 0 0.0865
v -0.0865 0 -0.0865
v -0.0865 0.173 0.0865
v -0.0865 0.173 -0.0865
v -0.0865 0.346 0.0865
v -0.0865 0.346 -0.0865
v -0.0865 0.519 0.0865
v -0.0865 0.519 -0.0865
v -0.0865 0.692 0.0865
v -0.0865 0.692 -0.0865
v -0.0865 1.038 0.0865
v -0.0865 1.038 -0.0865
v -0.0865 1.73 0.0865
v -0.0865 1.73 -0.0865
v -0.0865 2.076 0.2595
v -0.0865 2.076 0.0865
v -0.0865 2.076 -0.0865
v -0.0865 2.076 -0.2595
v -0.0865 2.249 0.2595
v -0.0865 2.249 0.0865
v -0.0865 2.249 -0.0865
v -0.0865 2.249 -0.2595
v -0.4325 2.076 0.2595
v -0.4325 2.076 0.0865
v -0.4325 2.076 -0.0865
v -0.4325 2.076 -0.2595
v -0.4325 2.249 0.2595
v -0.4325 2.249 0.0865
v -0.4325 2.249 -0.0865
v -0.4325 2.249 -0.2595
v -0.2595 1.903 0.0865
v -0.2595 1.903 -0.0865
v -0.2595 2.249 0.0865
v -0.2595 2.249 -0.0865
v 0.0865 0 0.0865
v 0.0865 0 -0.0865
v 0.0865 0.173 0.0865
v 0.0865 0.173 -0.0865
v 0.0865 0.346 0.0865
v 0.0865 0.346 -0.0865
v 0.0865 0.519 0.0865
v 0.0865 0.519 -0.0865
v 0.0865 0.692 0.0865
v 0.0865 0.692 -0.0865
v 0.0865 1.038 0.0865
v 0.0865 1.038 -0.0865
v 0.0865 1.557 0.0865
v 0.0865 1.557 -0.0865
v 0.0865 2.076 -0.0865
v 0.0865 2.076 -0.2595
v 0.0865 2.249 -0.0865
v 0.0865 2.249 -0.2595
v 0.0865 2.595 0.2595
v 0.0865 2.595 0.0865
v 0.0865 2.595 -0.0865
v 0.0865 2.595 -0.2595
v 0.0865 2.768 0.2595
v 0.0865 2.768 0.0865
v 0.0865 2.768 -0.0865
v 0.0865 2.768 -0.2595
v 0.2595 1.557 0.0865
v 0.2595 1.557 -0.0865
v 0.2595 1.903 0.0865
v 0.2595 1.903 -0.0865
v 0.2595 2.076 0.2595
v 0.2595 2.076 0.0865
v 0.2595 2.249 -0.0865
v 0.2595 2.249 -0.2595
v 0.2595 2.595 0.2595
v 0.2595 2.595 0.0865
v 0.2595 2.595 -0.0865
v 0.2595 2.595 -0.2595
v 0.2595 2.768 0.0865
v 0.2595 2.768 -0.0865
v 0.4325 1.903 0.0865
v 0.4325 1.903 -0.0865
v 0.4325 2.595 0.0865
v 0.4325 2.595 -0.0865
v -0.6055 2.076 0.2595
v -0.6055 2.249 0.2595
v -0.6055 2.595 0.2595
v -0.4325 2.076 0.2595
v -0.4325 2.249 0.2595
v -0.4325 2.422 0.2595
v -0.4325 2.595 0.2595
v -0.4325 2.768 0.2595
v -0.2595 2.595 0.2595
v -0.2595 2.768 0.2595
v -0.0865 2.076 0.2595
v -0.0865 2.249 0.2595
v -0.0865 2.422 0.2595
v -0.0865 2.595 0.2595
v -0.0865 2.768 0.2595
v 0.0865 2.249 0.2595
v 0.0865 2.595 0.2595
v 0.0865 2.768 0.2595
v 0.2595 2.076 0.2595
v 0.2595 2.595 0.2595
v -0.7785 2.249 0.0865
v -0.7785 2.422 0.0865
v -0.6055 2.249 0.0865
v -0.6055 2.422 0.0865
v -0.4325 1.903 0.0865
v -0.4325 2.076 0.0865
v -0.4325 2.249 0.0865
v -0.2595 1.038 0.0865
v -0.2595 1.73 0.0865
v -0.2595 1.903 0.0865
v -0.2595 2.249 0.0865
v -0.0865 0 0.0865
v -0.0865 0.173 0.0865
v -0.0865 0.346 0.0865
v -0.0865 0.519 0.0865
v -0.0865 0.692 0.0865
v -0.0865 1.038 0.0865
v -0.0865 1.557 0.0865
v -0.0865 1.73 0.0865
v -0.0865 2.076 0.0865
v 0.0865 0 0.0865
v 0.0865 0.173 0.0865
v 0.0865 0.346 0.0865
v 0.0865 0.519 0.0865
v 0.0865 0.692 0.0865
v 0.0865 1.038 0.0865
v 0.0865 1.557 0.0865
v 0.0865 2.076 0.0865
v 0.0865 2.595 0.0865
v 0.0865 2.768 0.0865
v 0.2595 1.557 0.0865
v 0.2595 1.903 0.0865
v 0.2595 2.076 0.0865
v 0.2595 2.595 0.0865
v 0.2595 2.768 0.0865
v 0.4325 1.903 0.0865
v 0.4325 2.595 0.0865
v -0.7785 2.249 -0.0865
v -0.7785 2.422 -0.0865
v -0.6055 2.249 -0.0865
v -0.6055 2.422 -0.0865
v -0.4325 1.903 -0.0865
v -0.4325 2.076 -0.0865
v -0.4325 2.249 -0.0865
v -0.2595 1.038 -0.0865
v -0.2595 1.73 -0.0865
v -0.2595 1.903 -0.0865
v -0.2595 2.249 -0.0865
v -0.0865 0 -0.0865
v -0.0865 0.173 -0.0865
v -0.0865 0.346 -0.0865
v -0.0865 0.519 -0.0865
v -0.0865 0.692 -0.0865
v -0.0865 1.038 -0.0865
v -0.0865 1.557 -0.0865
v -0.0865 1.73 -0.0865
v -0.0865 2.076 -0.0865
v 0.0865 0 -0.0865
v 0.0865 0.173 -0.0865
v 0.0865 0.346 -0.0865
v 0.0865 0.519 -0.0865
v 0.0865 0.692 -0.0865
v 0.0865 1.038 -0.0865
v 0.0865 1.557 -0.0865
v 0.0865 2.076 -0.0865
v 0.0865 2.249 -0.0865
v 0.0865 2.595 -0.0865
v 0.0865 2.768 -0.0865
v 0.2595 1.557 -0.0865
v 0.2595 1.903 -0.0865
v 0.2595 2.249 -0.0865
v 0.2595 2.595 -0.0865
v 0.2595 2.768 -0.0865
v 0.4325 1.903 -0.0865
v 0.4325 2.595 -0.0865
v -0.6055 2.076 -0.2595
v -0.6055 2.249 -0.2595
v -0.6055 2.595 -0.2595
v -0.4325 2.076 -0.2595
v -0.4325 2.249 -0.2595
v -0.4325 2.422 -0.2595
v -0.4325 2.595 -0.2595
v -0.4325 2.768 -0.2595
v -0.0865 2.076 -0.2595
v -0.0865 2.249 -0.2595
v -0.0865 2.422 -0.2595
v -0.0865 2.768 -0.2595
v 0.0865 2.076 -0.2595
v 0.0865 2.249 -0.2595
v 0.0865 2.595 -0.2595
v 0.0865 2.768 -0.2595
v 0.2595 2.249 -0.2595
v 0.2595 2.595 -0.2595
v -0.0865 0 0.0865
v 0.0865 0 0.0865
v -0.0865 0 -0.0865
v 0.0865 0 -0.0865
v -0.2595 1.038 0.0865
v -0.0865 1.038 0.0865
v -0.2595 1.038 -0.0865
v -0.0865 1.038 -0.0865
v 0.0865 1.557 0.0865
v 0.2595 1.557 0.0865
v 0.0865 1.557 -0.0865
v 0.2595 1.557 -0.0865
v -0.4325 1.903 0.0865
v -0.2595 1.903 0.0865
v 0.2595 1.903 0.0865
v 0.4325 1.903 0.0865
v -0.4325 1.903 -0.0865
v -0.2595 1.903 -0.0865
v 0.2595 1.903 -0.0865
v 0.4325 1.903 -0.0865
v -0.6055 2.076 0.2595
v -0.4325 2.076 0.2595
v -0.0865 2.076 0.2595
v 0.2595 2.076 0.2595
v -0.4325 2.076 0.0865
v -0.0865 2.076 0.0865
v 0.0865 2.076 0.0865
v 0.2595 2.076 0.0865
v -0.4325 2.076 -0.0865
v -0.0865 2.076 -0.0865
v 0.0865 2.076 -0.0865
v -0.6055 2.076 -0.2595
v -0.4325 2.076 -0.2595
v -0.0865 2.076 -0.2595
v 0.0865 2.076 -0.2595
v -0.4325 2.249 0.2595
v -0.0865 2.249 0.2595
v -0.7785 2.249 0.0865
v -0.6055 2.249 0.0865
v -0.4325 2.249 0.0865
v -0.2595 2.249 0.0865
v -0.0865 2.249 0.0865
v -0.7785 2.249 -0.0865
v -0.6055 2.249 -0.0865
v -0.4325 2.249 -0.0865
v -0.2595 2.249 -0.0865
v -0.0865 2.249 -0.0865
v 0.0865 2.249 -0.0865
v 0.2595 2.249 -0.0865
v -0.4325 2.249 -0.2595
v -0.0865 2.249 -0.2595
v 0.0865 2.249 -0.2595
v 0.2595 2.249 -0.2595
v -0.2595 1.73 0.0865
v -0.0865 1.73 0.0865
v -0.2595 1.73 -0.0865
v -0.0865 1.73 -0.0865
v -0.7785 2.422 0.0865
v -0.6055 2.422 0.0865
v -0.7785 2.422 -0.0865
v -0.6055 2.422 -0.0865
v -0.6055 2.595 0.2595
v -0.4325 2.595 0.2595
v 0.0865 2.595 0.2595
v 0.2595 2.595 0.2595
v -0.4325 2.595 0.0865
v 0.0865 2.595 0.0865
v 0.2595 2.595 0.0865
v 0.4325 2.595 0.0865
v -0.4325 2.595 -0.0865
v 0.0865 2.595 -0.0865
v 0.2595 2.595 -0.0865
v 0.4325 2.595 -0.0865
v -0.6055 2.595 -0.2595
v -0.4325 2.595 -0.2595
v 0.0865 2.595 -0.2595
v 0.2595 2.595 -0.2595
v -0.4325 2.768 0.2595
v -0.2595 2.768 0.2595
v -0.0865 2.768 0.2595
v 0.0865 2.768 0.2595
v -0.4325 2.768 0.0865
v -0.2595 2.768 0.0865
v 0.0865 2.768 0.0865
v 0.2595 2.768 0.0865
v -0.4325 2.768 -0.0865
v -0.0865 2.768 -0.0865
v 0.0865 2.768 -0.0865
v 0.2595 2.768 -0.0865
v -0.4325 2.768 -0.2595
v -0.0865 2.768 -0.2595
v 0.0865 2.768 -0.2595

# faces
f 3/3/1 2/3/1 1/3/1
f 4/3/1 2/3/1 3/3/1
f 7/3/1 6/3/1 5/3/1
f 8/3/1 6/3/1 7/3/1
f 9/3/1 6/3/1 8/3/1
f 10/3/1 6/3/1 9/3/1
f 11/5/1 8/5/1 7/5/1
f 12/5/1 10/5/1 9/5/1
f 13/5/1 11/5/1 7/5/1
f 13/5/1 12/5/1 11/5/1
f 14/5/1 10/5/1 12/5/1
f 14/5/1 12/5/1 13/5/1
f 17/3/1 16/3/1 15/3/1
f 18/3/1 16/3/1 17/3/1
f 23/6/1 20/6/1 19/6/1
f 24/1/1 21/1/1 20/1/1
f 24/6/1 20/6/1 23/6/1
f 25/2/1 22/2/1 21/2/1
f 25/1/1 21/1/1 24/1/1
f 26/2/1 22/2/1 25/2/1
f 29/3/1 28/3/1 27/3/1
f 30/3/1 28/3/1 29/3/1
f 33/5/1 32/5/1 31/5/1
f 34/5/1 32/5/1 33/5/1
f 35/4/1 34/4/1 33/4/1
f 36/4/1 34/4/1 35/4/1
f 37/5/1 36/5/1 35/5/1
f 38/5/1 36/5/1 37/5/1
f 39/4/1 38/4/1 37/4/1
f 40/4/1 38/4/1 39/4/1
f 41/3/1 40/3/1 39/3/1
f 42/3/1 40/3/1 41/3/1
f 46/3/1 44/3/1 43/3/1
f 47/3/1 44/3/1 46/3/1
f 49/3/1 47/3/1 46/3/1
f 49/3/1 48/3/1 47/3/1
f 49/3/1 46/3/1 45/3/1
f 50/3/1 48/3/1 49/3/1
f 51/3/1 48/3/1 50/3/1
f 52/3/1 48/3/1 51/3/1
f 53/3/2 54/3/2 57/3/2
f 57/3/2 54/3/2 58/3/2
f 55/3/2 56/3/2 59/3/2
f 59/3/2 56/3/2 60/3/2
f 61/3/2 62/3/2 63/3/2
f 63/3/2 62/3/2 64/3/2
f 65/5/2 66/5/2 67/5/2
f 67/5/2 66/5/2 68/5/2
f 67/4/2 68/4/2 69/4/2
f 69/4/2 68/4/2 70/4/2
f 69/5/2 70/5/2 71/5/2
f 71/5/2 70/5/2 72/5/2
f 71/4/2 72/4/2 73/4/2
f 73/4/2 72/4/2 74/4/2
f 73/3/2 74/3/2 75/3/2
f 75/3/2 74/3/2 76/3/2
f 75/5/2 76/5/2 77/5/2
f 77/5/2 76/5/2 78/5/2
f 79/3/2 80/3/2 81/3/2
f 81/3/2 80/3/2 82/3/2
f 83/5/2 84/5/2 87/5/2
f 87/5/2 84/5/2 88/5/2
f 85/5/2 86/5/2 89/5/2
f 89/5/2 86/5/2 90/5/2
f 91/5/2 92/5/2 93/5/2
f 93/5/2 92/5/2 94/5/2
f 95/3/2 96/3/2 99/3/2
f 99/3/2 96/3/2 100/3/2
f 97/3/2 98/3/2 101/3/2
f 101/3/2 98/3/2 102/3/2
f 100/3/2 101/3/2 103/3/2
f 103/3/2 101/3/2 104/3/2
f 105/5/2 106/5/2 107/5/2
f 107/5/2 106/5/2 108/5/2
f 112/3/3 110/3/3 109/3/3
f 113/5/3 111/5/3 110/5/3
f 113/3/3 110/3/3 112/3/3
f 114/5/3 111/5/3 113/5/3
f 115/5/3 111/5/3 114/5/3
f 117/6/3 116/6/3 115/6/3
f 117/2/3 115/2/3 114/2/3
f 118/6/3 116/6/3 117/6/3
f 120/5/3 114/5/3 113/5/3
f 121/2/3 117/2/3 114/2/3
f 121/5/3 114/5/3 120/5/3
f 122/1/3 118/1/3 117/1/3
f 122/2/3 117/2/3 121/2/3
f 123/1/3 118/1/3 122/1/3
f 124/3/3 120/3/3 119/3/3
f 124/5/3 121/5/3 120/5/3
f 124/5/3 123/5/3 122/5/3
f 124/5/3 122/5/3 121/5/3
f 125/5/3 123/5/3 124/5/3
f 126/5/3 123/5/3 125/5/3
f 127/3/3 124/3/3 119/3/3
f 127/3/3 125/3/3 124/3/3
f 128/3/3 125/3/3 127/3/3
f 131/3/3 130/3/3 129/3/3
f 132/3/3 130/3/3 131/3/3
f 138/3/3 134/3/3 133/3/3
f 138/3/3 135/3/3 134/3/3
f 139/3/3 135/3/3 138/3/3
f 145/3/3 137/3/3 136/3/3
f 146/3/3 137/3/3 145/3/3
f 147/3/3 137/3/3 146/3/3
f 149/5/3 141/5/3 140/5/3
f 150/4/3 142/4/3 141/4/3
f 150/5/3 141/5/3 149/5/3
f 151/5/3 143/5/3 142/5/3
f 151/4/3 142/4/3 150/4/3
f 152/4/3 144/4/3 143/4/3
f 152/5/3 143/5/3 151/5/3
f 153/3/3 145/3/3 144/3/3
f 153/4/3 144/4/3 152/4/3
f 154/5/3 146/5/3 145/5/3
f 154/3/3 145/3/3 153/3/3
f 155/3/3 148/3/3 147/3/3
f 155/5/3 146/5/3 154/5/3
f 155/3/3 147/3/3 146/3/3
f 156/3/3 148/3/3 155/3/3
f 159/5/3 156/5/3 155/5/3
f 160/5/3 156/5/3 159/5/3
f 161/5/3 156/5/3 160/5/3
f 162/3/3 158/3/3 157/3/3
f 163/3/3 158/3/3 162/3/3
f 164/5/3 161/5/3 160/5/3
f 164/5/3 162/5/3 161/5/3
f 165/5/3 162/5/3 164/5/3
f 166/3/4 167/3/4 168/3/4
f 168/3/4 167/3/4 169/3/4
f 170/3/4 171/3/4 175/3/4
f 171/3/4 172/3/4 175/3/4
f 175/3/4 172/3/4 176/3/4
f 173/3/4 174/3/4 182/3/4
f 182/3/4 174/3/4 183/3/4
f 183/3/4 174/3/4 184/3/4
f 177/5/4 178/5/4 186/5/4
f 178/4/4 179/4/4 187/4/4
f 186/5/4 178/5/4 187/5/4
f 179/5/4 180/5/4 188/5/4
f 187/4/4 179/4/4 188/4/4
f 180/4/4 181/4/4 189/4/4
f 188/5/4 180/5/4 189/5/4
f 181/3/4 182/3/4 190/3/4
f 189/4/4 181/4/4 190/4/4
f 182/5/4 183/5/4 191/5/4
f 190/3/4 182/3/4 191/3/4
f 184/3/4 185/3/4 192/3/4
f 191/5/4 183/5/4 192/5/4
f 183/3/4 184/3/4 192/3/4
f 192/3/4 185/3/4 193/3/4
f 193/5/4 194/5/4 197/5/4
f 192/5/4 193/5/4 197/5/4
f 197/5/4 194/5/4 198/5/4
f 198/5/4 194/5/4 199/5/4
f 195/3/4 196/3/4 200/3/4
f 200/3/4 196/3/4 201/3/4
f 198/5/4 199/5/4 202/5/4
f 199/5/4 200/5/4 202/5/4
f 202/5/4 200/5/4 203/5/4
f 204/3/4 205/3/4 207/3/4
f 205/5/4 206/5/4 208/5/4
f 207/3/4 205/3/4 208/3/4
f 208/5/4 206/5/4 209/5/4
f 209/5/4 206/5/4 210/5/4
f 208/5/4 209/5/4 213/5/4
f 210/2/4 211/2/4 214/2/4
f 209/2/4 210/2/4 214/2/4
f 213/5/4 209/5/4 214/5/4
f 214/2/4 211/2/4 215/2/4
f 212/3/4 213/3/4 216/3/4
f 213/5/4 214/5/4 217/5/4
f 216/3/4 213/3/4 217/3/4
f 214/5/4 215/5/4 217/5/4
f 217/5/4 215/5/4 218/5/4
f 218/5/4 215/5/4 219/5/4
f 217/3/4 218/3/4 220/3/4
f 220/3/4 218/3/4 221/3/4
f 224/5/5 223/5/5 222/5/5
f 225/5/5 223/5/5 224/5/5
f 228/3/5 227/3/5 226/3/5
f 229/3/5 227/3/5 228/3/5
f 232/5/5 231/5/5 230/5/5
f 233/5/5 231/5/5 232/5/5
f 238/3/5 235/3/5 234/3/5
f 239/3/5 235/3/5 238/3/5
f 240/5/5 237/5/5 236/5/5
f 241/5/5 237/5/5 240/5/5
f 246/3/5 243/3/5 242/3/5
f 247/3/5 245/3/5 244/3/5
f 248/3/5 245/3/5 247/3/5
f 249/3/5 245/3/5 248/3/5
f 250/3/5 246/3/5 242/3/5
f 253/3/5 250/3/5 242/3/5
f 254/3/5 250/3/5 253/3/5
f 255/3/5 252/3/5 251/3/5
f 256/3/5 252/3/5 255/3/5
f 261/5/5 258/5/5 257/5/5
f 262/5/5 258/5/5 261/5/5
f 263/5/5 258/5/5 262/5/5
f 264/3/5 260/3/5 259/3/5
f 265/3/5 260/3/5 264/3/5
f 267/3/5 263/3/5 262/3/5
f 268/3/5 263/3/5 267/3/5
f 271/5/5 268/5/5 267/5/5
f 271/5/5 267/5/5 266/5/5
f 272/5/5 268/5/5 271/5/5
f 273/3/5 270/3/5 269/3/5
f 274/3/5 270/3/5 273/3/5
f 275/3/6 276/3/6 277/3/6
f 277/3/6 276/3/6 278/3/6
f 279/3/6 280/3/6 281/3/6
f 281/3/6 280/3/6 282/3/6
f 283/5/6 284/5/6 287/5/6
f 285/3/6 286/3/6 288/3/6
f 288/3/6 286/3/6 289/3/6
f 283/5/6 287/5/6 291/5/6
f 289/5/6 290/5/6 293/5/6
f 293/5/6 290/5/6 294/5/6
f 283/5/6 291/5/6 295/5/6
f 295/5/6 291/5/6 296/5/6
f 292/3/6 293/3/6 297/3/6
f 297/3/6 293/3/6 298/3/6
f 299/6/6 300/6/6 303/6/6
f 300/1/6 301/1/6 304/1/6
f 303/6/6 300/6/6 304/6/6
f 301/5/6 302/5/6 305/5/6
f 303/1/6 304/1/6 307/1/6
f 304/1/6 301/1/6 308/1/6
f 307/1/6 304/1/6 308/1/6
f 301/5/6 305/5/6 308/5/6
f 305/3/6 306/3/6 309/3/6
f 308/5/6 305/5/6 309/5/6
f 309/3/6 306/3/6 310/3/6
f 307/2/6 308/2/6 311/2/6
f 308/5/6 309/5/6 312/5/6
f 311/2/6 308/2/6 312/2/6
f 312/5/6 309/5/6 313/5/6
