# MagicaVoxel @ ephtracy

# material
mtllib Wing_staff.mtl
usemtl palette

# normals
vn -1 0 0
vn 1 0 0
vn 0 0 1
vn 0 0 -1
vn 0 -1 0
vn 0 1 0

# texcoords
vt 0.00195313 0.5
vt 0.0449219 0.5
vt 0.423828 0.5
vt 0.587891 0.5
vt 0.958984 0.5
vt 0.962891 0.5

# verts
v -0.6055 1.038 0.0865
v -0.6055 1.038 -0.0865
v -0.6055 1.211 0.2595
v -0.6055 1.211 0.0865
v -0.6055 1.211 -0.0865
v -0.6055 1.211 -0.2595
v -0.6055 1.384 0.2595
v -0.6055 1.384 0.0865
v -0.6055 1.384 -0.0865
v -0.6055 1.384 -0.2595
v -0.6055 1.557 0.2595
v -0.6055 1.557 0.0865
v -0.6055 1.557 -0.0865
v -0.6055 1.557 -0.2595
v -0.6055 1.73 0.0865
v -0.6055 1.73 -0.0865
v -0.4325 0.865 0.0865
v -0.4325 0.865 -0.0865
v -0.4325 1.038 0.0865
v -0.4325 1.038 -0.0865
v -0.4325 1.557 0.2595
v -0.4325 1.557 0.0865
v -0.4325 1.557 -0.0865
v -0.4325 1.557 -0.2595
v -0.4325 1.73 0.2595
v -0.4325 1.73 0.0865
v -0.4325 1.73 -0.0865
v -0.4325 1.73 -0.2595
v -0.4325 1.903 0.0865
v -0.4325 1.903 -0.0865
v -0.2595 1.903 0.0865
v -0.2595 1.903 -0.0865
v -0.2595 2.076 0.0865
v -0.2595 2.076 -0.0865
v -0.0865 0 0.0865
v -0.0865 0 -0.0865
v -0.0865 0.173 0.0865
v -0.0865 0.173 -0.0865
v -0.0865 0.346 0.0865
v -0.0865 0.346 -0.0865
v -0.0865 0.519 0.0865
v -0.0865 0.519 -0.0865
v -0.0865 1.384 0.0865
v -0.0865 1.384 -0.0865
v -0.0865 1.73 0.0865
v -0.0865 1.73 -0.0865
v -0.0865 1.903 0.0865
v -0.0865 1.903 -0.0865
v 0.0865 1.903 0.0865
v 0.0865 1.903 -0.0865
v 0.0865 2.076 0.0865
v 0.0865 2.076 -0.0865
v 0.2595 0.865 0.0865
v 0.2595 0.865 -0.0865
v 0.2595 1.038 0.0865
v 0.2595 1.038 -0.0865
v 0.2595 1.384 0.2595
v 0.2595 1.384 0.0865
v 0.2595 1.384 -0.0865
v 0.2595 1.384 -0.2595
v 0.2595 1.557 0.2595
v 0.2595 1.557 0.0865
v 0.2595 1.557 -0.0865
v 0.2595 1.557 -0.2595
v 0.2595 1.73 0.2595
v 0.2595 1.73 0.0865
v 0.2595 1.73 -0.0865
v 0.2595 1.73 -0.2595
v 0.2595 1.903 0.0865
v 0.2595 1.903 -0.0865
v 0.4325 1.038 0.0865
v 0.4325 1.038 -0.0865
v 0.4325 1.211 0.2595
v 0.4325 1.211 0.0865
v 0.4325 1.211 -0.0865
v 0.4325 1.211 -0.2595
v 0.4325 1.384 0.2595
v 0.4325 1.384 0.0865
v 0.4325 1.384 -0.0865
v 0.4325 1.384 -0.2595
v -0.4325 1.038 0.0865
v -0.4325 1.038 -0.0865
v -0.4325 1.211 0.2595
v -0.4325 1.211 0.0865
v -0.4325 1.211 -0.0865
v -0.4325 1.211 -0.2595
v -0.4325 1.384 0.2595
v -0.4325 1.384 0.0865
v -0.4325 1.384 -0.0865
v -0.4325 1.384 -0.2595
v -0.2595 0.865 0.0865
v -0.2595 0.865 -0.0865
v -0.2595 1.038 0.0865
v -0.2595 1.038 -0.0865
v -0.2595 1.384 0.2595
v -0.2595 1.384 0.0865
v -0.2595 1.384 -0.0865
v -0.2595 1.384 -0.2595
v -0.2595 1.557 0.2595
v -0.2595 1.557 0.0865
v -0.2595 1.557 -0.0865
v -0.2595 1.557 -0.2595
v -0.2595 1.73 0.2595
v -0.2595 1.73 0.0865
v -0.2595 1.73 -0.0865
v -0.2595 1.73 -0.2595
v -0.2595 1.903 0.0865
v -0.2595 1.903 -0.0865
v -0.0865 1.903 0.0865
v -0.0865 1.903 -0.0865
v -0.0865 2.076 0.0865
v -0.0865 2.076 -0.0865
v 0.0865 0 0.0865
v 0.0865 0 -0.0865
v 0.0865 0.173 0.0865
v 0.0865 0.173 -0.0865
v 0.0865 0.346 0.0865
v 0.0865 0.346 -0.0865
v 0.0865 0.519 0.0865
v 0.0865 0.519 -0.0865
v 0.0865 1.384 0.0865
v 0.0865 1.384 -0.0865
v 0.0865 1.73 0.0865
v 0.0865 1.73 -0.0865
v 0.0865 1.903 0.0865
v 0.0865 1.903 -0.0865
v 0.2595 1.903 0.0865
v 0.2595 1.903 -0.0865
v 0.2595 2.076 0.0865
v 0.2595 2.076 -0.0865
v 0.4325 0.865 0.0865
v 0.4325 0.865 -0.0865
v 0.4325 1.038 0.0865
v 0.4325 1.038 -0.0865
v 0.4325 1.557 0.2595
v 0.4325 1.557 0.0865
v 0.4325 1.557 -0.0865
v 0.4325 1.557 -0.2595
v 0.4325 1.73 0.2595
v 0.4325 1.73 0.0865
v 0.4325 1.73 -0.0865
v 0.4325 1.73 -0.2595
v 0.4325 1.903 0.0865
v 0.4325 1.903 -0.0865
v 0.6055 1.038 0.0865
v 0.6055 1.038 -0.0865
v 0.6055 1.211 0.2595
v 0.6055 1.211 0.0865
v 0.6055 1.211 -0.0865
v 0.6055 1.211 -0.2595
v 0.6055 1.384 0.2595
v 0.6055 1.384 0.0865
v 0.6055 1.384 -0.0865
v 0.6055 1.384 -0.2595
v 0.6055 1.557 0.2595
v 0.6055 1.557 0.0865
v 0.6055 1.557 -0.0865
v 0.6055 1.557 -0.2595
v 0.6055 1.73 0.0865
v 0.6055 1.73 -0.0865
v -0.6055 1.211 0.2595
v -0.6055 1.384 0.2595
v -0.6055 1.557 0.2595
v -0.4325 1.211 0.2595
v -0.4325 1.384 0.2595
v -0.4325 1.557 0.2595
v -0.4325 1.73 0.2595
v -0.2595 1.384 0.2595
v -0.2595 1.557 0.2595
v -0.2595 1.73 0.2595
v 0.2595 1.384 0.2595
v 0.2595 1.557 0.2595
v 0.2595 1.73 0.2595
v 0.4325 1.211 0.2595
v 0.4325 1.384 0.2595
v 0.4325 1.557 0.2595
v 0.4325 1.73 0.2595
v 0.6055 1.211 0.2595
v 0.6055 1.384 0.2595
v 0.6055 1.557 0.2595
v -0.6055 1.038 0.0865
v -0.6055 1.211 0.0865
v -0.6055 1.557 0.0865
v -0.6055 1.73 0.0865
v -0.4325 0.865 0.0865
v -0.4325 1.038 0.0865
v -0.4325 1.211 0.0865
v -0.4325 1.557 0.0865
v -0.4325 1.73 0.0865
v -0.4325 1.903 0.0865
v -0.2595 0.865 0.0865
v -0.2595 1.038 0.0865
v -0.2595 1.384 0.0865
v -0.2595 1.557 0.0865
v -0.2595 1.73 0.0865
v -0.2595 1.903 0.0865
v -0.2595 2.076 0.0865
v -0.0865 0 0.0865
v -0.0865 0.173 0.0865
v -0.0865 0.346 0.0865
v -0.0865 0.519 0.0865
v -0.0865 1.384 0.0865
v -0.0865 1.557 0.0865
v -0.0865 1.73 0.0865
v -0.0865 1.903 0.0865
v -0.0865 2.076 0.0865
v 0.0865 0 0.0865
v 0.0865 0.173 0.0865
v 0.0865 0.346 0.0865
v 0.0865 0.519 0.0865
v 0.0865 1.384 0.0865
v 0.0865 1.557 0.0865
v 0.0865 1.73 0.0865
v 0.0865 1.903 0.0865
v 0.0865 2.076 0.0865
v 0.2595 0.865 0.0865
v 0.2595 1.038 0.0865
v 0.2595 1.384 0.0865
v 0.2595 1.557 0.0865
v 0.2595 1.73 0.0865
v 0.2595 1.903 0.0865
v 0.2595 2.076 0.0865
v 0.4325 0.865 0.0865
v 0.4325 1.038 0.0865
v 0.4325 1.211 0.0865
v 0.4325 1.557 0.0865
v 0.4325 1.73 0.0865
v 0.4325 1.903 0.0865
v 0.6055 1.038 0.0865
v 0.6055 1.211 0.0865
v 0.6055 1.557 0.0865
v 0.6055 1.73 0.0865
v -0.6055 1.038 -0.0865
v -0.6055 1.211 -0.0865
v -0.6055 1.557 -0.0865
v -0.6055 1.73 -0.0865
v -0.4325 0.865 -0.0865
v -0.4325 1.038 -0.0865
v -0.4325 1.211 -0.0865
v -0.4325 1.557 -0.0865
v -0.4325 1.73 -0.0865
v -0.4325 1.903 -0.0865
v -0.2595 0.865 -0.0865
v -0.2595 1.038 -0.0865
v -0.2595 1.384 -0.0865
v -0.2595 1.557 -0.0865
v -0.2595 1.73 -0.0865
v -0.2595 1.903 -0.0865
v -0.2595 2.076 -0.0865
v -0.0865 0 -0.0865
v -0.0865 0.173 -0.0865
v -0.0865 0.346 -0.0865
v -0.0865 0.519 -0.0865
v -0.0865 1.384 -0.0865
v -0.0865 1.557 -0.0865
v -0.0865 1.73 -0.0865
v -0.0865 1.903 -0.0865
v -0.0865 2.076 -0.0865
v 0.0865 0 -0.0865
v 0.0865 0.173 -0.0865
v 0.0865 0.346 -0.0865
v 0.0865 0.519 -0.0865
v 0.0865 1.384 -0.0865
v 0.0865 1.557 -0.0865
v 0.0865 1.73 -0.0865
v 0.0865 1.903 -0.0865
v 0.0865 2.076 -0.0865
v 0.2595 0.865 -0.0865
v 0.2595 1.038 -0.0865
v 0.2595 1.384 -0.0865
v 0.2595 1.557 -0.0865
v 0.2595 1.73 -0.0865
v 0.2595 1.903 -0.0865
v 0.2595 2.076 -0.0865
v 0.4325 0.865 -0.0865
v 0.4325 1.038 -0.0865
v 0.4325 1.211 -0.0865
v 0.4325 1.557 -0.0865
v 0.4325 1.73 -0.0865
v 0.4325 1.903 -0.0865
v 0.6055 1.038 -0.0865
v 0.6055 1.211 -0.0865
v 0.6055 1.557 -0.0865
v 0.6055 1.73 -0.0865
v -0.6055 1.211 -0.2595
v -0.6055 1.384 -0.2595
v -0.6055 1.557 -0.2595
v -0.4325 1.211 -0.2595
v -0.4325 1.384 -0.2595
v -0.4325 1.557 -0.2595
v -0.4325 1.73 -0.2595
v -0.2595 1.384 -0.2595
v -0.2595 1.557 -0.2595
v -0.2595 1.73 -0.2595
v 0.2595 1.384 -0.2595
v 0.2595 1.557 -0.2595
v 0.2595 1.73 -0.2595
v 0.4325 1.211 -0.2595
v 0.4325 1.384 -0.2595
v 0.4325 1.557 -0.2595
v 0.4325 1.73 -0.2595
v 0.6055 1.211 -0.2595
v 0.6055 1.384 -0.2595
v 0.6055 1.557 -0.2595
v -0.0865 0 0.0865
v 0.0865 0 0.0865
v -0.0865 0 -0.0865
v 0.0865 0 -0.0865
v -0.4325 0.865 0.0865
v -0.2595 0.865 0.0865
v 0.2595 0.865 0.0865
v 0.4325 0.865 0.0865
v -0.4325 0.865 -0.0865
v -0.2595 0.865 -0.0865
v 0.2595 0.865 -0.0865
v 0.4325 0.865 -0.0865
v -0.6055 1.038 0.0865
v -0.4325 1.038 0.0865
v 0.4325 1.038 0.0865
v 0.6055 1.038 0.0865
v -0.6055 1.038 -0.0865
v -0.4325 1.038 -0.0865
v 0.4325 1.038 -0.0865
v 0.6055 1.038 -0.0865
v -0.6055 1.211 0.2595
v -0.4325 1.211 0.2595
v 0.4325 1.211 0.2595
v 0.6055 1.211 0.2595
v -0.6055 1.211 0.0865
v -0.4325 1.211 0.0865
v 0.4325 1.211 0.0865
v 0.6055 1.211 0.0865
v -0.6055 1.211 -0.0865
v -0.4325 1.211 -0.0865
v 0.4325 1.211 -0.0865
v 0.6055 1.211 -0.0865
v -0.6055 1.211 -0.2595
v -0.4325 1.211 -0.2595
v 0.4325 1.211 -0.2595
v 0.6055 1.211 -0.2595
v -0.4325 1.384 0.2595
v -0.2595 1.384 0.2595
v 0.2595 1.384 0.2595
v 0.4325 1.384 0.2595
v -0.4325 1.384 0.0865
v -0.2595 1.384 0.0865
v -0.0865 1.384 0.0865
v 0.0865 1.384 0.0865
v 0.2595 1.384 0.0865
v 0.4325 1.384 0.0865
v -0.4325 1.384 -0.0865
v -0.2595 1.384 -0.0865
v -0.0865 1.384 -0.0865
v 0.0865 1.384 -0.0865
v 0.2595 1.384 -0.0865
v 0.4325 1.384 -0.0865
v -0.4325 1.384 -0.2595
v -0.2595 1.384 -0.2595
v 0.2595 1.384 -0.2595
v 0.4325 1.384 -0.2595
v -0.2595 1.903 0.0865
v -0.0865 1.903 0.0865
v 0.0865 1.903 0.0865
v 0.2595 1.903 0.0865
v -0.2595 1.903 -0.0865
v -0.0865 1.903 -0.0865
v 0.0865 1.903 -0.0865
v 0.2595 1.903 -0.0865
v -0.4325 1.038 0.0865
v -0.2595 1.038 0.0865
v 0.2595 1.038 0.0865
v 0.4325 1.038 0.0865
v -0.4325 1.038 -0.0865
v -0.2595 1.038 -0.0865
v 0.2595 1.038 -0.0865
v 0.4325 1.038 -0.0865
v -0.6055 1.557 0.2595
v -0.4325 1.557 0.2595
v 0.4325 1.557 0.2595
v 0.6055 1.557 0.2595
v -0.6055 1.557 0.0865
v -0.4325 1.557 0.0865
v 0.4325 1.557 0.0865
v 0.6055 1.557 0.0865
v -0.6055 1.557 -0.0865
v -0.4325 1.557 -0.0865
v 0.4325 1.557 -0.0865
v 0.6055 1.557 -0.0865
v -0.6055 1.557 -0.2595
v -0.4325 1.557 -0.2595
v 0.4325 1.557 -0.2595
v 0.6055 1.557 -0.2595
v -0.4325 1.73 0.2595
v -0.2595 1.73 0.2595
v 0.2595 1.73 0.2595
v 0.4325 1.73 0.2595
v -0.6055 1.73 0.0865
v -0.4325 1.73 0.0865
v -0.2595 1.73 0.0865
v -0.0865 1.73 0.0865
v 0.0865 1.73 0.0865
v 0.2595 1.73 0.0865
v 0.4325 1.73 0.0865
v 0.6055 1.73 0.0865
v -0.6055 1.73 -0.0865
v -0.4325 1.73 -0.0865
v -0.2595 1.73 -0.0865
v -0.0865 1.73 -0.0865
v 0.0865 1.73 -0.0865
v 0.2595 1.73 -0.0865
v 0.4325 1.73 -0.0865
v 0.6055 1.73 -0.0865
v -0.4325 1.73 -0.2595
v -0.2595 1.73 -0.2595
v 0.2595 1.73 -0.2595
v 0.4325 1.73 -0.2595
v -0.4325 1.903 0.0865
v -0.2595 1.903 0.0865
v -0.0865 1.903 0.0865
v 0.0865 1.903 0.0865
v 0.2595 1.903 0.0865
v 0.4325 1.903 0.0865
v -0.4325 1.903 -0.0865
v -0.2595 1.903 -0.0865
v -0.0865 1.903 -0.0865
v 0.0865 1.903 -0.0865
v 0.2595 1.903 -0.0865
v 0.4325 1.903 -0.0865
v -0.2595 2.076 0.0865
v -0.0865 2.076 0.0865
v 0.0865 2.076 0.0865
v 0.2595 2.076 0.0865
v -0.2595 2.076 -0.0865
v -0.0865 2.076 -0.0865
v 0.0865 2.076 -0.0865
v 0.2595 2.076 -0.0865

# faces
f 4/1/1 2/1/1 1/1/1
f 5/1/1 2/1/1 4/1/1
f 7/6/1 4/6/1 3/6/1
f 8/1/1 5/1/1 4/1/1
f 8/6/1 4/6/1 7/6/1
f 9/6/1 6/6/1 5/6/1
f 9/1/1 5/1/1 8/1/1
f 10/6/1 6/6/1 9/6/1
f 11/1/1 8/1/1 7/1/1
f 11/1/1 9/1/1 8/1/1
f 11/1/1 10/1/1 9/1/1
f 12/1/1 10/1/1 11/1/1
f 13/1/1 10/1/1 12/1/1
f 14/1/1 10/1/1 13/1/1
f 15/1/1 13/1/1 12/1/1
f 16/1/1 13/1/1 15/1/1
f 19/1/1 18/1/1 17/1/1
f 20/1/1 18/1/1 19/1/1
f 25/1/1 22/1/1 21/1/1
f 26/1/1 22/1/1 25/1/1
f 27/1/1 24/1/1 23/1/1
f 28/1/1 24/1/1 27/1/1
f 29/1/1 27/1/1 26/1/1
f 30/1/1 27/1/1 29/1/1
f 33/1/1 32/1/1 31/1/1
f 34/1/1 32/1/1 33/1/1
f 37/6/1 36/6/1 35/6/1
f 38/6/1 36/6/1 37/6/1
f 39/5/1 38/5/1 37/5/1
f 40/5/1 38/5/1 39/5/1
f 41/6/1 40/6/1 39/6/1
f 42/6/1 40/6/1 41/6/1
f 43/2/1 42/2/1 41/2/1
f 44/2/1 42/2/1 43/2/1
f 47/2/1 46/2/1 45/2/1
f 48/2/1 46/2/1 47/2/1
f 51/1/1 50/1/1 49/1/1
f 52/1/1 50/1/1 51/1/1
f 55/1/1 54/1/1 53/1/1
f 56/1/1 54/1/1 55/1/1
f 61/6/1 58/6/1 57/6/1
f 62/6/1 58/6/1 61/6/1
f 63/6/1 60/6/1 59/6/1
f 64/6/1 60/6/1 63/6/1
f 65/1/1 62/1/1 61/1/1
f 66/1/1 62/1/1 65/1/1
f 67/1/1 64/1/1 63/1/1
f 68/1/1 64/1/1 67/1/1
f 69/1/1 67/1/1 66/1/1
f 70/1/1 67/1/1 69/1/1
f 74/1/1 72/1/1 71/1/1
f 75/1/1 72/1/1 74/1/1
f 77/6/1 74/6/1 73/6/1
f 78/1/1 75/1/1 74/1/1
f 78/6/1 74/6/1 77/6/1
f 79/6/1 76/6/1 75/6/1
f 79/1/1 75/1/1 78/1/1
f 80/6/1 76/6/1 79/6/1
f 81/1/2 82/1/2 84/1/2
f 84/1/2 82/1/2 85/1/2
f 83/6/2 84/6/2 87/6/2
f 84/1/2 85/1/2 88/1/2
f 87/6/2 84/6/2 88/6/2
f 85/6/2 86/6/2 89/6/2
f 88/1/2 85/1/2 89/1/2
f 89/6/2 86/6/2 90/6/2
f 91/1/2 92/1/2 93/1/2
f 93/1/2 92/1/2 94/1/2
f 95/6/2 96/6/2 99/6/2
f 99/6/2 96/6/2 100/6/2
f 97/6/2 98/6/2 101/6/2
f 101/6/2 98/6/2 102/6/2
f 99/1/2 100/1/2 103/1/2
f 103/1/2 100/1/2 104/1/2
f 101/1/2 102/1/2 105/1/2
f 105/1/2 102/1/2 106/1/2
f 104/1/2 105/1/2 107/1/2
f 107/1/2 105/1/2 108/1/2
f 109/1/2 110/1/2 111/1/2
f 111/1/2 110/1/2 112/1/2
f 113/6/2 114/6/2 115/6/2
f 115/6/2 114/6/2 116/6/2
f 115/5/2 116/5/2 117/5/2
f 117/5/2 116/5/2 118/5/2
f 117/6/2 118/6/2 119/6/2
f 119/6/2 118/6/2 120/6/2
f 119/2/2 120/2/2 121/2/2
f 121/2/2 120/2/2 122/2/2
f 123/2/2 124/2/2 125/2/2
f 125/2/2 124/2/2 126/2/2
f 127/1/2 128/1/2 129/1/2
f 129/1/2 128/1/2 130/1/2
f 131/1/2 132/1/2 133/1/2
f 133/1/2 132/1/2 134/1/2
f 135/1/2 136/1/2 139/1/2
f 139/1/2 136/1/2 140/1/2
f 137/1/2 138/1/2 141/1/2
f 141/1/2 138/1/2 142/1/2
f 140/1/2 141/1/2 143/1/2
f 143/1/2 141/1/2 144/1/2
f 145/1/2 146/1/2 148/1/2
f 148/1/2 146/1/2 149/1/2
f 147/6/2 148/6/2 151/6/2
f 148/1/2 149/1/2 152/1/2
f 151/6/2 148/6/2 152/6/2
f 149/6/2 150/6/2 153/6/2
f 152/1/2 149/1/2 153/1/2
f 153/6/2 150/6/2 154/6/2
f 151/1/2 152/1/2 155/1/2
f 152/1/2 153/1/2 155/1/2
f 153/1/2 154/1/2 155/1/2
f 155/1/2 154/1/2 156/1/2
f 156/1/2 154/1/2 157/1/2
f 157/1/2 154/1/2 158/1/2
f 156/1/2 157/1/2 159/1/2
f 159/1/2 157/1/2 160/1/2
f 164/6/3 162/6/3 161/6/3
f 165/1/3 163/1/3 162/1/3
f 165/6/3 162/6/3 164/6/3
f 166/1/3 163/1/3 165/1/3
f 168/6/3 166/6/3 165/6/3
f 169/1/3 167/1/3 166/1/3
f 169/6/3 166/6/3 168/6/3
f 170/1/3 167/1/3 169/1/3
f 175/6/3 172/6/3 171/6/3
f 176/1/3 173/1/3 172/1/3
f 176/6/3 172/6/3 175/6/3
f 177/1/3 173/1/3 176/1/3
f 178/6/3 175/6/3 174/6/3
f 179/1/3 176/1/3 175/1/3
f 179/6/3 175/6/3 178/6/3
f 180/1/3 176/1/3 179/1/3
f 186/1/3 182/1/3 181/1/3
f 187/1/3 182/1/3 186/1/3
f 188/1/3 184/1/3 183/1/3
f 189/1/3 184/1/3 188/1/3
f 191/1/3 186/1/3 185/1/3
f 192/1/3 186/1/3 191/1/3
f 195/1/3 190/1/3 189/1/3
f 196/1/3 190/1/3 195/1/3
f 202/2/3 194/2/3 193/2/3
f 202/2/3 195/2/3 194/2/3
f 203/2/3 195/2/3 202/2/3
f 204/2/3 195/2/3 203/2/3
f 205/1/3 197/1/3 196/1/3
f 206/1/3 197/1/3 205/1/3
f 207/6/3 199/6/3 198/6/3
f 208/5/3 200/5/3 199/5/3
f 208/6/3 199/6/3 207/6/3
f 209/6/3 201/6/3 200/6/3
f 209/5/3 200/5/3 208/5/3
f 210/2/3 202/2/3 201/2/3
f 210/6/3 201/6/3 209/6/3
f 211/4/3 203/4/3 202/4/3
f 211/2/3 202/2/3 210/2/3
f 212/3/3 204/3/3 203/3/3
f 212/4/3 203/4/3 211/4/3
f 213/2/3 205/2/3 204/2/3
f 213/3/3 204/3/3 212/3/3
f 214/2/3 205/2/3 213/2/3
f 218/2/3 213/2/3 212/2/3
f 218/2/3 212/2/3 211/2/3
f 219/2/3 213/2/3 218/2/3
f 220/2/3 213/2/3 219/2/3
f 221/1/3 215/1/3 214/1/3
f 222/1/3 215/1/3 221/1/3
f 223/1/3 217/1/3 216/1/3
f 224/1/3 217/1/3 223/1/3
f 227/1/3 221/1/3 220/1/3
f 228/1/3 221/1/3 227/1/3
f 229/1/3 225/1/3 224/1/3
f 230/1/3 225/1/3 229/1/3
f 231/1/3 227/1/3 226/1/3
f 232/1/3 227/1/3 231/1/3
f 233/1/4 234/1/4 238/1/4
f 238/1/4 234/1/4 239/1/4
f 235/1/4 236/1/4 240/1/4
f 240/1/4 236/1/4 241/1/4
f 237/1/4 238/1/4 243/1/4
f 243/1/4 238/1/4 244/1/4
f 241/1/4 242/1/4 247/1/4
f 247/1/4 242/1/4 248/1/4
f 245/2/4 246/2/4 254/2/4
f 246/2/4 247/2/4 254/2/4
f 254/2/4 247/2/4 255/2/4
f 255/2/4 247/2/4 256/2/4
f 248/1/4 249/1/4 257/1/4
f 257/1/4 249/1/4 258/1/4
f 250/6/4 251/6/4 259/6/4
f 251/5/4 252/5/4 260/5/4
f 259/6/4 251/6/4 260/6/4
f 252/6/4 253/6/4 261/6/4
f 260/5/4 252/5/4 261/5/4
f 253/2/4 254/2/4 262/2/4
f 261/6/4 253/6/4 262/6/4
f 254/4/4 255/4/4 263/4/4
f 262/2/4 254/2/4 263/2/4
f 255/3/4 256/3/4 264/3/4
f 263/4/4 255/4/4 264/4/4
f 256/2/4 257/2/4 265/2/4
f 264/3/4 256/3/4 265/3/4
f 265/2/4 257/2/4 266/2/4
f 264/2/4 265/2/4 270/2/4
f 263/2/4 264/2/4 270/2/4
f 270/2/4 265/2/4 271/2/4
f 271/2/4 265/2/4 272/2/4
f 266/1/4 267/1/4 273/1/4
f 273/1/4 267/1/4 274/1/4
f 268/1/4 269/1/4 275/1/4
f 275/1/4 269/1/4 276/1/4
f 272/1/4 273/1/4 279/1/4
f 279/1/4 273/1/4 280/1/4
f 276/1/4 277/1/4 281/1/4
f 281/1/4 277/1/4 282/1/4
f 278/1/4 279/1/4 283/1/4
f 283/1/4 279/1/4 284/1/4
f 285/6/4 286/6/4 288/6/4
f 286/1/4 287/1/4 289/1/4
f 288/6/4 286/6/4 289/6/4
f 289/1/4 287/1/4 290/1/4
f 289/6/4 290/6/4 292/6/4
f 290/1/4 291/1/4 293/1/4
f 292/6/4 290/6/4 293/6/4
f 293/1/4 291/1/4 294/1/4
f 295/6/4 296/6/4 299/6/4
f 296/1/4 297/1/4 300/1/4
f 299/6/4 296/6/4 300/6/4
f 300/1/4 297/1/4 301/1/4
f 298/6/4 299/6/4 302/6/4
f 299/1/4 300/1/4 303/1/4
f 302/6/4 299/6/4 303/6/4
f 303/1/4 300/1/4 304/1/4
f 307/6/5 306/6/5 305/6/5
f 308/6/5 306/6/5 307/6/5
f 313/1/5 310/1/5 309/1/5
f 314/1/5 310/1/5 313/1/5
f 315/1/5 312/1/5 311/1/5
f 316/1/5 312/1/5 315/1/5
f 321/1/5 318/1/5 317/1/5
f 322/1/5 318/1/5 321/1/5
f 323/1/5 320/1/5 319/1/5
f 324/1/5 320/1/5 323/1/5
f 329/6/5 326/6/5 325/6/5
f 330/6/5 326/6/5 329/6/5
f 331/6/5 328/6/5 327/6/5
f 332/6/5 328/6/5 331/6/5
f 337/6/5 334/6/5 333/6/5
f 338/6/5 334/6/5 337/6/5
f 339/6/5 336/6/5 335/6/5
f 340/6/5 336/6/5 339/6/5
f 345/6/5 342/6/5 341/6/5
f 346/6/5 342/6/5 345/6/5
f 349/6/5 344/6/5 343/6/5
f 350/6/5 344/6/5 349/6/5
f 351/2/5 347/2/5 346/2/5
f 351/2/5 346/2/5 345/2/5
f 352/2/5 347/2/5 351/2/5
f 353/2/5 347/2/5 352/2/5
f 354/2/5 350/2/5 349/2/5
f 354/2/5 349/2/5 348/2/5
f 355/2/5 350/2/5 354/2/5
f 356/2/5 350/2/5 355/2/5
f 357/6/5 352/6/5 351/6/5
f 358/6/5 352/6/5 357/6/5
f 359/6/5 356/6/5 355/6/5
f 360/6/5 356/6/5 359/6/5
f 365/1/5 362/1/5 361/1/5
f 366/1/5 362/1/5 365/1/5
f 367/1/5 364/1/5 363/1/5
f 368/1/5 364/1/5 367/1/5
f 369/1/6 370/1/6 373/1/6
f 373/1/6 370/1/6 374/1/6
f 371/1/6 372/1/6 375/1/6
f 375/1/6 372/1/6 376/1/6
f 377/1/6 378/1/6 381/1/6
f 381/1/6 378/1/6 382/1/6
f 379/1/6 380/1/6 383/1/6
f 383/1/6 380/1/6 384/1/6
f 385/1/6 386/1/6 389/1/6
f 389/1/6 386/1/6 390/1/6
f 387/1/6 388/1/6 391/1/6
f 391/1/6 388/1/6 392/1/6
f 393/1/6 394/1/6 398/1/6
f 398/1/6 394/1/6 399/1/6
f 395/1/6 396/1/6 402/1/6
f 402/1/6 396/1/6 403/1/6
f 397/1/6 398/1/6 405/1/6
f 405/1/6 398/1/6 406/1/6
f 399/2/6 400/2/6 407/2/6
f 407/2/6 400/2/6 408/2/6
f 401/2/6 402/2/6 409/2/6
f 409/2/6 402/2/6 410/2/6
f 403/1/6 404/1/6 411/1/6
f 411/1/6 404/1/6 412/1/6
f 406/1/6 407/1/6 413/1/6
f 413/1/6 407/1/6 414/1/6
f 410/1/6 411/1/6 415/1/6
f 415/1/6 411/1/6 416/1/6
f 417/1/6 418/1/6 423/1/6
f 423/1/6 418/1/6 424/1/6
f 419/2/6 420/2/6 425/2/6
f 425/2/6 420/2/6 426/2/6
f 421/1/6 422/1/6 427/1/6
f 427/1/6 422/1/6 428/1/6
f 429/1/6 430/1/6 433/1/6
f 433/1/6 430/1/6 434/1/6
f 431/1/6 432/1/6 435/1/6
f 435/1/6 432/1/6 436/1/6
